<mxfile host="app.diagrams.net" agent="Mozilla/5.0 (Windows NT 10.0; Win64; x64) AppleWebKit/537.36 (KHTML, like Gecko) Chrome/140.0.0.0 Safari/537.36 Edg/140.0.0.0" version="28.2.3">
  <diagram name="Page-1" id="S2BkuWnzbKaWGoZfoqPP">
    <mxGraphModel dx="1418" dy="794" grid="1" gridSize="10" guides="1" tooltips="1" connect="1" arrows="1" fold="1" page="1" pageScale="1" pageWidth="827" pageHeight="1169" math="0" shadow="0">
      <root>
        <mxCell id="0" />
        <mxCell id="1" parent="0" />
        <mxCell id="BKW26pUf2z8POeooUctu-10" value="" style="edgeStyle=orthogonalEdgeStyle;rounded=0;orthogonalLoop=1;jettySize=auto;html=1;strokeWidth=2;" edge="1" parent="1" source="BKW26pUf2z8POeooUctu-1" target="BKW26pUf2z8POeooUctu-2">
          <mxGeometry relative="1" as="geometry" />
        </mxCell>
        <mxCell id="BKW26pUf2z8POeooUctu-1" value="&lt;font style=&quot;font-size: 20px;&quot;&gt;Simulácia reálneho prostredia&lt;/font&gt;" style="rounded=0;whiteSpace=wrap;html=1;" vertex="1" parent="1">
          <mxGeometry x="20" y="160" width="120" height="100" as="geometry" />
        </mxCell>
        <mxCell id="BKW26pUf2z8POeooUctu-2" value="&lt;font style=&quot;font-size: 20px;&quot;&gt;Vizualizácia RviZ2&lt;/font&gt;" style="rounded=0;whiteSpace=wrap;html=1;" vertex="1" parent="1">
          <mxGeometry x="210" y="160" width="120" height="100" as="geometry" />
        </mxCell>
        <mxCell id="BKW26pUf2z8POeooUctu-21" value="" style="edgeStyle=orthogonalEdgeStyle;rounded=0;orthogonalLoop=1;jettySize=auto;html=1;strokeWidth=2;" edge="1" parent="1" source="BKW26pUf2z8POeooUctu-3" target="BKW26pUf2z8POeooUctu-4">
          <mxGeometry relative="1" as="geometry">
            <Array as="points">
              <mxPoint x="170" y="360" />
              <mxPoint x="170" y="360" />
            </Array>
          </mxGeometry>
        </mxCell>
        <mxCell id="BKW26pUf2z8POeooUctu-3" value="&lt;font style=&quot;font-size: 20px;&quot;&gt;Navigácia&lt;/font&gt;&lt;div&gt;&lt;font style=&quot;font-size: 20px;&quot;&gt;Nav2&lt;/font&gt;&lt;/div&gt;" style="rounded=0;whiteSpace=wrap;html=1;" vertex="1" parent="1">
          <mxGeometry x="210" y="310" width="120" height="100" as="geometry" />
        </mxCell>
        <mxCell id="BKW26pUf2z8POeooUctu-11" value="" style="edgeStyle=orthogonalEdgeStyle;rounded=0;orthogonalLoop=1;jettySize=auto;html=1;strokeWidth=2;" edge="1" parent="1" source="BKW26pUf2z8POeooUctu-4" target="BKW26pUf2z8POeooUctu-1">
          <mxGeometry relative="1" as="geometry" />
        </mxCell>
        <mxCell id="BKW26pUf2z8POeooUctu-4" value="&lt;font style=&quot;font-size: 20px;&quot;&gt;Ovládanie robota&lt;/font&gt;" style="rounded=0;whiteSpace=wrap;html=1;" vertex="1" parent="1">
          <mxGeometry x="20" y="310" width="120" height="100" as="geometry" />
        </mxCell>
        <mxCell id="BKW26pUf2z8POeooUctu-28" value="" style="edgeStyle=orthogonalEdgeStyle;rounded=0;orthogonalLoop=1;jettySize=auto;html=1;strokeWidth=2;" edge="1" parent="1" source="BKW26pUf2z8POeooUctu-5" target="BKW26pUf2z8POeooUctu-26">
          <mxGeometry relative="1" as="geometry" />
        </mxCell>
        <mxCell id="BKW26pUf2z8POeooUctu-5" value="&lt;font style=&quot;font-size: 20px;&quot;&gt;Neurónová sieť na optimalizáciu&lt;/font&gt;" style="rounded=0;whiteSpace=wrap;html=1;" vertex="1" parent="1">
          <mxGeometry x="430" y="160" width="120" height="100" as="geometry" />
        </mxCell>
        <mxCell id="BKW26pUf2z8POeooUctu-15" value="" style="edgeStyle=orthogonalEdgeStyle;rounded=0;orthogonalLoop=1;jettySize=auto;html=1;strokeWidth=2;" edge="1" parent="1" source="BKW26pUf2z8POeooUctu-7" target="BKW26pUf2z8POeooUctu-5">
          <mxGeometry relative="1" as="geometry" />
        </mxCell>
        <mxCell id="BKW26pUf2z8POeooUctu-7" value="&lt;font style=&quot;font-size: 20px;&quot;&gt;Spracovanie dát zo senzorov&lt;/font&gt;" style="rounded=0;whiteSpace=wrap;html=1;" vertex="1" parent="1">
          <mxGeometry x="430" y="310" width="120" height="100" as="geometry" />
        </mxCell>
        <mxCell id="BKW26pUf2z8POeooUctu-16" value="" style="edgeStyle=orthogonalEdgeStyle;rounded=0;orthogonalLoop=1;jettySize=auto;html=1;" edge="1" parent="1" source="BKW26pUf2z8POeooUctu-9" target="BKW26pUf2z8POeooUctu-7">
          <mxGeometry relative="1" as="geometry" />
        </mxCell>
        <mxCell id="BKW26pUf2z8POeooUctu-19" value="" style="edgeStyle=orthogonalEdgeStyle;rounded=0;orthogonalLoop=1;jettySize=auto;html=1;strokeWidth=2;" edge="1" parent="1" source="BKW26pUf2z8POeooUctu-9" target="BKW26pUf2z8POeooUctu-7">
          <mxGeometry relative="1" as="geometry" />
        </mxCell>
        <mxCell id="BKW26pUf2z8POeooUctu-9" value="&lt;font style=&quot;font-size: 20px;&quot;&gt;Reálny robot&lt;/font&gt;" style="rounded=0;whiteSpace=wrap;html=1;" vertex="1" parent="1">
          <mxGeometry x="430" y="460" width="120" height="100" as="geometry" />
        </mxCell>
        <mxCell id="BKW26pUf2z8POeooUctu-23" value="" style="edgeStyle=orthogonalEdgeStyle;rounded=0;orthogonalLoop=1;jettySize=auto;html=1;strokeWidth=2;" edge="1" parent="1" source="BKW26pUf2z8POeooUctu-22" target="BKW26pUf2z8POeooUctu-3">
          <mxGeometry relative="1" as="geometry" />
        </mxCell>
        <mxCell id="BKW26pUf2z8POeooUctu-22" value="&lt;font style=&quot;font-size: 20px;&quot;&gt;Dáta zo simulovaných senzorov&lt;/font&gt;" style="rounded=0;whiteSpace=wrap;html=1;" vertex="1" parent="1">
          <mxGeometry x="210" y="460" width="120" height="100" as="geometry" />
        </mxCell>
        <mxCell id="BKW26pUf2z8POeooUctu-25" value="" style="shape=image;verticalLabelPosition=bottom;labelBackgroundColor=default;verticalAlign=top;aspect=fixed;imageAspect=0;image=data:image/png,iVBORw0KGgoAAAANSUhEUgAAAfcAAAKsCAYAAADx1PSOAAAAAXNSR0IArs4c6QAAAARnQU1BAACxjwv8YQUAAAAJcEhZcwAADsMAAA7DAcdvqGQAAP+lSURBVHhe7J0HwB1Hea5HvXfJ3ZblbtNcwcYY29QECIROSMEGAgmEEJLcEELANj2hd1KBe5PQIaGlg00zxpjmIksukixX9S5b9X7vN/Pufjtnds+e85+/6Gceaf7pZWd3592ZLWfCQcFlMplMJpMZN0wMdiaTyWQymXFCFvdMJpPJZMYZWdwzmUwmkxlnZHHPZDKZTGackcU9k8lkMplxRhb3TCaTyWTGGVncM5lMJpMZZ2Rxz2QymUxmnJE/YpPJjBGuvPJKtdesWaP26tWr1QZ027CxwPHHHx9cHvpt+NKlS9Vm2GWXXaZ2JpMZPrK4ZzIDwIovDbjmmmvUtmEpFi5cEFzOLVgA90G3YOFC9S9cON/pWSp/nvTkJ2gYmTx5sps0aZKbOHGimpkzZ7p9+/a5iRMmhBROwie4CRPSi3Tx6T9B8tm0kydPUvvmm5e7PXv2uv3797n169e7A5KPeTdt2qz5wGZxu1C1uoWNGzepjXR12IsCunFRYP2XXHKJ2plMpjtZ3DOZFljRhsHsGvbVV18dUlSBWEOkFyyYr24IJgRw8eJFYha66dOnu/nz54l7ccghJ6OIcBMHD3SeqsgzcaIXYJQPId+3b38htvhLN+JiDhRllnFM58vzZR88eEDFfP9+b8Pvw31+1gFSFxLMD9Zv2KDuLVu2unvvvQ+REjrBrVixEinlYsBfBGzatKnjgiC+CLj44osLfxb/TKYki3smY6B4U7Qx844FfNGihSLYC93iJSLUiyDWi9ylT7jY7XloT0hRQsGmuHv3BJltT3R79+5T99SpU3Wm3U3c62C5OJWtsBM7i++Ov0Cw8AIAbbbYoSOuMwZpWc5DDz0k/gNuypQplTIQDz8vHHC9Af+GDRvdtm3b3bp167XPNmxY7zZK2IYNm9zKlbf5tAGKPoU/i37ml5Us7plfWijisGMRh4DDnHzyySp2z3/Bc1S8J04qZ8lcsuZMde/evWpPnzZNbSvWsfhBhCm65QVANU1bmA+nci9l1KX021ONLQTXYIeObvUiLdNT5OFnH8bYsh+UiwFcAPkyyhUDrmSsW79eypnibrnF3zpYceutekGwcuXtGg8o8ljqh50FPzPeyeKe+aUBIv6pT31Kl9RhE4j4Yx7zaBEo5x75yIe7k04+UQUO97ABZqzwQ7wh3BRjxoP9mDFHM14reCnx40UBwAVEL8I8aOprHlybMNSUtwHg77xgIPGwpHnF8GLAxu/Zs0dXAVD2gQP73YH9B4pnAtatW+duu+0OFf2VK1a6jRu96EPsAUQeM/z8kF9mvJHFPTPuwVPonJlDyLGMfuqpp7iHPfwMd9JJJ4iw2tn4ZH0gbZrMFK2IW/GmCFfFuyrUYDTFul+aWzyy22OHpnK2f0D2w0S1CdPBxr6CzbAHH3xILwhiwV+58g63/JZbdIa/YsVtxcw+C31mvJDFPTMuwcz8qquu0tk6xPxxj3usivnJJ59UzJIhyJNEDKxoY7mc95atiFO87f3oQ1G829K8ZaO/3cWwZZri79mXy/a0EY79xgsEzPS5j7m0//0f/NBdc/V33PLlKwqhv+KKK4oZfiZzqJHFPTOuwOz80ksvVfdzn/vr7pJLH69PrVOI+eAa/JjN0Q2siINDeQY+KNJbPgb7wzTJDmkUdCzXA8bhqX/M6OHXVwcnejeA8F915dvdrl0PZpHPHLJkcc+MKyDEz3/+c9xznvOsDuE+cMDP6ryIl0L+yzIbHyrNPTNG+q2mGRjmKPQgnuHHIBzv53/kwx9Xkf/kJz+ZH8LLHFJkcc+MCy6//HL3jW983b3y917uHv6wMypL7d7unJGTLOi9ke6tMdSHLZpihz2Kvr2Pj+OF/i984cvuR9fd4FatWqX+TOZQIIt7Zlxw+OGHufe+9106KGNZFV9tU0GXgT6L+fCQ7sUx0rc9NCMeAu0Mn8fOm9/0FnfuuY/WGXwmcyhQTmcymUMYfOBkxcrbOoRb3yWXsRrhNJnBAAmMjXWNKtVGNRIfFxB0mkzmUCWLe2Zc8LGPfdj9zSf+Xt9j9oN1eWjrwN3DYJ/pn7KLx1Bnt2wKRZ6GfPazX3A33XSLe8lLXhJCMpmxTxb3zLhg9+7d7vzzz3Nvfes73Re/+JUQWsMY0p3xDzt7DHR4y2ZgmZ5L9ViO//a3v+O+8R9fdY9+9HkalskcCmRxz4wLHnpoj3vmM5/uHvWoR7j/+Z9vuVe/+rUhphys43urY0VzxiPsWmusa1RJNMMeI9/61jXu9175GvecZ7/I7dt/wH3kYx8MqfIyfebQIT9QlxkXvPGNb3AnnHCs27Bhg7vnnnvdz352o/vud3+gcYcdtsRdcsnj9SM2eJKeFEuvecweUcruHhsd/8C6dSLo/ncFPv+5L6n9tGf8qrvoogvdkUce6WbMnOFmz57tLrnoCW7mzFkan8mMdbK4Z8YFr33ta9xZZz1cPy26Y8dO/TDJli3b3PZt29zau+9xP//5TeLfokJ/xhki8g8/3R12+GEVsVey0I8YE0aps/FDM3gA88Ybb3K33Lxc76cD/DTvm658o75pMXnSZDd5ymQ3dcrULO6ZQ5Is7plxwatf/fvuvPPOLMSdv9CGB+umyCCNHxaB+d//vdrduWq1u+P2OzUeYr9EzGFLlojgn6FuFfws8iPKcM/mP/u5L6j9uc9+UW2wQMT8nHPOdgsXLXDnPfo8h+/S4wn5LO6Z8UAW98y44BWveLl77GPP6yru+GEYLMdv2rRZ42+//Q53xx2r3ObNm9UGEHzwMBF5CD5Q0Q/uzPAx1Nk8RfxmmY1zRg7wCWKI+YknLnMnnHiC2Cc4HfmkOj4dnxL3KSLuM7O4Zw5BsrhnxgUve9nl7qKLzq8sy+PQrhN3gq+QIR3OAgg84u4Ukb/jzlVyAbBFw3ghAOxMH276GccLg8xgiMX+W9++WpfUAQQcbvrB/PnzVbBPWLZMxHy+CjkMyvG7HWquSf1DdfBmcc+MQ7K4Z8YFL33pZe7xj78gOXPHD4RMnTq1q7j7sd+LgBUVL+4H3e2Y2UtCzPA3iehv3gzx3+ITGewFAP0U/Xwh0MznPvdFFev1QbStcJN58+aJiM8r7PkLYC9wy0443k2U/Q2R9r8r4MVa9yn++R0cdrSQxT0zjsninhkXXHbZ77hLLrlwWMQd+DRVI3/UxuxeXEHst+qDe+reslVL2az+rb6gBFbk6V68mBcBi9V+4Yuep7Zt+2ih22749reuces3bAg+D0UZIg3oT4k1mTdvbrBL4VY/BBxhKug+je4hdIXuLxFm2BDnnsQdOx3h3iAt8mZxz4wHsrhnxgW/9Vsvdk960sU9iTsOff44iI7zcOhADzcVwOPTekE/YNwajikg/DoVrCOK0/TO3fCTn6u9ecs2uSgoLwBwQQC2hIsCXCiMZRYtWhhceOrcuhdoH2G5HL/KBzN37hw3Z85st3///uCeo2kpsjTYEdxXKWyaLO6ZTJUs7plxwYte9EL3K7/yhIS4T1BBh7BD4MeauGs5CXyZxh3wrZLWQbzgC20NmyTYdqN9dAXoYAZsrxaCMkrbGgim9aMQteEPeZEGtsenwbbhR1gg4jB4DmLfvr26b/bvE//+fe4gBD800tZRlA+7Bpsmi3smUyV/oS4zboCQqNhS0Ojogs/TLi2ANlAfRote2zzcsD3e8FZHaToZVNs7yxk7vZLJjB5Z3DPjgv0yC0yRFpY0vaQdCs2iN1ikFm+PSH0j03+ZTKY7Wdwz44KREMokoz2Fb2DU+mS0GOrmNuTHswKZzKFEFvfMuABL8ima7tmOV+JZeuweKdHvvZaRaVcvaH/VHFuZzFgmi3tmXMAH48aiQMTwAa5BX3iMhHD3W/5IXVBkMhlPFvfMuKBu5m5FZfgFZvRWCXrdNqTvx5Dh7sk25WuaYWyI3d5M5lAji3tmXIBXrMqRHkIUnKNILIwpM1SGWo5dRYjNLw22++AWM4h9k8mMJlncM+MCvEddhx2ohyaE+OPdI8lwVsmLg5TpjTbpJc1wFNuAZk+U0bR9vW97JjP2yOKeGReU77inB2YbPhKDdxaITCYzmmRxz4wLygfqmoV1IJLbMJVG3VnYB0mvfYn0zXny0++ZXwayuGfGBXUP1P1yMTwL+CPbs8NbW78XXvmCLXOokcU9My5ouuc+Uoy+AGQB6sB0iXfW95FddWEqzPIPmFWhTOZQIYt7Zlxgl+UtI6a3o/CgXSfD1QjbicPboSi999pElINrkOTZeuZQJot7ZtxQFfg8MGfakp+TyIw/srhnxgV796Z/OGbsMCam9sNE/8I4cpJaX1NK2LPYZw51srhnxgXFrD2PyZkEEOueBTsfS5lDmCzumXEBH6izd185mFfHdIblkXvcUOzK9D5t2tepuHxsZMYDWdwz44LiaXkdl3sf5Eke2JuI+maMdhX2oTV15H2dGc9kcc+MC/iFOjK0gfvQvD+exSq+3qjvj177Kvdt5lAji3tmXDDi77kPVf+HmB9io4ITbCs+Y0GI6lqQJTKTGRmyuGfGBQcODOZDI4f6r6FR2Cn4dWY0GIl6e64jSh7nPzCK/ZXJDIUs7pnMENCB/xAUgKG0N5VzVLZ+wJVmEc+MJ7K4Z8YF+/cPZuY+lgd4tI1muLF1WWOJ/f0S10Ez2oyFNmQy/ZLFPZMhTSvyGhclOLRX8IckoszXa/5q+qGK59DyD7X2TGYsk8U9My7gR2z6Fat+GMm6hhNsR2w68WH18f3RVFav9QyyXRaUmn8mNnOokcU9My6o/8nXargVgDoxaBYJP10fLiE5FEFf0AwaW7Y1gyYuczjqyGRGkizumXHHIAbmVBkIoxkWxvAyf9strvRPTSbEp55CV1/bigyVOlvQLS3j/bcTDvRUdiYzVsjinhkX7Nu3N7jSQEyaGIu6StGiOZQYV4Iom5J/0z1zqJHFPTMuiL9QBwYqMH2UNa4ErgbpdRW/gTD+uyuTGTGyuGfGDdAG6mlbYW1KhziaXmEeW0Y/5WQ8+LiQNZZUWM+Y/ZUm77vMoUUW98y4YMQ/P9snbUVe0wzwXsFo3XboTxKruVp0V+8MR5mZzBgii3tmXFD8nvsAqZspDoI8ix8cbS+YeqEsz9t5b2UONbK4Z8YF9p57PND3P/CP1nx38IyGOKHf++/7YaBoim1T6aarEjvWtiGTaUkW98y4YOLE4ZldD+fgPpKiMaje6afFg9hOuy9iM1TalIE0n/70p92nPvUpd/XVV4fQTGbsksU9c8izevXq4OocqFMDd2tBGIGJO9pCQ1q3L1NPpQvr+zPu66ae/8u//Et3+eWXu0svvdQtW7ZMDfwwWfQzY40JcnDnkSQz5oGAw3AAveaaayqD6eLFi9xb3/Ymt2HdBrdr9y63b59/wA73yydPnuKmTJ3ipk6Z4iZPmewmTiivafmRkglQchXzcJ9dnfK3OD0gwF4MmIdG/iAWSUI65omx4Uwf4IVECNPyvEP/wGISdel/tNX7aceU7SqK8vgMauvWwkZYsFsZzYf/Jj/cgu8W/7GaA/v360/y4lsEe/fuU3vfvn1u//59Ha8warkTUdbEUJ6GovgkRVsmTpT9Gmx1S/6iHJ+O5fj6ECiWuFkGIpF30qRJaiZPmizHyyQ3fdoMN3PWDPe5f/ms27Vrt5s2fbq779773AMPrNN8O3fuVDc5/vjjC3PxxRdX/JnMSJHFPTNmSAk4w8isWbPUPuywJW7W7Flu/rx5EjbT3XPPve5Vr/5dt3H9Rrdz185C3DFYQ9wni7BPE4GvE3eIHsQAI74O9ojEgF+cHhAheGHXi3vzg30sC/j0BVqhEMK0PO/QP7CYRF3634uVuoIdw3Z5N/8IPoPaurWwERbsVkbz4b/JD7fgu6UUd7zNADEfSXH3zeoUdw8CxZK6WQYiNa8eM3KcTJzkpoi4z5g+002fOd1946tfl/bvFbGf5ktAPkkLe8f2HWqvW7det+ve++5327dvl4uA+zUtoLhfcsklbunSpYXgw5/JDJos7pkRhUINAYd7zZo1FUEnc+bMdkceeaSbPWcWhmQZDI+T2fliFU8VDREFADfMihUr3W/+1gvdpg0U9wMYq4uBevKUqSrukybLrEwGbeaVv96W/83iXtZVJ+7+x0XK9IoWJGiwjQtuBlXSwbLx3sck6tL/aKv3R00tQM6wNSzK4zOqrfGwERbsVkbz4X/IF2zguwXifkDE/YAKHgQ+Le68IJISUA7FXYPwF+Xq/6gfEM08vYu77xvGiR2EWmfucoxMnDRRxH2ymy7iPm3aFPc///nfmgZMnTpV0/o6fRuwbUhPUDfYtm2b2y0z/k2bNrm1d9/jtm/brmHbxCYUehjO9rPoZ4ZCFvfMsHLllVfWCvi8eXPd3Llz3THHHq3+E5Ytc4cffpi6iT08H3roIRk8p6ggHDiwX+Mwk8Jvud9///3uqb/yJLd54ya3+8HdKu6QAgz0yGPFXZdsZTBG/kJYgmpwxqjDvdiSAC7Fp/d5SrfEw8a/MSruvgxBExl3sHVrYSMs2OrW6NLfYTQf/vt8XlB9Pt8tVXGHoGNFZayLO/JPgsFFoRwvEHKs/Pz4hz/SdISijjpQt4aJjWMM6HEmaXCM4hgkPs8Et2XLFgmf6tasXuPuuHOVtmXL1q3urjVrfUKBIo+ZPs6lTKYtWdwzAwMCjgeLrrrqqhDi8TOSY9V9yiknu5kzZ7r58+ep3x5+GOj37NmjgylgHGyEw8a9W9r8cA383/jGf7jX/tGrgrg/qIIPJunsC6I+WcQdg7Rflsfginz9ibvPR7f8UaEYTXH3CcsURHOaosKWiaO0NSz4OTOlADUazYf/Pr/+C/l9t1TFfS/EPTFz11ZK2qLvO8Td2AH6irZIvWlxD/FiEKCWUoq7+hAR0ml+Mf6++yQ3BceNCPZ/fPM/3LHHHKPpfXt97lLk/QUO/BrO+GBjBalMZ/NOlPKw0uT7DiDNNVd/R4/xzVu2ulUi/vPmzXerVq0KKTKZZrK4ZwYGBiQ82PaWt7xJB8a777lXwxfMn6+DFw81zMAp4F6EIbQHRMDLH3+x6f3sjgZCUQo8+cQn/t5dceUb3NbNW1TcfRyWWDlzxz33UtwJyvMOMTre+sHdO+VvaAMo2+DbUbhxwYECNGmZXvFjeCIuuBlUSQfLxnsfk6hL/0MYgj9KQcp2FUUphQjDjXxSkIpQsLsa/BNbszI/bTHSLdo3bcS92AcoQfJiOXy4xR3t03jvVdgnFHcYHMdYav9/n/5nt3PHDve0p/+KXsTZH5KhoCM9QB5fX1m/bxvD/MqAukMYjlGmhUHf4RzhNoE1a+5y73zHu90VV1yRZ/GZrmRxzwwEvA709a9/3V34uAvcs575dA3jMjoGbwr0gyK8BGFYXpfDUON4KHLAZxjzcimefggE32//yEc+4V71qlegJPeg1Atx10FVH4qarE/LT5s6rWPmDnmDLUMomiH4wVVnVjCaxoN0pcniDluzMj9tMdIt2jf9iLsXShFIDdK/pR2gr2iPGIgrxV0vDrQ5ZbzmgoXGiQN9w3KUkM6LNUR+khj/tsWHP/hRN2vmDPfMZz1Dtme/bJfvSM7AJwZBh8EFpa/fH0d+dg6Di47Sb2fygOnVLduwYsVtOmO/dcVKd+vyFRr+v9/+b/eES56k7kymiSzumYGA14He/vYr3Mc+9ndu69ZtOoPHA3CLFi10p556slu4aJG4F7jF4qc489CDjcEeXri59G4Nlie9bUV/fxgcJ+p9zY9+9BPuggseI/WdKOl82Zx5+VfhpoldijugSEspGO+1LC0TkbQDrJd10y1/gnD6OsURbIEF+ATq9AQ3rEolwRZHmcW7y2QUJmy799OO0ZyhzLI8IWy/30Zxw0ZYsLsa1hnc1ga+W6rivk/2YUXcxfjfdU+Ju+wHU15hB+izbbLijhQQZoQzneaCpfupXtzxb+Ik/atC/T///b/u37/5n+7t77jK73c5fveHi0cAQaa4ezeOIS/kejGJdomb6Zlu06bNbqOY21bepmErxN64YaPbIIbg9tX8BQvcshOOd894xtPcOeec6y6+6NIQm8nUk8U9MxAg7u9851UqsjJSuTtuv9N96Uv/5pYtO96tWlW+ygbRB6eeeoqKPo6+hSL4p5x8ooYXgilDKwZSXAj416g4a/erAMCKOwby//3W1e7aH1znzjjjVHealD133jwNx+pBr+KuMygYbYuHbfOmvMiQP0E4mTaEA18NgvQP6w0B3mIQYBHiCFkKd5EzeNBmX1xpx2hOLaMoysN2iO23HWWUdlfDOoPb2sB3S//iDhv7ieUVdoA+2yYV9WDzmLBpyn4L7ZN/lVJDOvyDuG/ZvNX9zcf/Tst5/gueK8fyUt0m/2yFB23lkrq/qKguy0PAN2/e4jZt3KRPy28Ue4OYlTIbJ3iwFK067rhj1T1v/nw3d+5s95l/+bx705V/6SbLxQLKxLMqZ599Thb3TCuyuGcGAsT9Xe96qw7i80RUYb/xjW9RwcchtlkGuU0yyG3dutXdeedqHfDwtDBsAuGH4INTTjkliP5Jmt/P5svlfRgIBOBAisH1P//zv93tcmFx//0PuGOOOco99alP1OXPJnH3Dj9QY5DVgRrxIY0kClZpt5q5h+ywfJQP93WHNGKF3J7CyTJLdyhOEJf+R1u9n3aM5gxlluUJ3Dax8U9thAW7q2GdwW1t4LslEnd9Ur6FuMPIvqiIu5YtFtqvtt8Q2yYVdTFeZOH34UyHMPQHs9NdEMr51v9+2/30hp/qsXn++Y/RVyxxcYly/bMcHq1P0kPAYd9+2x2FgG8Ue+WK20JKjwq3nBvHHnssqnLHHHuMO26pf9AU+X0bS/c73vZX7sq3vlkf6kNdM2fNdOecfa573GMfr+kymSayuGcGAsT9r/7qrTqAL1gwXwfzN7zhSg3jIZayIfpg1eo1MsNfo24MqvFsf1FY1j/5ZCzxL1T3wgULQ4pOrrvuenfttde5lStv00EVs6JzzjnTnXjSCX2LO0CbYay4I5WmKNIFO2TXeJ8AfwLBDSukU4okkB61CneZTFz6H20N/pACbUebNBRuhHuvt4K72Dax8U9thAW7m0E5sPCHIox/PlCiUa38qdxz11m7FXd/7zoWdxVlGFMe4vBf2x+cwLZJRT3YfgWmjA+pJXunuON4+9lPf67H3GoxON4e+9gL3DOe8auFmKON6zds1ON15crbNey2227X48vC1ztxvKG+Y447WgUd4dq+ANsU2x602bm3v/Vd7i1vu9Lfw5e8+FgTxP3CCy4K6TKZerK4ZwYCxP2v//ptOmgvWLBAB/M///MrNMweYr24MZDeqSI/QQdeDMKr5SKAcIn/lFNOUhtL/bgI4OwfcAb1/e//UD90gwuP+WLwBP/ZZz+qWGr1QoIcQRzUGQZcxIsb6UqTWJbHX3V4ny/EW0hWhAe0eASFdEqRJJQpf7QecZbJxKX/vQhoiNplCqI5Q5ksTzEZ/bajrNLualh3cJe2Fqrbi3ZT3PfJ8QAxbyPualTcJUT2hfZxiCPGafL4WbsXUX+RwPhQgtgH3dYtW91Pf/IzCTnovv2tazQNng953OMuUPepp52iD7Ch2hUrV3bcB4d4o/5jZeYN4Z47d46bO39eEHRfX3fbu0mIKkCat73lne6tb7+qIu7nnnOeu+AxF4ZUmUw9WdwzAwHi/u53v70i7q9//Zs1LHWIxWF1ftg09G/etMVt2Ypl/a0624edWuKH0GPQPu20k9V/2mmnichf6269daUM1hvE9k8gzxehh8ifcMLxbqG0HRcAMBhQlURbquKu/5EiOLyP4zcsJCvCAzqgI8gO7EUSKdtbvi5xlsnEpf8hat5PO0ZLCWVWyqCaiI1/FX8bg3/IEtylrYXo9qJvipn7Ad5vL80BOUbS4g4x09K0XA9tD4MrbZL9BZszd9wCgh8XhFt0NWiVzMzLi0PLaaefWjyRDjDTBoWAi3+OiDgFHNi66bc2KN02LDgCNj1B2Fuveod72zve0jFzz+KeaUMW98xAaBL3FHWHXRxOv7VtGhuOB6AAlvgBBvV4iX/JEjzBv0jtxUsWuQ3rN6rI4yJg+fJbQyrnZ/jzF7iFC+fpQ4FQRoRxpm+f6Jc/QT/hDjYIYzYsJCvCAzqmI8iO7UWSUKb8Gay4hzQUFLE1jPnhVwt2g8E/5Anu0vbl+G7x4o4H0DBzt+KO46PunruKc2pZ3sBgpGc+5Pned7/v1qxZqxd7mKF3g/fBKdrHis374ATb4espoT+20ZYYRiFNqiwSh2dxzwyFLO6ZgVAn7u95zzt0QGtLnNb6e3UThGGg3xxm95jtp0QfQOQxq7e2FX2A15O8+M+Tsp07XsXgoP6IzTy8uhRmfRzn1ZJ0vAQo8X4O+lVKcae7HPrFpf9V/kxcmQJouYjVMpgupKGQiI1/Goew4Icbt9J9kuC3RtNopHeL+IjHh4mNzcE24R/eCy+flMebD+kH6vimAo0ur/sCERts577/vR+4u9auddu2btfZeTcg4FidoYAft/Q4nYnzK4m9gHaVlO5KcKCa1vvRJ3F4HVbcUUFels/0Qhb3zEDgPXc8Vdxm5t4L9hBNHa5xWJOfAyzdWK7FU/ybN29W0d+0yS/t2898WuEH8K9fv0HduACg26LvJweRn78AFwEH9T6/LvdK9fPm+/u2uCCYL25ghTj4gh8CiOcCiLjUU4op7RiUIrHBrSnVXaSVjPincSgERjxw6+wZtgbTHQz+oQi6E+IO4mX5jRs3qrDjiXKIus6wRaRRJsAPqmzfvkO/lQB3W9DfmIHThoAD2iW+FzyhkR0wvpPQzAK225IK64cs7pmhkMU9MxAGIe4YFFXEwuDY7dBMxcdh/R7eEH1w+x13qk3hT4n+6aefpkv8ZPEi714e7uHyYay6CwFSzPgFiD9gGLZi3lzvRu9ghaCQEHH4dPj1PP/t8wIkYhegX4Pbi7H3Qpw1Yeh3FWtxQ9zVL24+nObvZ2sKnxxxMuP+r//+llwg+Vk0LpQIXhNDLfZ5iBh7sdQEZ9r4hUAIuK6SYEYeLaM30XQ46PYk4PEYUxc+KLK4Z4ZCFvfMQKC422V5PC3fz8ydg2Y/h2Yqz6DKIX627z9Ognf2Ifpbtng/oOifdtqpap9++qkahgf6yvvLQtCG737n+2qjyg0bN7gN6zepH+CCgFTd5dPbowXfVvD43xUA3H5AN/bpRRd5UVp+6wrZRn+hs162afkt1dseXEaHiAPMvukGHaIqXru/bDzC4e92DHSUGagLHySptqFeirt/NXCimzVTxP3cLO6ZdmRxzwyEsSLudbQtq9908HO2j5/vxEwfYal7+1jehxBS9PFp3iVm5g9YPr/GB1J1NmGFybo5CydNddSB8uJyAMLxkCIEHK+QwX+LiHf83AIFHA+wAYi3F3Db5uAI2G1oTcssfZU9IOr6vONVuCzumR7I4p4ZCBB3fsRm4cJS3CH43RitgRWHPuru5RRIpa3Lz3CIPtz+nX1XfKEv9UAfZvuLRPiXwEgYXtGKy6cY19WbwvZxW3GP8yAd80LAsZJw663+Iy4Qb75aSFIC7sMWiI/1VNsSHwpDPjYk+2gdX5Ze9hXJ4p4ZClncMwPBijueJIe44wt1bcTdMhYGYku306PX+NifeqDPLvEDO9s/7bRTakU/pp++RJnMRwFfvtx/Bx0Cjgfi7P1xfUBQgHDjW/7w43748ccv1XBV1wgUHzc9bmpT2+O4uB/6Oob6yNKGbvuoiSzumaGQxT0zECDu/tvyQxN30NfgPErUnT5Np1WbOLvED/fmLVtrH+ij8AMs7y+W8Mc/vvsnSr/73e/pvW8q27p16/VefurBP4g2BRzgtbKlS/GN9OpDkJ7O/eeju+/XNvt+WI6PmiLr9pVtQ9P+HApZ3DNDIYt7ZiCU4l7ec+e35YdjMB6WAX4AtDmdmtK0jXvDG65wz3vur7s77rjT4XU3frAFM/4tW9u/QoZ9hYf8sOQ+d94cnXXj9bybbrpZxfzpz/jVLn3dGZdK7svof581tWFYh7D+m1yh1zZie9Pijo/YPC6kymTqyeKeGQi6LC/iji+R4T4rxP0v/uIqFfdeGEnRHsm6QL+nWirf61//JvfOd1zp8J32g/rTt2U6tcXwZ08h/vqQ/sRJbhJ+IW/KFDd50mT9DfKDByfoh2C2bfMXB4gHn/vsF2U/znPP+LWnqx+07a5u/doc3/s+GdYhrPfmJOm1jVncM0PFv+yayQwAiMhQGdaBOmIk6wIYsLuZFHXpUuHyPzKpNFXDb7HbMJaPiwN4vT0Y0yvYT9aMKKiujRlGhrn4zDgli3tmoMSDbz+DsR3I68xwkKoHpolu8b2SEsOU6SVtG+NJC28Z34mNq5bVG2V/45v9VSOxwXjKtN33z6BhfXV2DMLr4jKZ4SSLe2bgjMRgNqg6OPg2lWfT2LS0QRw3svQnqCVYwoc4lwJNkbZibcPiNHT3w+j02TCDTaKpwfZjbDKZoZLFPTMsYMDGU/N0W+GzbtItPgXT9WoGgS0nLtPW1Y/pl5RItDVNNKVJtb9X0wafrskMhrr22HC6Kzb+H5DtoQlxbfq3F/BrhJlMG7K4Z0aUeJCkIdYd0xTXC3GdhOGxGfMM80Qv1Q+j0Tf1dXbvAObtZrphxTplWxNTF57JDAdZ3DODIzVAih/DmTVtSQ28sd9iw1LxMbaspvRxurbmUKBbW20c3cO5bXHZ8DfVx3hrJLRiyvv2g4Mi3UqspWqRddukTpPJDJgs7pmBUw6yntg/SFg2y6+rJ043Etg6Y9NEKn1sBkGqnF7riNPH+Wx8GxPnSdEZD7s0Nr5M0x6bL87PuLr4Xhlq/kymjizumRGjGMhgi+FMXuc+JiyOqzN16bQstdIDfCpspEm1rdd2xWmZv8l0Mrr9cKjS08y9DdgNsclkhkAW98yIYgUmJTp0x3HW3QYr9nVGCuxqbDtiY6kLb0O/+UCv+VhXnA/eXopKl+H9jIvjRx+0p850YrfH2ilBH5jIZzIDIot7ZmCkBvNBDPC2DLhpYn8cbonjB0FdmTY8jmtDr3n7q6d7epvCtqn3uoZOtypHskmjsf2ZTK9kcc8MlNTgXxc2VOrKYDjrjdOlwuqwM/22JkUvdVqYr9/8Q2W06o0Z/okxtrGbGQyY5fe6rD9W9kPm0CGLe2ZYSI1DHKA4SFl/k2HaQRPX08a0gSJPIxkrbhqbpq0p8quz2ibbzjoTUxc+0qAJdSaOt1h/Kr4bvaYnI9Vn/it9I1NXZnyRxT0zMCgUdjCqG5h6GbCYlmXTpMKsscT+fmkqPxXeRJzelmHDu9Fr2n7qGG4wga0zhH40mwYMZTNYfrsykKjOZDJjiyzumWHBCkcsKIxLhadMHU1xIC7D+q3pl7oybHhsUtTF2XzWpGiK66BlsszwYPdV0/7MZIZCFvfMwPCDVnVgGsTg5cttZ2x667YmJpXGGptmqAyqnCbaFM92lO2hqYKolBk0qTqssWm6YfNZ0zauLWXfqa8w9kdvqsam9/lpxyamKS6TSZHFPTMs2EHIDkw0deEp0ws2fV3eXsvttQ1tGEqZzMvtsEXRDdubsh+tyWQy45ss7pmBkRKPOiHpVWB6TT9cxNs3FAZRFm9JD0f3NLUNUbHph6Hk7ZW4Ht5vtzbdhHma2sj92H1/Iq7OpLFl1qfKZDrJ4p4ZFuwgVxmgjLstcd4mQ+iO4xkO6sIB/bFNmKcfE5NK02TqYFRTmm50q6OJXrIhbW/V9L9Ng6LPbqnA7W5jMpmhkMU9MzD8oFQvDnE409o8sd0rqbLaMtS6Rwq2L55lgrZtj7cVdtu844lUH1psPN3dugnxdaYeRMYmk+mfLO6ZYaV5QKsyUoLTVK4Np9va1vRLqpx+yvP5y/IsDPPx1nTWSXsQ+DqCJ0G3+JGEbWF7Um2ri6c7ZQYJ9xfNgQMDriAzbsninhkQ5QCkvmADOI1Xif1N2HJBqh4b3xaWQ2OhP7YtzFdn2sK0/eYnzNNlMlqhh1YGe6SJ6x3+dqAbaYYHFMzCYxvY+EymP7K4ZwYOB0U/QJaDFAfManxnmLUtsejRbe02po44TZNNdxNMF5u2pPLSMD7Gxo8lBtMkFgLbmja0TTfc2HbQbe3mdjbHZjIlWdwzw4IVmLaCwyTWrsvWorha2J7YkNhvSaWLTTdSeWh6pS6vDY9Nb/j0zCUlBFczqMYahrUHiZmhW0ambTIgFUZiP4nzDNVkMiNDFvfMwPDCYQew6mAWi4xP3x0ki01deDfTRNwm285UeB02T1O6FHHeXvOn6GWZvpOh5R7boG9pgPXb8MFi92tsg2p86T+I++0HD2h4JtONLO6ZgRMPVE0UA1eNqaMprglks6YX4ja1bQPzxaYtbdP3UmavTAgiT/tQY6h9w/zcF0MxhG5r2/gUzbGZTEkW98ywEA9idaYbqTwwqbh+QDZremUobYjzxiYmjoMVp9P48K8OW0ZJffqRgfXD7mxLuc3VuFR4nZuk4pvyp9KMKKNUbebQJot7ZmDYgbAtzFNneiGVv8mkqAluTV25/TDIssY+XBFIrwz0+vvnKex+j920U+5M5lAki3tmYGDgHcrgm4KDbMoMlboyENym+Lo0Te1MhTVhy6nLVxcnocHVCWKayhx52I5qe9g+tjU2jKNd566jW5pUfMrdFN+vYX618/vtmR7J4p4ZcezgNRQGUU5TfkRZE4fR3w2209ZVV69Nm0pjw1PxMW3SjGUGfbE4FOK+t27aKfdQGVQ5mV8usrhnRgQOdnagsmFNphupPCnDtNYGNr6JuiQIp+kF1mtNTFMcsMGSyv+L0mp++dedNmmGB9YMu2Jqtns4GY06M5lBk8U9M+wMdbBUcWowbWHa2CYsLw632DSptPDGxpIKS5HOW62zsMM/S9wu4PNWy6kLI+Lr+58l5bf/GKZ21A7bnn5pU0Zcp3WPBdCO/fv2B18m00wW98ywMhIDIwfilOlGXZq4HJoU3dIgiIbYsJQhdeFEagwuxFcT1LVnpEDb+C/lt7CdHdsQzAFsi/HD9Ar7wxqG94JNnyqj1/IymeEgi3tmYPj7o/6hurFyr7TNQIs01qSI01gT0y1+KKC4jiJNQFN7OghBbdrZLX64sG2jux/Tjbo0DI/Lsm4Sx/eCTZ9yH8wfr8n0SBb3zMDwA1F1EEzRLb4J5u1mLKl4GhK7B2FIKs4aS1NcjI3vcCfysszYkGp4Ncy625gYGxanZZy1bXgdiO1mupGqo1u9MXXpuQ00JA5nXOwmNuzAgSzymXZkcc+MCBy4UoPWcNC2bNsmulOmibr4NnkB06XS2jhrSMVvwoHGtZI4j6Zsn7wRtsm2z7pj6sLHAoNqW9P2d2Ms909mbJLFPTOsdBvQGF+XxsbXpamj1/RNxO2wpi6epOJgmugWDypp6E7kk9oay/PtCR7Bp/UBPq7Mb/2xiUmFkVRe6wY23oZbGF4b39LENNU5HNi6KvVqO7xTnzuwcZlMA1ncMxmBg3mdacLGx25rYuJ4a9rE4/mG0m1IhQmSs1IGDYGz6q+WE/vrSKVrKjdFUxmwaeinTXcTcZo2eUYC2/6x0qbMoUsW98zA4OBkB6leiPP3U0ZMqsyU6Ua3PDasW5pUXD+wjNgG6pQ/7erpnq5NOUjDdHSnwlK0SQOa4ohNE5cb+wlcmBkP4qn8bti2xO2oA0nwUF3+Ul2mLVncM8NK28GrXwZdNtvLcq07pi7c0pSGZbc1zFMh9ifQPDXpKuWJO04a191khkqqjH7LtW1qU0Zdml7KaGKo+TOZXsninhk4GMjiwYxh1jB8LGDbRNq0LZUvhmli0yvMk8pr42qL1rjSYJZaTk1D/gHMVdmWNrAt3eilzBQ2P+u0Jg63xP5esOWlys5khoss7pmBk3rPnWGpuKEwqLJS7epWNvN0SzfWGZTgpITMmuGA5bYpv5d22LT4C8Nle7t8T9vSto429NLmTMaSxT0zMPxAlB6QGGbjYpuk0tTRJr4XY4n9Mam8sd2EzUcYlorrhk3ebxnA5qG7n3Ji2paBdDT0x3ZdfJ2po02aOpjHlhGHpbBpY5PJDIos7pkxwXgZ4DiL72U237TtTX3C8Lr4vqhpwyBo2yejtRLCvrbbS3e3PkBsrTHldi2nZbpMphtZ3DOjAgevpkHMpqkzbeLHO71KYV2vSI8FV5pUv/bSx0zbLU9TfC/1AaRvMnXYeGtbw7AmusVnMsNFFvfMwLADHwe1OIyGcbRTZjhh+XGddSYmFTYW6LVZY3U72sL22/1EN/3DRdvykaqbyWQGTRb3zKhgB2BrLHXhvWDLsIZxbanLX+dvY3qB6eN8Zbhatdj8hRnCO9Msg1h3E0yXyh+HWVLhDLNxdfmHSlOxqJOG/rYgqTWZzKDI4p4ZGDK86cAWD3SjaepgXJy+zsTEYak03bDlxyYFwyvxiTX5OH8ynwHh3eLq4kEc15S2F+K6rZ9hY424rSkQTEPghMH1Fg3w5RwINp7Szz8ck2lHFvfM4AgDEI0Pqob1Y+rKseF12PTWMK4tcV7QS/5e6afsuG3wNpfTuT34pxmD39JcVsgf5WUY/SMNqqXpB5uPblumjU8Rp+2WPpMZFFncMwODA1c5oJfuanj9CJdKU5c+ThPnGzR4its+DT+cT3UPZ9nsJ7yjXWHAXVe3L2w42xJTl3cotC0yTmf9qTIQRpPyx3Cbm0w9TXGZTEkW98xAqQ5M5UBl7SZjScXXGUtdeC8MJe8g6Lf+4W43+9UahncjTl+Xp01ZhEltllQYQVhdWhtn3b0Q5+F2WtOGtukymTqyuGcGRt0g1i3MxqXCgHWnSOUZJMM5k+4XbuswbXJrynZ07jva/YLs1jRh49ukZZpuaYHdDruN3UyKVDoaxhMJRUAlPpNpQxb3zMCwgxPHIQ5KsUmRCrfp6a4zJBUH042mtL3kp9va/cDybBlxeUMpvw0onqZf4m1IwTQ2XSoLwqxhGLHufrFtsW2y7jbY/NbUYuJpx7dOGvNnMoYs7pkBUx2cYNsBif6UqYuvC6chdeEkFWbhffSxOktn+/vZtgJJZrez2NaW2XuhdZuESlvGOHa74K4zFeBnGN2xieMCtWVmMg1kcc8MDD8AVWcbHJDaDE5ME6eN/TF18Qy3cXGY9Vtj44iNZ7iNJ3FcKg1BnE3XlLYtcRlxkawnNm2xSelOhcWk6owNMc5W2Lwp4vKHSqvyEE9DuuWJ6TF5JkOyuGcGBge8eOCLw+tMTCrNoE0bUultWGzi+NhvDYnd3Uycjn5i3QBem7YffBmlm9iwVHyvpPKm2s3tYZz1x2HExtcZkoqDSYLw2BhsXltWk2HaTKYfsrhnBkbd4NTG9JK2zhw4cKBiUmkGbYbSbpt3qHSW0cMSd8jKMvRnTFkeLJoeQRHW9IPtH7ptWBNt0qRoW35BTVqWY8vqqdyAzXNgCF8VzPxykcU9MyxwQLKDm3WTOK7OtEkzXMZiw2wahgHrBqk0oC4d3TGpsBibRt1dsqhYmOuANnWQHpIqdem1mcb4sM7+SsF0sYlJpaHpGeSxJkFcrtTU8z/NF8rpu62ZX1qyuGcGBgeg1CBkw+J01j+WDEnFxaZbOhKHxTawYdbYsNJdTU+bbiXyM55h+Ma8ia5QSYs0KRPBclNoMZGJacpPijbVwPhu6UAvadswiDIstjx8ijaTaUMW98zAwBgUD5Ipd8rUxZNU3KBNTCqNNZY4vFs8qEsL2oY1gfQ2j/pTahzoVjzL6ygzMnXhMClSaeKw2HRgw1LxFsR3SwOYLjYJUm0TX/HPUrsNDfSaPpPJ4p4ZCFdedVVwlWA84kBmTYqm8G6mjlTaOtMtfYq6NHQ3xVs/sOlsXBwWu0k1rP39dlsGgL8aBnds5K9NF0fXGVghnzUxqTAJbDY2jXWnDEnFWTMEZMuCy5PaXhuWMkxD4M733DNtyeKeUVavXq3m6quvdp/61KfUXHnllWouv/xyd+mll7ply5ZV3o+25mtf/aqWUw5M9YMQ07QxbUjls4ZpYuL4VBrCeGtibHi3eBD7LU1xMUxnbZvfukkqPk4zknS0AbY1DcRtj/2gLj5OF8O03YxFQoKrWhex+WxcnI4U6eT/3Xev1XMR5yTOTZ6rOG9x/mYyZIIcNOkjKjMuoGjTgDVr1hRuGx6zePFitZcsWaTuJUu8X92HLfHuRQvcokWLdUC79vvXun3797k5c+e6gwf2u3/8x39yL3/Z72i6tvBwxAWDBf6mQzVOb6kry4an8jeVCbrFkzgd/Kn64+1LhQGEv/0d73Zv+PM/kZncfum0AxLm+06LlCwsf9KkSRpwALdqJ050kyZP0bDJkydJ/CRJN8Ht3LHdbdu2DdkkfrL8de5fv/JVN3feXPfUpz5Zy4nbW0+6zSRVBo6dCg35SVMd/cLt7IeObQiwvH7K/fAHP+b+9M/+2E2W/TVB9t2MGTPczp073Q++9323YcMmMRvc+vUbQuqS448/vsNeunRpxU+TGb9kcT9EicWZ/muuuUZtXMnHLFq0SG2INdyLxVa/iPXixYtk7J8U4ryIg4kT/WBcN7Dj8NFBUf599zvfc/v27Rdxn6Pi/slP/rN72Ut/W9P1O3DW1dsGm7epHMal0nSrv1s8qEvTJm8d73jneyriDnnxyP4IAovyJ4oooBqK+8RJk0XYxahgTNLwnTt3uO0N4t4bfWwTskTHRttjxYoqthswTPtB/tHuRpy/X+K293PcA4j7n/yf1xXiPnPmTHf0UUe6qVOnhBQeCjzEft0D68V10K0X94b1G9WNC4GNGzeKDX+VWPB5EcDwSy65RO3MoUcW9zEOltwg3JxtWyG3WOE+7bRTdcA8bMkS8S8R4V5YxFdJD8QUdNBWgDAgQtz37sXM3Yv7pz71z+6ll7cT97r4fgXQ5qsro1uaOAx+tDEV3oamdIyzfcD6UrzzXe91f/76P67M3D2SHv8lH4S9jbjvkJn79u3bNDdm9mB4xJ3bkkhjtjMlrtoPTUV3we439mnb/Va3D9rSa34m/8iHPub++E//qCLuR4m4z5wxTePt/XfWwafpvb9++3Ahj2Pne9/9gVuxYqWGQfxTqwFNFwA0mbFHFvdRggJt75Vh1p0Sb51li0BjOXyRzLAxJi2W2fXhhy9xCxci3As3ByvaEGm49+8/4CZNSj1eURUPDhZW3GPiARH5EYYB+TvXfLcyc7fiPlS0joZDNW4XseHd0rQpw9Km7BRIy37rl5S4+zIlUroJboo7AiDiE0QkKO6TIPoywGNZ3oo74sG//evX+hR3oW4/FdsbbbdJb4W9Y383dJftz458Q6SpPETZ3Rjv01ReBkVJCxgPcX/dn0Dcsa/8svzRRx/lZs2crvEpcScQ+QkT/Dnv+4Zu/3EniDthm3Hes0yIvF8JWCfpnbv11hVqIyy1ChAL/cUXX9wRlhlZsrgPIxRqLpFz9h0vmUO8F+m9a4g4729jBn6KxvPk4wla+nEyHggDuCcW5niwsZS7vkyDk7tJ3OvQmTvEff9+N3uOF/dPf/pf3OWX/VZIUaWuXfHhGKdLHa6psmxYXTzKYly3MkA3P6kLj0E6bg/z2O1rKseKO/qaSdWWIrht9p77iIl7DLep2J5ou8w2U9zj/azbE45LvJdfISouRVxer6Sys0y7n3juXPfDH6m9bZv0rRjmZz+DuXPnqo2LYQDhPu3009SNsj/64Y+7P/rj18r+kos0Ofenz5iuaWZM9+JOmt59x5hRCn21o9ju1PlOkdd+V5evB37EbRCBh3vz5s3hAuCgW7HidhV/wNUAQHHnEn8W/pEhi/sQ4SybM/Dm2fcid+qpJ4tvgjvjjFN1Rn3aafB7eLLZwSIl6E30J+4eOxOQnMH2xGnjcjEof/+73+sQ98te8ptd29wrqUPWXuDEpOqPw6y/Kc7SlCemW3yvvOuv3ude/2evU3HnzN0jfRO6B3VWl+Un6T11faBOl3pbiPtTnoSCNKwVfQ4n5Yw9vULTOExJ8xDPPk7nLzejrijE18XFZabq+Nb/ftvdunyFuufPn6ft2bx5i/rbsHDhArdp02Z1zxXBx4XBa1/3h7K/ZD/KODBj5gx35JFHFjN3Yrc9huNHFZ+WeZrE3YJUdrv37dtXrAiyDbYt62V2v2nTJrd+3Xq3XPqFy/1YBSB1wp/v9Q+dLO4toVjjHjiAiKdm4Jhtv+xlv6MH+CQZKDGzrgMDs10eIzxJCE8WYN2Wfmbb8QmcPhR8uU2zA0XaBXHfa5bl/+///YyKe4rUdqTqt+maDtVUeW36jTSl7VY2aCq/KY4wTd1+j+lX3CdC2M0990Lct21FhrS4DwCINx9YiymFXdzBGe9r+FN9pNR0U5wsBcttLF+ohBm3zf/xj/2tO+64Y0Wclqq4f+c733dbtnhxP/HEZbqsPnv2LHdg/z4tY9uOndL3O93dd98r8Se6P3jNK7Wsz/zL5911112v+f7wtX8gF2TYh1iWn+6OOuooN3O6v+cew5UNwu0BKZH38T6NHT9Swt6B6QNuv60P1IUBPPC3aeMmt27dOhV+DRPxj4WfJot+72Rxj+Csm8JdJ+KYgWMmfthhS8S/UEUdJxAPZtrxsjlpEv34hLAgrs0uayoD2DK6lVcKe1l3XD4GaLwK14u423rbbhdIJWu6uOnWF8CmidOn8jelSaXvRrc8jEcfwQ1x/7P/80cd4q629A/TVZflJxfiHi/L75CZO7q1FPevu3nzexd3K9Rtsfu96g6OBrqlqRxTPeyWSj5xV/wC/TZ8nlwMfeHzX3KrVq0JIf2B5fpzzztHVwJe84evFnGXCzHZlxD3I484Qm3C4yJmYgi3gh+ntYJv3fG2grp6GIo8cRqck7hQqFsZYDgvJlAGl/5vXbHSPXD/A27Fitv0/n68zJ9Fvzu/1OJuhRz3wzkrBxBwcMopJ6mIn3HGaW6hhC1ZvLA4iCnm6EIKeNsr4G7djniWXUfX2XQET2Cbr678uO5quurJqmnl33XXXuf2mKflm8S9H3543Y/dPffc67Zvx3vZ20Nod7DEOWfOXBl85+h+xOtEFu5PYv1xHGlKU5cnpls6xvNYsPzVX7+/EPfUPXfv9jN3BEDEMXOH2GNpvnPmHl6F04sBEfd/+4aK+1Oe8kT1DxW7DXXHHMNtNPNZW7bMRxqq8Z1ofDg369IUmHimtXngps+Gz5PjbO1da92sWTPl4mmS27dvr9jYB/7BVlxU6UqK9PHUqdPETJX8E9wDD9yvbynwobmpU6a4WXPmuCvfdJXM5l8lu82PMzMl7ogjRdynTw01eqwwA6QldKfEnjCNLwd92DmuNNVhSYWmxJ2wHPQjx0u9YBVs34J1MrO//bbbJf6AzPBXJmf6EHk8zY8P/Pyy80sj7vGy+lXmc6kQcjzAdsopp7jnPOeZbj+WzYTyoMfJ6R9M4TK6PSjtgV53IMdCn+p2G1Yn3NU0Q9t1TW2y20dS8eLSvxjubrj+x5WZO++5DxVU++GPfMItWLDAnXDCMrHnuf/5n29r3OzZs3XgwqCFJU+0BsIve0UvAsBVV/2l+/KX/81t2bJVLuLucn/4mt+r7DPQzQ8Qhj6oi4tJhVmGEv/X7/6A+z9/+lo/EMqxYpPCiT5DWDtxx3vuW1WwMEsEXxVxx7J8k7ijfW2PQdtvqTw2iPG0WU9TfWV8CIhBRKg/laiU67JeQLfNgbAi3KSdO2e2u1cuPjGznjxpso4jvYr7rFmzdN/MkrKufNNb3Kv/4Pc7xH3a1CmFWIOUYBOMW8jr3WU6m59Uy6nGl2VURd5iywf02TExTkPYj3YWH6fV/gwrSywcAo+0ty6/1d1yy606y/dP+vun+Sn4v4wz/HEp7rGQ26V1zMLxpTW8C37GGae7k2VmTngoYcCkiPMgswdb3QEKeCBb4bRdTHdKvFO7Ig6zB38qfQzriU9KhscCn6KpHtsXP/vpzxrFHcWkuo7hTZtDcQe4f/njH/9E3W0488xH6oNNEHbwute9xu2XWZXFbkdq/zIMfdEUn6IurikPsPF0s36I+5/+yR/qsYqOY1K1pR8hVrjH7YUF+1nC5ZjWJXkYiIwRdy7LQ9xRx9e++k0V9yc/+QkoVrHtYTuajg0LkjF7XRaWZcu09bD+ZJ0IQ3xD2an8FPVqWOQXN/MzPLbFoStE9993v4o7Zu5W3CHqFHf5I8I+XQy+KTDRrVv3gOyayUlxf9Wrf0/3CerGU/JHHnWkmxL8hO4mwbbnv81LUmEED/MBK/7V+tOCzzRM2U3ki74U4nEJeRHmj2dz3Ekx1THRj2vr1vlX9nBP/3vfvbZY1ofAg18GwR834g5Bh5jXCTnujV/0+As13IIn1nnQ4SBBd3QedumDsQ7bpVV3KeipNCmhtekA/CjHHtAkTtsNpu+WL34+wM8GS/RkE/umG2/S99xny8BEcX/J7+BpeZ/OVpMKI2yPPYnxFP6q1Wvc3WvXum1bt7ut2/B090GZpe/Q+BSY1SM/lkkxKOKC7fwLHu2mTZki4u5XZ4DdtdzPlQFEYDjC6Lakwiy95onjYv+73/PBpLijT3RniJ/ijgDec+fMPRb3cubuZ0Zf/5oX9yc9qRT3tth+awvzVPLSjY2Dm7ahbV0QcfQHbO2cAPKjCFs/Df3BAZVTmytCD9y/zm3XCyMxO3a6o446wp188olu+vRp0cwd3xvwzz+UM/dS3O3MHR+qgbjjHLryzW/tEPcjjjhCytDqi2PCC17nOUngbjPT7yrSIb5bWbZukMrHMbdXWHaxXwIq/JPK9/RxXqBejJVMC8FfuXKlW36Lf3LfCj4MxH48LecfsuKeEnM82HbhhY91z3nus9SvB7Ue+OWBZN3c9FQXxEJbdyim8towCnpcV1x+XE6n35eDfIizxhILsY1vu+2WVB2E5cFGihW3ruj4iE08cydsSlx0XV0Q95mzZkgC+S/buH//Xt1WFIOyIFb7Je+ECX5mOnHiZLdJrtwffOhBrWOKDKRTRNSnTpvmpkp8VdxxjARPgNvG9lg/3ST2W3qJ66Xc97z3Q+5P/hji7p+8ZlK10Ufyj+KOMD0sRMyxrAmxgIDIyCxZJ0Qz98m6jd/4+r/LfoS4X4pilbg9dfuqLryOSvrgblMGtrEbthg0P64K9cRG/oho+3fT77//fu2fnTt2qYDDb5k/f76bN2+eiMNxbsGC+XJ8TXUzo2V59JsVd/nTdeY+c/Ys95Yr3uZ+/1WvLMQdy/K4SD0Qjt1yVl6OcbSteELkGA6sO6Z5ud7WU14IxOXFZdh2qq1un7+pLSS+EEAe3U8xksyOq0jD8uH2gl+WBbHH/rjl5lvc8uUrdTkfgs/Z/Ute8hKd1R+qM/tDRtzrxPxxj3us7rBn/fqvFTuONt/BtDs0xm6+dcfiC+KuYqlxeDxDT5Vrw+i2+Uh8sFoDcWNeYN2gmx9Uy++sH3lS+Qj7FilW3bmqEHe87sNl+YbsFVhPqr79sq2zZs/Uig6I0EPctb3iRxMg7vskzcSJU1Sg8KMomzdtSor7FBk89+3dW7QddnyM0FvX9ih5R35SFw4662z2W977vg8X4o6LnXIALBssW1WEe3GfWBF3zNwRruK+o/qe+9e/9u8yc5/jnvjE4Rd328nFMWC2I6aX4ru1kecQPozz3e9+X2fieErbgtfaIOBLlx6naTH44+HMeRIOWBZEbeVttzeKu/ah7Idp02bI8Yi+9uIez9z3y7H9AbmAI3iC/rilx7qX/+5L3R45pgnK0/IplmF/M5xuHgdWlAnT1RHHU7zRXrVNfFw+48o8waZf3Z157H7rqD+U0Y0DpgyCcm15uu/NuAfBX7Fihc7ucd8eD+xx6f5QW8Yfs+IOMYeIw+bDb3zlDF9wg6jjl8m4o7AZ9hOrdgfGBwdIbbYNi0U1xoax9FjUaceCDtumjePRXrpBNV8p6jTEx5V+wHpsOhD7Y1JtTlH0v5i1d93VIe5Ylu+GLTtVD8JwoqbEnX3fi7jfoQPwDP1ON8A2pI6RbjBPnLVbWan4OKybH+L+x697jewnM3MXA0FHJ6HPkMcP+ug/iTMzd9yiwKwlnrnjVTmAmTuW5Z/whEu0HJYXk9pfCsJt+rp0gi1DWp5MauuvrTOiLh3DYeu5JJ1zQI6l//vpf9Zwy7HHHqtCjvfXIfB43Q0G4IKToG2f/cwX3GMvPD8Sdx8HY8WdM3fZKrfugQfcZHzT34j7t759tXvMeefqcyYLFy1wN/z4J+6//utb+kW4t7/DLx1TFO24pysDAu75N83sLd3Esv6CoCw3Fm9S1uvLqEuPv6m2EduGunQd21FfXMc4SbicDzC+4Ed3br31Vveda75fPJlvxf6yyy7TsLHImBJ3zs7ta2m4b37RRRe6Cy54TEXMAQ5q+LkJjEvtfJsO1LmJ3fnd0hIrNkjHtCmhpOjW1UNsObBjYcczAwRl2rQgdRAzDlg3sX0Fm21NpSX/+q9fl4HwaP2hmvieezfi9tBv22HFncvy2q4QH4t7ZVle4vFk8mSIu9if+8zniy+BzZkzx80VM2fubHf0UUeJf7Z+YQ+vNTVtL9rG46y01UrCNCniOOuvy/e+93+kEHf0gw6WTGr6z4q7jKRJccevwu3YjjcMZIAUYcF2f/Mb/1GIeyMNfWRp6ksge93bIVmcHn72RbeySF06huNcQrX75ViF+5/+32fcC17wHHXfd5/M3iXd/SK8WI5/4IF1mgfws7HHHHO09vmxxxyjgo+Z/bvf/X591kOPI7y9IfGXPN6vLsbijpk7xP2//+t/JXyi1HW/7pd77r5Hv1b3F2/8M20rzCc+/g/uzjvv1IuHe++5z112+W8X/WFXKFEObAid93uTmtk30Tbe11PWL38reXFcWsFnnM2TujCgC+MXRTvOG2PrtfBefN1FTDxGor9ZFt2wcZ8eS/d4Kh9fIuSsHgZL+GNN6Edd3FOCfvrpp4o5zT3rWb+mOwZAxPAb1HTz4AXxTo398SZ284M60U2lpfgRpGE6+x3sSnjIg3psmXDzYKKfbivscPu8pfCW6Uo3bVB1l/lsfcD6m8qqpjvgPvKRv3EnnXSCPriImTvec7fizjwxcbn0Xy+zFbxadM+997lnPP1X3KmnnyIJ5L/UFYs7Bgjcc0/O3CXeivuSRQv1y2FbtmxTe82atW7r1i1yLPqn6QFEH5Xhc58As3w8DX3UkUeoH9thDcOIcXZg05E4rJsf4v66P/oD6Xfcf5V+RaD80XShD+FOzdzxapXaIjLSlR3iDiDuuOf+xCdcrP5u2H2YQloUXGmYneXE5XF76I6J4+FOpQMM54wdxy7GlH/558/qbaT9+73YIx3TorwdO3e5Xbt26QN069avF9GH339ljmB2v3Xr1uDrD/sZWoCLCayG/eZv/4abLPuM20lRxD5jGGwKKtwpsY9hGC8AmogvDqztxdPXyTDGg1jEy7yhjSYtwUV9sZ2JfBZbV5IQXSfyKagDzEM/QfgnPv737jvf+V4xo+e9+tFm1MQdTyXa++cQ9NNOO03fM8dOsjtKmxjtj3hHNu1Yu4l1bhLvvDhNNb8XSJIqOymOOqBEYULKDdsONDS+3OoAFNflTdnGVLoYhKMvGQ8b9dNtbQC3T3NQD3B8ZOZeEWOII54qxn7l7BjiiB++iInL++jH/lYfVAInnHC8hj384We4ww5fIgmk/dE9d/zxM3eI+2QV8W7inrofB7aK2G/eslXsrSr2d90F4e8crH/vlS/TfrKGWDeIvAVxOtJUFnn/Bz6q4o6lX+mRog5NL9uGPoO7SdwRH8/cMbsE3/zmf6qgPOHSZnGXmoKrpKZra4n3f+wnvr3VwuN4gLBUWqLh+C82xF3FXMT9M5/5vPvt33qR+hHnTcgkoHjWAZvm2h/+SAX+qfpNgIPuB9dep+FW9K0bccElbn9BgLrwCh3ONZwvZ519phzLuDc/TZ+unyQJp+EVO7E5YbAiyTI5i8cKAMJioQdl/Z5O0azGd6SHGCfqhl2W5Y8jGw9SAl/XrhjkjdtqicWexGm1jOaqKiC/HjMBlmfftHrggfXF8v3y5beOCaEfUXHnLB330LHcjoEfy7jPfvYzNR6dRsNmsSOTNESlNsuGWTeF1tI9f1XYQVw+y2V4aYsohziIDMK5KTatFVVrvDjbWXyZpzQ+vr4NZfmA4Rablm5fty8fMA4H+p49e9SNj8VA5O+/H0uaeFhrp854CETeL4WL2GMpXG0/Q/6nf/6cO/e8s2XG6E8I7P/Pf/7LbuXK29wjH/lwd8EFj+5Z3MWj99tv/MXNuvSJZc03vvHPtHz0/7Yg3hDzbdswm9+mgg5ht+CVOjzNvG7deveK371c6uJA6mce8bFq/VFUhaZ8hGHoX7gh7n/0R6/WvrDiroR9gnRVcZ+s4t00c8eqB/j3IO6XXvp49dch1XSAunvBpoc79hNsT1w2/AyP+4juDiQI4fhHYcfS/Oc++0X3my9+QRD3kCbkR3ksExb9MD+87no5xneJuD9B47wIIQ1egdMc2tc8XvAgGvYFluWxH2D27tunF5Z79+5VPwYE7CuI+0TcZpJ8+OEY7Mi94RsNbA+OfYD6KJpaH9onfg2HG+0KeYAVWG+znDJNSvjppsjHccgTl0U/SAm8t8s0FsbH+ey2gG75CbepQhQU5wEISx5Pgg33Qr9ChP57hdCvWrUqxI4cIyLusahffPFFFUGPKXZmOGgtVpAKTBFNm8M4m4biZ6krw4ZT3EhT2XGcCm+Io7gD2NgU2L0IO+xq2lLYGcZ4gLJT4cC6y/zVtthyEQdht2VicITQIwxpYeMpZAyiuGcFod+1a7faGzdu0rIBRB8f+uCSJL9IR264ofrhmrlzZ0uj8JOZs6Xf5MTTUD/A4Ct1qBcXFzG4N7p06bEOH7XBkrwFAj5TzGFy0YmyFi9ZpIKOMICyv/C5L7nfffllenzCHxti3SDyFsTpAMPQn6n4D3zwY+61r31VUtzhZD4r7jIFVMFIivsO/+42n5b34j63UdxRhyX2t8Xmgzv2N4Lozu4psdm1Y8oy7awd4v552a8v/o3n6/HMdjAt+pLG+/34BL8Xdz9zRziMf0oe8dgPFFo/npXiPkX3R0rcIWAon+KOGTvEfe9DezrEneWrW+v1Bg/VAX7hzrehzONtnxZU48t0RXwoGzBfahav4aYe+MUV/N6uqyuFzUOYFyCevroyAMsBHQIfe01aEPst8TFq/bhPjxVNCP2sWbN1Fn/FFVeo4A83wyrufNIdwg5Rf97zn+0uetyFRUfh4MXJFXccwuvAgB1T2YTEPmjqfIgPqeuKVLgVPJIqN44v8kH01J8ezHBfuXCHNH7QSQttNQz3DL2bBlCAQWcc/WX/Mt5uC9OgLYBl+tkO0pZ+uDlQok10A9oAQr97txf8889/tH5ZCnlvuWVF+GDIQf3lrEEBsd65c6dbdsLxbtbMmfqgJgb9JYcv0XbRUAjs8YlB5Yuf/7J7+cteoscp4mjTEOsGkbcgTpciThOLuzZW0HSh7TgX/LmE/hcLy/JiOsV9p9uJ97o1iX+g7j//47915n7JJZ3izj7RPjLE/rbYfHBXyulSJNKyLW36EWgd2if+ohTivm//PvcF2a8Qd7zxEbcDZdN4vw9DH3YTd+wIzK4h6tpO3QeT/dcCG8Tdztwp7rt37tK0FhVKVCogn28n9rEfR9FGnwZtYPvLPBRa314fTiG15akfcUWYT8OLiDJtGefTluO5D/fxZb2hLpMuBfOoW/JZtNQu5TAedIg7CcE2bVluOo89TgD9SK/7W2ys9mEW/8UvfGXERH5YxB330S+//HIV94svfpx73vOerd9v9wNN/+BEjEk1vxJm9gfDKVYkLqPT373eVNk2Ddwox87YgQ8v3WpjwIni1agA+7awLyjKADZE1NtlPggtYT7Glemq4cCWASjq8KOctO3Lgh9ub3cKO90WpIWYLF++XIUFu05PVEmKH+E4eND/QIrPKicNbAnQMIRIfRAwHcx0QBPxOohvzG/TmSnK0qxS8uc/90X3whc9X/w+hG3SduG/8duTG+ZLX/yKe9lLf6eoB2G0mc7alkRQMl03Pvihj7s//MPfNzN3DiTixSZhO8TjBzHsB7Eq4o5+wnvuB0Xcd3WI+3/95//oWwM4f9uAPMT2Gd2ML9tZxlvUb4Li+BjsP9krhd2ErRP/cLzhuNTbPHKMQtx/40XPK45VGuSzBmFW4PCDRrvkAunJWJaX8hGHbsfxlpq5i6NT3PeKuG/14o5wyaSvxE2dNl3EXdKIH6tHeJhv7549vpwAhc7XF0QTts7YWXfZXh8vcUW+MpwPVFbShrw+PNRRCWNaXyb9jLNCyvw+Hhcwvk98WLM+sEyAdhG7HcSvWFWpxJs2pWCZgPls/iZwfNSBmTxEHsfacIt8c2/2AR6Uu/TSS925557lPvzh97rf//1X6H11DH4EnURj/U3gRIxJdWJHGLw0AwDls47YrqNbfBvYPyjJGoutB26a2E9jhd37/WBHQ2H2Yu0F2ochHn4/Oy/zwc+wsmy6bTuYzxobnzI+Pvwx4d5bTWdhWBwlqSv5NF1UFgzaRncKe+x2O45TsNymOupgHu5DZC/DaBBWLd9fKCYM9oO6NVU1LmG47+rirB2HpfJ19H+Xf6GVhW3/xbBM3CLCq24///mN7sYbb3Lf+tY1Otji1bWvfu3f3Y+uv8Fd/+Mb9LbNho0bO/Zpt32MOtQObfD1lvUjmGkAw22YePC/A4g/LgTwxUbYVbNXP86EVQi8g79/n5yjMsvHhYueu+H81TgJ2ydxuLBhOCYU8FfGA5iQ17fR2/58L/efTxvGBJYXDNNiHLBjBMqCvzwWfVhs+kHfgugzr+5f9L0YUSYf2APIX2fwGXTclr7iyje6pz39Ke6b3/yG6uVwfPZ2YDN3ztZx/+7Vr36lPiyHorFBnrKTyrDOg7wOHAwxqfRNZdg4HGjxfqtriz3A6tIQLTfA+NKWgzXEd5u5gziNnjShLZV8UibSaho5ccSh7WAanECaLvhpyjQ4ieIwH858DPcnpbfpLuOr/vIEjtN6dwrM3G+5BTN33EfHsSIXhZIUM3fpEU0jmfFH/+uxJEZK9n2L2anOSjlzd7q072fuMitFJikZv7v9/Bc+NxTn24UouoswA+pC2fHMnYZpiHWTRFBffOjDn3Cvec3v6WBc9AvRbREjlXGGIl2O6YrO3PU9d+kbzNKwn+KZO8DMHU9tp36PgcT9U4Dgpu1MxZuiWC72la2D/Ymw2M10DMcyOWa5eE8d4Dvw+rv15ql1vDkB8F2GaeLGB47wYCGeFwHbJT/Rhyln+mcvMEDjQkDNrFkdM3c0QbtdHN4Ks1q81ivNxHGIJ+B5zx0rKBBnPMSpH77BPpA8sKfJzH0SHrwT/w0/+Zn7/ne/734n+qVFPxOH8TNn3ALgrF1vByBOwlFPkV78Pg/aVuathKnf5wfVcIaV8ZzN02hYKBeUeXy8T1+eO7rdCcp81QkiQZtAXA9BPoxDzM/0MTxXbP6KO8TXYdsXw7GUMO369evdzTffosv1M+X4+va3vz2wWfxAxB1XHbi3/vznP0fMszUsVWzZUWUn2XRtmwJxsHTL160ODHBsUiqt3TFNZWk5hjJ/WQ7FHVjxpl24wzZStAsj+SHwRboizKYTMRVBLf2loFbD6C7jyjCW7+NsOMqiKcNgV/0+Da7S/QUGwmnDpMADXPhIRFrckUeM5MWhhO3WY0qMlOj7Noi7DpqSd7+EeXHf4ctCPikF982f94LniAvFhbx0h7bRzeMWNgaiL3/pX7uKe3mseyLvkKG4+2/k+2OlqMK0ewKWPeFHEm0nxH2yDnB+Cd6p4MXijg+rYFn+ooseq/4kvpsGiva5KZj7IoUKONquDwSKkIuAA/v5WAo4xBluCCqWvfHwJuG+ovgBDPR79vgH1/hQJsR+z56H9GFNwuc3IPT4tcJHPuJhUh72hfS/9Lcv2QuuF/cgaNIGLsujXtznh7jrb8BL2C9uvEnTrXtgnb5aClAXfzfDwvZ7IZeycdsF+1rKQZyGq5CGumEbIYPRMIkr05VC7tOhbB8OOsvw8YAiD6p5fPmA4f5DZGXZKFdiNQ2J66Gb+DwepiU2HfMCLSu4CcUdVPNFZUZ1EFt+r0Dkr7ry7SrweH1uEDP5IYv7smXLitn6GWecFkLbUl5x11EXD+EgbTfBpovzQIBAamCBaHk7nZ95Lam0RTkhfZO4A957ZzhMPAtXt5SXEncb5tNZ8YXwlumLNBpXzUeB9m7kKw3T+TxpcefMHW0v87K+cj8C/MSoFXc55ZBI8vovsYlH/TjfxPJuGbykVu0H/7ASBkwMYnbmvkPDJIWm/ZJcKUPcdRu1SN9uQBvtBDy5YWPgxcz95S/3D9TR6GBh0sUUQb7oWkLVXcFP4P7BH7wyiLvvD2b2ToSJCwORuLXrtK1Vccd+0Jm7nMOaV9KA//nvb+mMFg/A1sF+6gW0Kc4Xh2H/qC1hnGlDsHeoiHtBj7//DtHGq2X4fCt6YPbsmbrygO3DoF0eb95GnfFMLbaxry0IZ9xDMrt/cPdusffqsYUHM/EgKPpyEKDtOK7wQZvHnH+ehqFuClkhcrINDFdb2uyF3e9rv595fPo8mjbkgynCJN6GMx3QuJC2My6UEV0c2fSg7sE7n7Z6DqF8j4SZeortLuJLbJtInI75LciH46Ko25Rh83fUKd5UO0iqriYg8Fdf/R13/Y9+MhCBH5K4417BzTff5D760feHkN4pq6/vpLomcvC1cCel8tiwOD4++QHdIlPersnPvCQuu5ovlBXyWIFnusKGCIbwwki+1Mwd4P4YwyGqto4yv4hsSMe8zBOLM8O1LBOGfodtZ+FlfFmGF/VS3GEo8AgDRX9IeoBZ0RlnnKrC4o8IOUFQFr7EJvnEU6SFLadzOHQQLhZe99LPq8rgJicXugBlQrwQ5tM4Eeh/dc/FKpMvStvEcndB7PC6ntj+db2NGo4fkojBZ0b5zv4xRx/t7WM6P9RTNwaEKj3iZhtieEzT/shH/0YuqF8h/Sj9EsJlZwa77KPOmbsIu5nZYZ9R3JEHYeB//+fbIpCz9TccUkiJwZVG90sPQCC3Q7QfuB/N1W8kxAKOmS7M9OnTZTudmzFjhpssgj5t6jSN120XMDhDaOgn7BMcc3bgtQ91EbjpR1qKlU2DY4b+Cy+8wN199z26QoC+xf1ndLrqBNJI1TpLRb9I/JQpU92UqVO1nZixP/TQQ9r3OEaxXbgAw4ecVt15p5ZPKHpoE0VSRQ225IeNL3kiXmfsGg4b50PIG/KpG/HBzX2PMIaXwurL8u4yjy0rJe7VPKGfTZyGq9+XDwNs+R6kK8tnOgvzgDJfic2D+mJsfgp8XE+q3lRdIFUHYfnEasgXvvAlfQaEx2u/9C3uXIq/8so39jFjr1JtQmdHdWsiTrImmN+WE5fJzk2lKQTIDGg2nd0xIC670x/KC/lSAg/UL9tWJ/BFGjHq1nCb1qQxcf6hGe8v4sWg571A+7wMhxDbMIo13LDp9v7OvBR4CDvFvS79tdf+SAcnfLf7iU/E19FEkCX9vv17cbCitZoOwLYnG8ryM3cMxhjMOHPfISLtl+V9Tue+/KV/c7/6tKe69evWe3HbtVPFPBZwLUeMPsEswNYf/JC6sZSKh5jQBmwTBmgSf6gH3x6HW9/NN4RNUXg8WLitdjsRhq/4vepVv6t9K3+QAAX4dBKvucRuEnf/ahZehZPtj56W/9b/XiMXWLNUtFKgHtv/qXYSGbKx14pZN342Fcnuv6/zPjhm4GC6/viKv70C4wXdl03hALHoABsfw3YCW4a3vdDQTdsb9F01DtD92MeeL+J+t64cWHHXWPmDNztU3CVO/nhxF4P+xoeTHnzwQXVjWyHucEPcV4ePn1SEC9scttELuPfD7Y99P2NHvBV2ipDfHu/26cL2hzI1X4j3YWX/2HygzIN6QpwpB8BOLclreCi/8IvRNCEtqNbv3RbkwVjGvMDmJ8hPUuUApsGrjKSar7NcEtdZVwfgsURiDbn66mvcN7/xX+6Tn/ykPlHfD32JOx6e80/4DV3YQX0TOjuyqbkYYFPYPHTH5djOjdNQJEGRzzTNlpUqB1g3YJlW4Mv6Ilu2qyraYiSfFXiApXi1TTpQiKfmKeNQLtPE9SOtT+fF24swxNhfGFDwfVwpzjRIb2ftKAdiCHedwCNs1+4HZcZ2v37lDgZgiVJa5ebgASaZKQPc45RMOnMGp5x8opbDZfnbbrujeCAKD0ihLLxLj8+t4kM6FgqI/pCHdAEEBucwRJ3gpEZbYXMGgROUwo84zPIxSON9feCXiqdoOOG9Xn6GF8KPsKOO9l/oAyirGx/9qBd3zNz1ogcNDscDNgIl4BCFuOt+RhT6Jlz8NIk7HN/61tU6c7/wcWlxrwNlod93ykx8x04IOR9o67wPzgfXAH4HfcH8Bfo9DBw3/lgpb0Fh31I0gB04U4MvZ+PcZ7ZPbVmMR3mwOeiyHB/n42391WNjojv//PNU3HXWLXH+PInEfTLqkHxiKO6YoW/duk0uDL24o9wZM+QCQS5wIe53rV5d1KF2aAOETG3JA9sLe+c99ngpXN3IV7jLtJVwDfN9QhiPOOLz+bbZFRCatqIObNksEzDephOfumNs2wjzAVsuQTyPA8J9rTWZ8JhUnNZRn0XhcRaDY5PgHvySJYfpQ3b90Je44z778ccfK4PLK0LI0GjfhOpJGgNxSGHz0B2XYzs1ToOT1FLJK/uoqSwQx8flWoEHZXwQS9kuxnEbfTjzmbCQjkKu7hCO+pgvFnmms3n4UJ6Wj3RiSlHH4OvDKNRWsGko5EgLISrFvoyzaemGgdA/JGKJb257oT8osxwsH+PLc5jt4WG5ctYXA3FC+QBPOftf6pqjg9DmTZt11o16COtFWyksxA4AOHlxcmIghoGI4Vv0ADNO3H9dJCKlAiDFowbUtQdfF9u7R8UfD07hCWm8jkQg8nOkffyFOviPPKr8oRqCdnzsY3/nfv/3X659CnHXeOwntWU7NKF49SEuv024ZQFx90/LS/tFDCRK+3LXzh2yn/2FDoC4z4K4X3i++i1Ij/ruv+9+XfGAHyZeRoeIY5UD+wH4/ocbrfPb85D0CWaumzZt0n5BniVLFuvDY9x3gOcKB2fbH9bNQdOGAe672A1QJvwc0H1YGNzDvq6GiWiGfqL/7HPOcvfUiDv2BvpbZ+468ONC0j/cF4u7n7nPFPdEFfe771pbEUeg+072I8JVyOFH3sLt60E6pGE+m1+3OYorxdmX491SHt1ROwDTsu9oKOr0+7RM5/P4dGIX5fr6gc1H4naUlP44D0C5ui+i8mO4nwHjU22Ijx+LrUMxyWz5bcCHb171+6/V2Xs/vzjXt7g/7WlPcZdcclEIGRq9NKFMm+4oOyAQW35cl/VTlJvSAA40MWFI7UjPcgnjS9uX14vIx3HqlvzxbN7n827k9WIaBNWEsxzO5qth3kbZ2obg1zAj8tagHl8XLwi834u7n9EznU9TCr0VebQDv8SGH9eQrfHxIpRw+/bgRBPjJvpfhQsfB8HrRg8++JCI7mb9CAjSTZs+TQdF/Lb7Nd/+TlEnYZ0wFvhxMtOGobDjIRjUs+yEZRLuBwP9wpi4Ke5+n4mBG9sIX6gX4o5ysaQPe/fu3Sr6WAEgWLmYK8KIZX3+Bj3eza4Td91f8k9aquLu96lkCuKemrnziXDEgW9L+TjH8D1//twp7AfCq2XEr074B9nQBIgyBFq/rIYAMRyU4dZ2ag/4MGwz9gO+urZ71y4R+S0q9lgRxLMhmiYcXz5vJ90GZT+4o85qOPMxDPuLg7MXIWuq4X7/M/9E9wjpJ12Wh7hLH/J9caTAvkAfQLi1rkjc8UxInbjfe889WkchbKEtiEcYhRz707tDPGyzDaAsA/u+jGM46gdxnlJ8Ee77gfHA9on6o/J9nM9b+MUAn86Hqz/YjCdsA2CaTnxZMan03HcWmy5uTwrEpOpLIolTdXbjIx/+G/k7oa/Ze1/ijg3GrH00xB2k06c7Lh68rW2xYXViDNJ1ewqRZprQJPptuaky24q8umW7muO9rQJo4imq3pTtRfqqoPt01TDJrzOS0l+4Qz3YRoq091dF3s9oynbEQm+FHWB5dsnihW5uQtz1n9TH80+cMgj494etuOOdYqSfOhXiPlHF/fvf/UGlHhAfKzjOYSMc+WgjHAYitHnzFn0+YFp4yMvP6BDvzxP8o7jr/pd+giUFaxjSYjswILI9vk0HVeTRH7gAgNjD5pI/wWx4TpgZ4x45QNg5Zz1S3TooSnm6aVKHnbn/6Hr/rX6sKmA78EoX2owZgwXi7UVcjIjRTPyAiYCHx9B+wD6hkT8qOLBRF7axHAj9dhNs4x5pA58Fwe8NbNu+3Z180omhL8pzAWXBbQd/rS9gB9tSfP1+rKbz7UQ4+gR0Lit7fxyOcnXmLG6Gn/Gw093da9fqRQ7iuS3Ycmyq5NRyNA+O0cle3PEjR/ae+2S5MJyu99xF3OfNdw/cf5+ppxRNbL/akgd2Ke71ws7tYZy6xS7Tl8c2+7eatuxbhmFbmcfnK9tYhCXKZn2A4YD1AqSxMI1tR4xPU83H4yCG5RHrr7rr6wO2lLq6CrpEW9CGD3/oE+7445fp7L1X+hZ3fGHnYQO4327poykF1bzVHowH7Zg4LPZTlOva15m/FM0CaZL1p4S+tMv2AgqvusXuSC/bZ+NjG/lBIcyhPHWrKdtr4+yDd7CBXarX9DCSp3CHcGyft0vhLg38vmwr+D68TAfwJa4F8+bWi7vk5yCAd9o5c8eDYxgwvbj7h+F0poQBVOJ/fP0NWpbta/EWIBwnNWy0SwdssQEHK4jt6tVr9AduFi9ZLGGIw0CAeH+e4J/fN377pLO8X/97GyCtb48P8P3IwQIDpB8cffn4Hv8uFWV1y8wbx5e/zeBXA1AwLg6agGgD5FEBl35B36As9NW8uXPVjXoBbWBdNr4wEJtga2z4E5IGvAf7Gq+W4Xjbu2evu+/++/Ui5uGPeFhx7Nr9RApxMANqIUqmIts+wD604d7g4qdMU6an7YUUxh8DPg845dST3dq7IO525h7EXY1/ih22ZHZTp0zzx6P0N17V3L37QT02Yay4b9zonw8p2sL6g6jDzxk77q9bYS37QuLDNjAO+P0Dv88fhwMfXu0v9ofNA7tJ2AH7Pa4X+PzeDWz9hOVYbLzFt7Eal0obh3Wrrwn7EF5XWiRFW978pre688579MiKO15/w72xkaCXJvq01Z6jUMTE5Vp/qk4O7iAV31leKZoF0rQ4HcptKq8oJ9RvxRZ24Q7b6cXEw3g1kh+ijP6giFfTBMEOcWU+Hw7s63ZIB3eT0NuVAtTLmTnc2O7UTN72BwQLXwHDkjTOOwTvD1+rQ5o6ccfMHUvd+DEOzNyRFsvFGGAwqP7i5zdKWLktOKbpBtbN/W7TcnDHEjw+YYoyTzzphDCAoT0Y2H27kKvsW7E1UNyMFHz9IU2IgNuH+xUBuGk8PjPbxbxFNLGBUodaEqTpUYbPbvKZevA/RJT1anDwl2G67RLmB28KZRi0NRn+2Bm0t3EsYNUAvwaIb29jP2FZHu2zxzJhvxCKAsWDFxS23cxDA9g+G04xsumqM/cyzuf34fgRorV34Wn5enH3M3cpS9rXOXN/SPcxhLpYlhdx37ZtS6ijbAPQPkYbQpnwU+R9nLjDMQoYru6i3eW2ALud3o7qjMqj3e3+Ov0+rdiJcMA4wnAStyeG+8NSpq0vl9TV1yu2lFSbOmhIgnvuv//7r+rrnfe+xP0Tn/i4e/Ob36xPy4+UwKdo0/Qyje/BlNDH5dT5rbiTVBs681fr7IgPo2tcvk1HtwqASWdFGBR22E7GA9j+4zYUETFSVjeRr8RBnMS29VLQQZ3QU7T1wkL8EPnSDdu6y/JwL3aKDHpzZfYurRAzoRB37S/J55Fw8evsR8SdM3f8VjsGe+DfK/biftvK27R+C+sEKbfdP3Zgx7ZAmPAb9ljyRzPnL5ivFyX6YJjmL7cdUORlONMwlGPFvXrMQBiq4u7LCWWxzJBXogs0rdQFG1TTIjE8GmTylfUgnm6WAeCyfqCDoYT5QXpiEAvvl9rUzSw+7wR37733Sr/5L7DhPj0eIjxu6XFFOwGPZQv3KcopREvsShvDPoL4AMZpHomjP70s74WPfhDH22Pg6GOOcnevvUfFHccY2oxj3ifx254Sd87cuSyvM/fpcoGAp+VF3HfvKh8YLUU51C82BJ1htTP3Il/nNvl9VS2XbmC3MbYp6vTTAN+/1fqqdfm4Ij3TddTn2wMYZmH7YlJpPWWdMXG4rbtfiv7Tv12IEt100y3uyivepvfb+3kdri9xv/ba77lXvOKV+trKoJ6Y74c2Te9Mg+XVzsEiVZYNo7uNwKfLaiEk0c61dTENbFsWBdjGV2wMMlF8+cpcKaQox4dV07IupqmKus/fkUfS+fBq+RpmZupW6It0wc+y9iHd/n36UBnOPQkyM3fx676EOOKeuAQE8YYfT2Ljl7YwaKJ+fDuc4o4l1HifWFAW6ge0gXUDDAicMeLVLjyYhif7ddVg6zatC+D+9OTJ/uEzzNbwBgBFlZR9jfrt0/pjQ9wxAIekxWBs0cFQwvmwHgd49Iv/dCvs7eomeH/98MMP00kCxB1t4vEQw20gEAIVmBBuhQ4UgoF2qR3CtV1mGwXY2I/VsFLAAfezzQMQftjhS3Tmjv0Mv5+5S7/rsampw8WBeCTeLstj5s6P2Fhxx20R/wVCyUWRCO1TocS2m23RMPWXfUIbMB6U8eU2FUJk8qTcxcWSqVv9YnOf2zBQrbtbvLcB2wdsuN0vKWzaGB+Xjq+ru1/idta3yiCJ+KT8b/72b7hPfOxv9C2fXulL3O+8c6X7zL/8k/7sJL4nP6gH6/qhTfPjNJ3iXnZ5nNb6U3X1I/axqKTKBRoemhYLPfMUghDirfiCwpZtTsWV+bzQAoYjfeFXY9KE+CIu9Cnc1XBvs/zynr2UI2HlcrzPb4Ue4J477in798ORB2n8PWXNo+lg/D1xLMH7e+5Yloe4b9WBEu3AzB2DJwbVDes3SPpSQHFSs05At29b6bZ2DAd/gnQY0JcvXylteVCXXjFDI2iHir2IPsYUvEaFPGg/7OnT/ZfXsG39irsigRy0qmmRGB6//epQfB26PaEs9SNNKEfdgR2yf3D7BPf4EYyn7zVcX1cswfbhc6oQdNhYjeHxgV8yw0UBHqCsIx78VRCCUFBobLuYrrDD/mE6tU2ZsejUiblP693Mj5Uaztyxr6y4+36tinu8LJ8Sd8zcrTZYMdX2q79soz7ACHdIp+6EONptjm0KN2B/E6YDlTxFeWFfaDkhLIrzbm93pinTEoaBWChjbNoU6XjW2Rln29EL3doJuqW4QmbsOAbe/d6/co99zONGVtx/8Yuf6AH5mtf8qYj744sfjBlp2jQ/TpOauXt8l8fprb+uvlh8m+gsP92eSr3FwOvrittkRd6KMu3CHURe3cl45A9l2fhQbjVPmS6u14eVQl6GedvO6in4vHiwYopBf/PGzXrPPQQW4s7yYXBy4kIBD89BMHFiQty3y8Dpn5b3711jwMagiteu4uMg9qPc2Ka7SfA5UKA8uGEYr4O4tAFPp+OjOrt3Q/D9E/BY2o/RB9wCaDfHILgByrVuQqEFCNc2ldGCbEtwATxMp4c/AjWfb/c+KWevrpT4Mr3t/TF4UhwzV4g4RA7NWbxkka7w4edHCY8HzErRF7iAs22PYX8WYmBsCDZsirUVpDKdH6Rtfgog01RWAEIc8LZ1Vwdvhs2aPauYuVPccfGo4i5JpMSkuKeW5XnPfZ6I+/Spfv+jHm4H267bHNrCeA03YRafxofZ2Tex8ST2l2WXwlct17epaGsIh130f1Snt6vpQSySNq6ONmlAZ7q4rnL7mojb2I243jj3uvXr3Uc+/Am3fsMG9+n/949S/sTREXfMRD7/+S+5r3zla+6MM053V175FyHF6NBmU+rSVAf2ssvj9HX5bbgV+hSpMurKBVb8OSTH9dFf2kF4Q1us8NIu3GHbrQiDMr4qxqkyyzw+nbo1X7W8boKPnmc4wD33++65T8UdYYjnL8RZcQcoc8JE/tIWloP3dog74jCo4pzkqgGxbmAvXgD72abDcVPt/84y0ZaYeDDDIBGf+Gzfbbffrv4Hd5ezfrwPT/h6nA3rFf+DK51ArBgHG+2BcAMIGliy2D93w/bb7ecxAuxxHIt9CivGaoeBtPBLH6qYwET9R3chYsxjymBeorcSTBhs7/Z+L84+nNvItHjWonPmLtuIdJIEqRAODkqbIO56PIq42wfqYGZIP+uy/Pz5boakQR08PtSE44nhdNOAOvEmdNuwsiyfl9g0oJJH3GWflu2CqcaVeWz5lbJq2kpSYSnapkuBB3GJbc8gaGoXYm66+RZ3xZvfqj8p/Pef/Ft/8SfHwwWPvnB0xB1X8ffdd7/7679+v3TGxFF9yK7NpnRLE8/efLd7mvLGcd3r6YxvW34sOmgi3bZchpV2yBfScFBFvE1rxR4w3sd5EWY47VSZtG17KfiFX8PKeMTBZq/j/efVd66uzNytuHN/SbDmxXvuHCR15r59m7gxK51QzNxhz5JBOHVv1/rZl5X2h3jGoX6Ge5EvxT22Y9BGYgc81pciHng70GMBKwb+NT4L82LQBRxsrABg/1h/DPezJRYQu72p9HF/8Hggde0r/MHmbNvGMy8o85eiY20VH5giv5m9x2klTZm/cx/csny5mzd3XiHuWJWAuCOHHBVq4+JAN1WO0c6n5R9UoUdefn4Wr1jOnD5N62Xb2A4agGO6ro9og6p4VvuExP6iH0xeYPsgrkv7taM9pm87ymr2k7rwmNT+aUu1be3qi2nbToIPYX3729e4z3/uS+75L3iue9GLX6jHxpgQd3xSEwL/ve9d62644We6TI/78KMh8r1uTpv0XkDqd1iqjG7lpuJTgm+xearuMIhLE+vS1Ik+8yZFl36IaCLODtwUfFDkox2VXbWDOIaykM6m2SfHF74Tjw+zaDjCgrj75Xwx8g+/k611yInt77mHmbuK+xTtG/1qWhD3BfPnqbhbbL2Eboo4sDaMFXVE1aUlcHcb0JBGB20Jt3lB3eBRSZdOUsnL2V2/2H1OUCbC+ynbti0Wh1hsAZfk1S0204Ai3AzWhUCaPNV4CKZvtwpUSGcFFSAN+xphcP/zP39Gvyi3dOmx7qijjvIXjgf2yW7Qo1MGWikHnwLGjkl+oW63uP1grp+wlfCvffUbbrJcELzylS/XYwEgvmxHaXM7KE5W4JgOWDeo9FnUV6QpPyj6M/QTYX+D6oVFtYxu/l6w7e5GfJERU7aj//a04XnP/Q3Vyt971Sv1S4fYx2NA3B/U+3AQd3w3+6E9D+ls6V3vep8OsA972On6wN1Ii3wfm6R0y8dZYknnTm9bd5yuTb5Y/G2ejvLCz9SCunRelLy/tEWYIjG2aWKhJ9YNfFoflprpq13El+HelOIIgV5x6wp9Wl5SaJ5S3P3Mm2nxKhxm7hVxl1kRBk2cp3haHicLxH0J7gMbcceJzHJoA7TF2z6M+4D10vDYoM30Pq5sI6C77SBm8/aSx24TicWsV7q1xYoFqauHM2pg01i3FWK1IwFiuBVjwrRFXkmfKq+Mh/D7Ntm8Nh6kthG3UD7+8b/TBzgBftgIr0LSLT2nF6hSihpsOz5qg99GwAQJs3d8mMg+hHjCCcv0bSRe5FkDqoIZ2s14+R+3M+67GJYLrLupHMC0tg2kvNgow6wbxH5Lqp3d6CbaTTS1RWKDPXQwW8dMHTP2Zz/nWe65opMYm2go7hs3bHDP+rXnjJy4v/nNf+HOPvuRteK+Yf1Gd8cdd7pvffs72sCRFvk+NilJ23Ji0W2irsxudaXim8QeqD8cjxQpwHQ2fadoBZEK4RBgm8/m5bI6oVgDm6diF+VWZ7kIt3XhAbSVt64s7rmjLog72mfFHQZFxuK+Y/t2mTH5b73jE7E4cTCDP/ywJYUQxyc06wb2QoN2bV+J2wo54+kmbY4Xm35ghM1sHsA8qB/pbDtiv8WWGQso6RSFcuDult+KLWH+OH1VxMq4JuEGPg3LqApVJS7YFnuh+LOf36hp8PVCpOSvG6odZV24YL7a8xcsEPcCzfeUpzxRw+DGsQwbBqKFbYabWHdV7INbrLp+BpX8URxI9TuIRbdrO4Smui1x2b3Qi7DX1d+dfvM59/nPf9FdLbqIV90ufNxj3a8/+5nusMMPl3EJ34XoFPdbbr7Fbduyc+Q+YgNxP+usR+jAmxJ33G/CE7CbNm52q1atcddc8z194AQiPxrvxfexiQVt85az+nY7PlVut7qa4lsJfUAkKLjKcNq2HBuXEntiywbWX5QR+of5bNm0vbB7MYXBbAhPxt+63M/cEYZ+3ifHG+5nlk/Ze4O242l5niAQd8yIMEDKmayvYMGt4n74ElRanOD2REdZhO7YZj/Bb8Xd2kgThwHrJghDG1Jx8b4lbQayOG9THuwbDvB2/7YhFgbbn20EwuYv9klCJGwZdukfaTvLr+bBMQFsOrpj4S7bXBVGmxcgn91n5TjgidOjvKLO0GYaLr1bv09T5vHhZZkMJ2xvES6WTRPvJ2L7GtSVS+L45jY1+y1xPZamY7cfmtrRjnb57T31RYsWucdeeL4K+5IlS/w+1vGqXty/9m/fHLkfjnnqU5/kfu/3XqYzd7yXWifuGHxxsOO1n9Vr7nLf+c4PdNkKM/jRui/fx+Yq/eazB0B84lvalF+XJhUeD+o2TeE2x2YsUIBuK1KAbuaxUPyBFfJUfpASffQTH3b7u7/9R/01sqOPPtodeeThekKesOw4SYN7mv748uWFb7/LyYKTAu+5+2X5rXLywD/BrVx5m1wxbxCzTn9l7jWv+T0tD8YOHLbv2NbY5r6kH8Ad++v2A2zUa9Nb4nLA0Aej9sTti9tq28K0JCXm1h3fj++WvprXhAcxBEhj04GUYHeIXwD+Ir05Fmw6645XAUjVBzrzp2wcf3HbGE63t6vbbLH+WAhtXNxmUCeqcR1N5YJufkuTkKeI6x4qTW3rjfpyMFP3or7Qnf/Y892vPfPpeuxgH8BuEndMRJbfstzd+PNbRvbb8m99y1/qt7TbiDsGbq1G/m8Rcf/FL25y3/3uD1TYcfUCkR+pD+H0sbldaV9m+ut4TXQrOxWfCksJlkX2UHB5rHAzvc3XVJ71xzN+EM8Kkd7WAdHmN+xxDF133fXuJz/5qVwkbnVbtvhvbcfMno3XtMoPqKSAoM+bN9ctXXqce9KTLtHBBccyDam2v2wXiS+E6vqizl0eA/XiTrrFdxugmB/p4KZdYQBjXNyO2F8KZ1qc6tKDSjozwKeEzqatXgiU+7iaxpdRLbd0kzivLRvY7QKMjQXMll2UFeou62jZR6bNII6v5jXtCMHdyrPEaUkqPB1W7YdeGLui3gl+G4GzdLBQRP1pT/9Vd8FjH6PHGkW9m7hD2CHwV3/rarfugY0jJ+74Pfdly5a63/3dl/Qs7hQRfJpzjczm77rrbhV7CD2W7fG+/HAKfR+b2xPtym8+uNpeANTV1dSGVFw8uwSdYl/6U8JPrL+N6IFKeZKHxwv6AUKPd90Rbn/VjuKPvAwrjjMDT2QMxhgk4MdAMxXfgBfoTxGLOIjL5zbWpYnTg3T/dTsm/C/T0Q3aDHo2H7H7pYOaItF/8UWZpUPsYr9pQ6q/bXq7zyy2DJDO48tOiXVsW2xdsVCDVN64HPZzunxbZvVisq4cS6rMVBiI+zfZHluHOOvL6i0cjJaQN7VpOOkQ9IUL3aPPP8895jGP1g84oV2xqNPuJu5veP0b3a8/69kjd8/9U5/6lHv96//MveKVL3WnnHxSX+IOEISNw1L9XXetdT//+U0q+FboYQ9y6b6PzR0o1fp7OxjbiH637esnPjWo23RVd7WNcXnJ8o3YIN6bIKwSVwo5fsYUD9OJW8Lt/Xn4QdxWO2jrcr2cRAjBcUdSgwLKJHVuQH91Gzr3U12+TqptaRTiHsCg2VNZoRloZy+DZizIICW0FhtmRbCXfHTXiTTjU3li2ohrk4B27QMYTZNIV9OmbhdElp4vDkxUXZkxbQR8KELdD23bPgg6BX2BO+/R57lHP+Y8XYLXtojBsQB3LOq0m8T985/9gvvnf/qM3m8fsR+OAZdeeqlbt+5+9+d//ieluD8k4r6nd3EH6AAcDN6eKBcQ/6QP4wGK/cUyo3+YCP6g6bMLBkz1wOy1Tehn9Fu3C4A25dalsfsOpMQizpsqq5v4WTfqgJ9hyMtZuvfbuDJfDE98azcNBXFZdWUzvK7f25bTiW9d+/RpkJ/bTOrKtOmYj2mtOHUjrg/EYbE/LYj1Agqsv6O8qL2Mt6IU54lJtYnE/dHUNkulfnMEdm1LQ/+3qbtb+SC1YlHHSAt3G9psY79QzG++abm7+eZbNGwBBP28c0XUz9Xld1SPfYp2aFvE9Cvuy2+51f3lX7y5b2EHfYs7wGfyHve4C9wznvErAxd32Fi6h1m1erVbdecad+edq1TocZ9eZ/YPO21YxL4XhtB9XSgP1EHV0U34SVN9Gpc4h1J52og/aa7Tt5tpaLN8m7euHD3ZDPDbtPEmxeWkLkhAt9lwZznN6WOQPG5rL6Dd8SyrbltsOuZjWo1L7PcUcV9bUnGpsJR4xOkqQllTpxXoboLcRLrd1X4l3crtuPAItnWBpnJ6jUu2lcmiQ6vSvvpqaum2/YcC69eJmF99jbo5O8cXAyHoJ554gnvKU5+EDdXu0e2FGxb+qZthEHGxVdsg5qXdJO7P/fUXqKj385Q8GZK44z7AVVdd5Z75zKe7X/2VJw1c3Cu2xOE90VV3rnZ3iMj/+PqfaD67hL/kMHGPsNgPoft6oH5wR/8AxNOdom07e575myrr6uhWd51A9lNenXBZmvJzc+rS9CrmMd3iY6oiW79/62B7cW51a3trTDNYLuwmUsdmr+IYz6RjsSbputrXn6Lp3AL9bH+MjH7B5WnK0xzXfru03SwqOjy0jvpqxhUq5jIzB/i9FEAxP+HEZSroMIr0i3ZLsH0/QbvQXbC98WEQcbGlnynqtFPivmnjJvexj37CLVl82JCEHQxJ3MFqmVVjiR6f+Xz1q3/XzZo1q1bcfU1ldfC3FnfTQeqWvsMrdnfcscpd/6Mb9KM5gPfnR0rwh9h9ranWg0PKg74AiKe7jrZtbTvDB0WZDVV3q7db/KAEFf3TLW0KbFo8k21LXX39tAP4vmjez5Zett0eP0gb5+k4vto3o0OYLSmR7qjL0BzX2wVDE90E29K2/F7bISOdt1vkS217L9vA/ck6k/RQ3Fhl/br18ndCjZjPdyeccIIK+gki5sXmhv7Xv+K2tu4buGHhn7oZBhEXO2hXWty9sH/ly//mvvSFLw95xk6GLO4AAo8Z/Fe/+m/u9a9/3YiJu/zFH+TWMjZv2uxuF5G/4/Y79eczreD7B/OWjNhS/gC6tSV+24dCr21tFH9pTq/ltUnfb38ObLYqsKf7aUsveXgBgWO9+WKiuu/77aMhY5qBc7OJbvEgJVKWNmUQjCl1Kwu9lBMzcnl9WghBW1Lb2guVi634kBpa0aMCxPzb3/6Oum++2dwzh5gvEDEXEcenfiHoxQZWLXF4l/4Vt7V1f8INC//UzTCIuNhBu7zGVcV90+bN7u//9h/c7l0Pupe85CV9PRmfYiDiDiDweIoeIo8Oe/av/5o77rhjRlTci7KDBYFXI50Hwf/xj/1SPqDgj/QX84ZvAGYf9M9Q2pYU/BZNalPnUNo1HP3da0/3coHRX3t9i3pdVRgOenkoy4Jzug11wtU2fx2jnZ/UX9j48rvVMlRhB8W22KLiw3Lo1QwL3YV8mbrPPvdsDQfVTaluexEX+kT/itva2l9ww8K/wu9Nk7h/9atfd//2la8ObLZuGZi4E4j85Zdf7q6++mo3f/4898xnPk1E/lgdtHxNZXXwD6e4S40d7s0Q+jtWqaGb8GG9ww5bPGr38Lthdxf6oZNq2IB3bwf9lM8fkmnLULdhuPog1ftN9NuO3lYffKtQF46PuE4eM3F8+lgaAlFxvYrOUNsziO0ZeJ8I9eLdHt+XZdv6bWVP2xcnTR2S/TakD/Btdtwnp3hXhdx/r//sc7yAP+nJT1C70sC0MyAhIbCIC32lf8Vtbe1HuGHhX+H3JhZ3TDh/+IMfuh98/1r9QZhBztYtAxd3sPbuu9w73/E295//+T/6hPv8efPcRY9/rHvEIx4usWV1qHmkxb2k9PDePagTfczywVgV/TS+X4ZhF/dH2E18J70tvV4MWEZq23kE9sKg21Ytr58WDR2cmxVaNqMjXw8MJW8vDEKYSa8XO5105u+1xL76Lc4yzIdck4gDCDl+dOeEE44X3wS3DMvrYhRpT7VJxpd2BsqMRVzoK/0rbmtrP8INC/8KvzcUd9w2/uG1P3Jf/9o33PHHHz9sok6GTdw/9tEPuUWLF7qNGza6z3/+yyLyq/Xznxdd9Fj3yEc+TNOh5sGJu9mM4Gwr7h4tSMsFEHwAkce9+02btqjo46oL2Af3MNvXWf9hS0T0T9PwsUnYuAHS1+HT0Ixehb+JoVwUDJU2PT0Mp14BysZ5EleBsFGhS7VDadcgRbcbQxfl4cS3zbbQHwPdH7btmVRx6SG1FVbE162He70KOZkvIr5g/nwRb4r48e6EZSLiRR1eEzzBIVa1CcaXdgbKjEVcKFz/itva2rdww8K/wu8NRP26637kvvn1fx8RUSfDKu4LFy3ACKthDzxwv/vWt77jfvqzG1Xkly49VmbyD5ONXarx6ITRFveiKCX4ASqDJQb37zeL0MO+/fY7dcfBTdEHFPrDwjL/2BT+YutGnMohN0zNGORFwnAx8vfIR2+fV0g0Y9ACPbZFGNs7HO2rljkiPZCqhKeeiYN4AyvaXsg3aBiZLwKO27nHLztesx8vIr5M3eLT8vzYr7a3AgwHwSFWEaQYX9oZKDMWcUYD4La27ku4YeGfOKAJ1193vf4uBl5vg6hfccUV7rLLLkPOEWHYxP2jH/mgztwh7qjioYcelAH3gIjgRnfnqrv0e/Jr7rpHhf5Rj3q4/pgHvlePjhnL4q5UEyoQeYCn9dVuIfzAL/OPpvBXt2PUCM0YhsNxVBjbFxdja58PlZEUcow9Y59qG0ekxVKJn32vLwQ7NQMHEG+wdOlSdV986eN9GzGuw6X/g12Mvd6vLtreCjAcBIdYRZBS9VlvR7oQUIQX7fDuDlsMxvvrr/+xu+P2O9ztt91RzNIh6HCPNMMu7gf3+9kJxf3AgX1u3959GrZ561b3s5/dLOnvcWvX3qM7+swzH+kuxc6WzhoT4m4CTRT/1GO6leJO4ffL/OUKAOFSf2rWD0buAqDLtg0nA6p6OC4ScNwRWz7C+6lvFHs5MPotUAbYDLuPMqSzT4baS3w3PDX7BvoLjPPnuqXHHaeV4bmreTK+Lz1eJnBIgDGctnUXtrj0f9VWl9qg3k2rCCowIWmnUGYswkPh+lfb523cqv1x+M4KRJ2CDnskZ+kpRk3cWe2evXulFZPc9u073E1yhfeLX9ws7u26PIOZ/DnnnOVOPHGZ9KN06CEq7qTaBvFFbryqh6/vAQo/7/2TpgsA7/fxg6HLNg43o1z9UGhzWo2dzRsjLRlCM3iBlcU9RX2fMIazbCvU9iG2GPx0MsCbUBBtuiniCsZp7yr3C8OsnQqDS/9XbXWpDerdtIqgAhOSdgplxiI8FI6/GJN//OMb3J23i6CLqI8lQbcMq7jjnntK3Pfv8z/dCSjueD9W5uhu94MPuptuulk/1I9lHhg8EYl3EyHyak46Ufva7nCjmoVz+MS9cNWT6NZu4u6hOwSIRZHnLB8PJwKE0VjsbN9eAID+LgJabO9wMsrV90s/p9bob+oY6eyGZmQB751bRKC9gMu4GoQcNAk3Zt8QbO+e62fjsCneCSr7RpxhFEWEd6XsZJy49H/VVpfaoN5NqwgqMCFpp1BmhIXx9U4RcZ2lywQMy+8UdLyf3u8Puww3Axd3vOe+9u617utf+0rtzH1/+HodwG91F+Iu9oMi7useWOeczNLxYZSH9uz1Ii9hWPYAEPqTTvLf+z3v0edICHaB2YxCF8WRcHsqHkEPH1+UYv0+sIwqXPUkurXahpSgA7pDgFiaL7iNT9BIt3mLiHuwKfSVC4AtWzsuAIAVfNDuQqDFtg8Xo1j1iDPY07I15eDc2dnxUNFNZG16pkVYt3wVekj6ywAmPUDvbwexJqnZd0xFpMWOw+aGsDp0dzTsk8q+FWcYRRER8ibsZJy49H/VVpfaoN5NqwgqMCFppxfzO1epiN8AMQ+TKgr6SDzpPggGIu74YM2nP/1pFXa4wZ/92esaxR0PHKFqiPtBmbHj4/kpcZ8yZaqbOBG/bztJD+bNmza5OXPm6pLR2rV3a9n4LV39sP9JJ7iFYYYPVAbD1lm3J95sPXzMXrZ+H1hGFa56Et1abQO2PziT7hAgluYLbuMTNLLAxqSgwG+B4Ae3FX7YvVwIAHsxgF8JBEVaiRs2WuyCQxmeliO9mZ3CW/rjoaKbSNv0TIuwbvmS9JHlUOTqq79TCDYFHKRm2ACCDObO5Ww7Fm2ET3DHLT1G7Wa6d7KmaEhW2bfiDKMoIkLelC3/4InC/P+qrS61Qb2bVhFUYEKCcwtWRjd5Qb/zzjtllu5vjR4Ks/MmBiLu2KGnnnqKmJPdV7/6Dbd48SL30pf+TuVVuJS4g1jcd+/eLQf1OnFP1PeUJ0+eouI+ZcpkuYq6wf385zfqgfyKV77Ubd+2w23dulVEfq276667K2KP2f3ChfPdueeeo2KvwlfZ0niz9fAx+976fWAZVbjqSXRrtQ3ia3SHALE0X3Abn6CRBTYmTTo+tTWl4Bvx15WBrd6dCEthZ/1cCVA3LgoOK+MOEz/eHOiZFrtivNG0yVY8U+LaP2Oko8fY/uYMGbNlQL+dYQOK9DoRbrrrKIV6jrqtgM+bOwc7sxJe7FuxwqjlCeFFSKtjoHsaTVGXTOoo68P/4GN40pZ/8ERh/n/VVpfaoN5Nqwgq8A/B/eQG/ylyCDlEHRzqYh4zZHHHL8LddNON7tTTTnHf/961Kuynn36qmzN7trv40osqM3eolhd3EXQES8/vw/33hLhjT+EiwIr7yhUr9RW6bdu2uT/9P3+kX/4B/Hb9tq3b1b77bi/0+C34u+++R9PYe/a4h8/ZfYkePtomj/X7wDKqcNWT6FYV3yIYbQ7OpDsEiKX5gtv4BI0ssDFp0vFNW6M5imzN5ZcXBBT+8kKA7i28OMCtBNgNFwbAXhzEKwOAqwPxhQIoVhBCvvFGi6NwmBi9mgv6bIJdro4FGXjh9YXHwgwgzqCbQOOBYG9jFn1QhNgve+MUwnk6T8R5rvh1+BUDsZ4rYq7nfhgM6s42P/yUHZDFHVTdtLBKiaV1sEpn5qWQg0Npmb1Xhizud9+z1v3uy1/mVqy4za1a5e/zxuDLQhSe+Tig4Zb/ONi1etkrEGbsjP37D7q9ex9yO3bsdDt37tI8BCfAwx9+urvo8Y8LIR5dEeAJITYNQLnbtmF2f48KvRV7UAr+AncSBN8eLN7iHxNVuBrw22jhdpOy69He4CzcIUAszRfcxidoZIGNqaczTdPWaOoiS8vyG5Ihqq6+yspAuBgA5UVDuEDQOF9JKn0T9sIA8IKBVOMnVC8korRchQDxSsRI0uZoHB76rxn3h2M42yXxfeNkHnPPORbctkJsWbhwYXD5FUBvI8wfbxw3cO7CjYkC3BBx2BBx2PhAEX4TADb8uMXow2nEH25N6j8tPtgaVo8ffsq+H6y4N1Hmry1KIsr68D/4GJ605R88UZj/X7XVpTaourfI+PGTG36qPivkgLNyMF5m5t0YiLh/8APvKU6Kv/iLK90LXvBcdePTrbifwde7msAX6/CbtvPmzXd79+11s2fOdJMmT3aPOvORbvq0aW769Glu8pQpelIALutz1s5fJaPQ+xOo3DS6kW/btu06u4fQe7cXfIATFsv5vI+v9/BP8j/SXx5HhasBqS/qWT1lTVjZPrQ1OAt3CBBL8wW38QkaWWBj6ulM07Q1mrrI0rL8hmSIatN7Jb6wZJEdgVEPGM9PfvqL4KpeCPgLhZL4IoErDaDtBURbuj2TgB8wGg661dtGDCmcTfQiqm2g2JLS74+oRfSL14o0WBT8CxdZ8fbuRSFMD5fimOF5KC6OHWLrP9jWUKQLQbfuLO7eHVxJW/7BE4X5/1UbfyDiMKvCQ8OYVELMyS+jkKcYiLh/+EPv0xMFRb3hDVe4v/7rt2kcDzqE44EF/Ta7GHy9TR/q0pman5UBnGQoB+J68skn6RI/fmt3z549Kvw4QWD26nvytHFCwPiTxQq7GiP2ILaBFXwQiz4HERV7casxol+LqQNIK/CnoGwD2hechTsEiKX5iEQan/otUWyCarzfQ83YtnVH0jQkQ1SbOkt8YckiOwLjvgl2P4RGesu0uCYch/qdq9bA5QMMeoxrcE1cgrpwS7TrW5O6SLEtw3e8SRhuS4KXv7xlc6qr8HoHzmWbBpx33tkSImEm2Pq9lfB3WNUwOAonCOMPKWJNeot2Z9GnPA/Rz94BW//BtqZD0K27B3FXt7Fr8JtVtn3kxJ1ILXVFSbhtQ9m2ENpkV8JExLdCxLe61XJeqaDLOWFXhyHiMBdffLH6f5mFPMVAxP0jH36/CPMiPYD//M/f7N797reH2E7Kg9sbvG6Ak+DOVatkx63Bce22bd0q/nInekFdKHX42TS/P4xBSMuR/FyWP3BgvxF9fwLtDycW8Om94NOfssHWLdv0wzl3r/X38CH4uN8PG1jRByfxaX2KvikLSM34U1DWhbYGZ+EOAWJpPiKRxqd+SxSboBqvJ1MXbNu6I2naJGuNLyxZZEdg3DfB7ofQMd4yvVQTLuNRRFNcJ9FuNIRtSsQ3bh4ii3rrGhDCa9IVA7Mi7kpy6y/dwPrbuEE1Lvyt+EEcFifQUko6Oj7Em/SWaj9Lvwe3HRv0H2xrKNIdgm7d3i6NH5vUzbrUbewa/GaVbT/UxX2rCPiaNXepDTGHkK9ejQtlTxbx/hg2ca8ODOUJAujWAzth8LlZ2OVs31+x4cpttRwEhOJ68sknanov/PP0Z//g378fJ1Q4qcKJhCV/XgzADzRe0/il/Sbhx/v5VuQx29+2bYf68WU90iH84b4+ZjL2vp0H9QcnTmv9HwKsG0hC41O/JYpNUI2v7qU0lbZ1RdK0SdYaX1iyyI7AuG+C3Q+hY7xleqkmPDrchaa4TqLdaAjblIhv3DxEFvXWNSCE16RrL+74EzyCDttFXHc3qMaFvxU/iMPiBFpKSUfHh3iT3lLtZ+n34Lbnv/6DbQ1F+pdG3IHUVFOcPW7gxhtNSH/XXRDwbXC6NavFLeH2tticOXP0Azn4cA7yYex87vOe6575jF8PKTK9MGRxP+KIw93ll/9WIe6vf/2b3Hve844Q24mtzh/k3t/N7Y334z4+foJ1m4gpZvtbsWQTHSgQ1wUL/BI/ft8Xy4j4mcBS2P3JBhC2Z++ewl0n/AjnSapxklZthEt5+lCggIMWwn/vvfeqDe699z61gQq/ZOUT+yeIfe45Z6lbI/x/4/Y+BW0JTiW0hUSxCarxbU53zVH+6YKkaZOsJ2q2qiMw7ptg90PoGG+ZXhJn6TMuk8TTFNdJtBsNYZsS8Y2bh8ii3roGhPCadFVxF4K/+Bui1TJprVCrL+Gupqn6vRX7QRxWxninllISt5/xRXAZ39nH0u/BXxkLNNwYCrQaI+7FOOLHi6q4+/jCz7rUbewa/GaVba/sJ3FXN8/6TbohI+Wa4vBmEsa9u+5aW/Wv8X6Ch6gxFuPh6Bkzprtp06a6U087TSd0+AGgadOmu8lTp7iJEyZq3HnnPcb92tOfGXJnemHI4r579y43c+asYtZ8ww0/bRR3YKukWw9y4yYMj+N8mDqLeIg8wtboAXZQhR+CjyUfQtFftAiif4LmqxN+noB2tl+cpEHs1U0T0gOIPcMB4jCzh9jjO/pe+HcgpiL8AO3B8j7va56gv2HswxeE2xEFoXwiNQZXHdX4Nqe75ij/dEHStEnWEzVb1REYpRtKO0LHeMv0kjhLn3GZJJ6muE6i3WgI25SIb9w8RBb11jUghNeky+IeXDyHxdZ/sGnCOe/N+BR3CDXYFgSbfgi59ZO5c2UGPne2O+bYo9GN7uhjjpaqJzr8vPeUyZPcxEmTdXux2rlr107114n7ueeel2fufTJkcQepL9QBFdL5Ikhi4370gvlhWRoz10BxgAfDMIv1p9LYMAZ7d2mwpI97OZjtr8aSkIh+aokf7UR6CD/EFAdk5STdX4r63r0i+sGtRk5g3t/3fm8Dij3AKQY3BgLCZX070/fi79x991XFH6jQq9jzAmBpcTGAH9ypp6wTtD3dfdOredNImjbJekL6MbgqdARG6YbSjtAx3jK9JM7SZ1wmiacprpNwaCQI25SIb9w8RBb11jUghNekG05xr7rjPCl/+BvCCj8pwm2YcSsmVh1lfGcf49y1trjEoUbDgrEiLed4UtzVbcaFEFb6xfgKqnYNfrPKtrcWdxD1CYUZIr32Lv9AMQU7JdwAr/thIodZ+JzZs0TMZ+vHdY4+6siib9CmSSLY6A/9pMmESfr2UyzuO3fu1HBNPwmCnsV9UAxE3C0QeECRv+aaa5KiD7BczqXpeXNxr3yp+8IXvqJhEC3MplPETbZ+uOn3bnVWwgjcfGofBxpFHyk6Z/v+wmTZsmX+YT5pH37SUOsIJypFH0/3a7jGpWf4AO7UDL9wBxtslfbhoz07duzQmT+MvyDwFwCp2b/a0tbCrRcE/tOUetFl/N3wTSnbU4+kaZOsJ6RPgqtCR2CUbijtCGOgt8yAKM7SZ1wmiacprhOzqyPCNiXiGzcPkUW9dQ0I4TXpsrhbW1ziUKNhwVREemyK+0033qzjB/Cz77Rw46E12jD4vXWAh9fwY2A/vPZ7/kdjpH2TJvq3l/bt2ys2PkomLdZ2y7ZKeCHuGiZtMuI+QfJKsI5fu3bt0g+Y2Zn7FBH1LO5DZ+DiXseb3vTn+lAcdjxe88FHZfBxGRxgnK2mUAESIcJS9FOe/ITkLxLZTaA7tmPKeLUq6WEg+rAxu8eB6oV/S1jy90D0kQ0XI7hQAbiaPV5mzlpOOIGtuEP4gY+vCj9WBdSWk18c6gZ+wPDujgFXYBxBmltvXakrAXzID6sA27eXFwOW9IWAceuFgL9a7460pdqcAeAL7Cg2EVAJGko7Qjd7y/S5OEufcZkknqa4TqJdaAjblIhv3DxEFvXWNSCE16TrONaCv/gbotUyaavCjIE9OGvdcZ6UP/xNhVWsOIHxB3c12Ds6+xjnnLXFJY5mM3ziDlFGU1WcZbyEMHomqNuPo95OYYWbT51TxGmauHn5je5jH/6QmytjAHoM4ot2Z3Efu4yYuL/5zW9wGzZscHPmztGffMWO37cPv+2+Vw7Wre5//ucad080+2yCwrNs2fEqrmeffaYebNyc1GY1CWOn7d306wGr4Qf14gT38reJWK5evTY80Oevhglm+vjlOmSH8NeJPoAboo86us30vR0+2FP4vQ0wuGB5CyAc2xzHQ/ARxhUASak2Bwwf7p8NSFG9GCgFH6sZ5cpAsCUt3f0TtlP/GhIBlaCO+B4Ih4q3zHEjztJnXMFZ9nUZh0GrG2YXRYRtqolvyGaaUFd/CK9J15O4V/ylW311bm8pzMP+o59tKP56h2JjSitOYPzBXQ32js4+xrlnbd+2ZtNO3DlxwBgiIbpaCFH21Yg/CDXAJCgFxdjanGlbsbbuoWDFXRqvM3dsw969WKUMvxWC7ZN/AxF3+Tdtehb3oTCq4o5vx+8VUfvSl7/ak7DXAYHHw2dc4gfcPHwEh8SCZ0E446pu/ulMQxuiD3vt3ffoTF9C9cS1s32/vO8floPo2yX+cubuy4ep3NcPwo/hCH7AOGBn+IAXAcCmj0E+koq3rFixUk7KckUA6LMBEw66HcXFQppS+P3FwXxzIfCkJzxe3WlC2/WvIRFQCWrelFq0D8LgDwsPAxVIQIgSjEuc1b4r4wYi7iCRpiGbaUJd/SG8Jt1Ii7vde7YMtMM7yzBQhFWsOIH3+33j3fiL71d4Qnzxh+BcsrYvA2bTpk3GjTd3vB9upscrvPwQkf+iWueHgyxWgCnIwynWvVIn7qmZO8LBZBlz9Rkk6eO24j59+gx/zz2L+5AZUXHfuBHiPrcyc//e937grvvRDZrmyCMOVwHA98Lvu/8Bd9aZDxd7nbtfTD/oTFIORizlQ/QXL1qk9/E5aKU2nWHWLtKZ9MZZxgt04+oVwE/RX3PXXXoQ895+5xK/f1dfcukJDOHHbB/g5EE8xF39Ylvhlz8arrN/k4Y23RRyH9a8ApDCpiG+rDIc9/c4dOI3AuxtF1wU4LkB7y5thjVhVwD86gG+6e0vFIBePEgzeNEAmGfZ8cep3QbdlrAB3sLgVAZw26xLKw74vijjuJLSRKJbA9K3wWWqKGjIZppg22kJ4TXphlfcq+ng1ttRAf1RKJMYLr3IKoOCMwQU4VpqAb6Iyb6FCDMhf6N740ZvAx/v2bjRuynYpbseK8DWtiId23SPdSDuH/0QxH2u9mDTzJ1jQTtxrz4tr+I+JTxQl8V9SIyYuF955Rv1W9P4JSSKO8Tpve/7sE8QMXv2LHfyScvcT392k/fPme2OPPIId9vK293Tn/5Ut1V/EGZbh0gSfJf78CWL3E65Mly3bqPbYX6ERpeKw6tm5WtmC9yJwc0uoW0F01J3kQA/gmw5NIRuXeLf6t+LV9EPn1y0987YXv/Ovn/l8PhlbKtvmxV//6t7ZZ2sS+PNRYc1KdEH8Fub1M324/Q4adPxZR22LCvyuDAAdpXAXhB4DrrtSCflMi/ztSW+bWAvDgBXGoi9FaEXGVL3OWc/Uv3YPr+N5bExWQY00CGWBs2SRMoLrtJR0pCNTRDq6g3hNemGQ9ztjFaDJVJFk/0mgfaXApmVvyJIYqG1/m4ibLHimnJTmAHDLrvsMrV/mYjFHeILKO66/zDm4J+4cezosryGSQ5JH4s7zuudO3dIuIh5EHd9Wt6Ie37PvX9GXNwxi6a4v/Nd7/WRAQj4UUcd6eaIffIpJ7vP/svnNfykk0/Ub80/8MA6/dWf4449xt0Vfru9joefcYp7+MNOVfeq1WvdittWucc+9nwtG7/9fu2112mcxc8G/T1ybx+vH1vArA+3DvCKmV4QiLA2D9T+AGfXwrLdnOpymwdGZ/vyD9+3x2Dnn27FO/vV2X4p+lji95/jhbuc4YuIBjdONKyWIIyCygsXmJSfbqZnuIUXGCROY8WbcU3pCfq4TO8vBmxZIFUegL/cRxPcA/gZYYHhO8wFA8DFAsKxUoILyCkywGh+SW9ndNgn5RIrxKr7N+CHgr2Q6CDdbd0p+qU3hntbCY7pcuO8zYc5OS9Xv2wH9hE+oAVxwMwet/rOOedMnThguRdALKZPn6635hCGb0i84HkvlDKqPy6TqefmW250H/nQBztm7liWT83csV+suEPQJ4mwTxGBb5q5Z3EfHKMm7p/97BeLrxmBV7zyZXpQsDnqlgNj247t7nvf+YG7//77Nbwts2bOcDNnzXS7ZMa+c9duDcNDbS9/2Uu07C988Sv6sMrhhy1xhx9xmF44PPBA+1+x8rNpfON+vnvSEy9Rt+3Kjm0JUXCraNTQma9004a4xLP9WPSBf2ffX6zoa3xia5k44UJ5+BY/TkCIPoCI4rO93u3TwaRm/MTHV9tpoTADxtNOiTX6x5ZT5wax6Kfyw+/vezeLGgaYix5/obvpplv0vV0MRJiZ4J6iFCi5/XZCJFD+QZ2NTHFTp06VOia7DRvW688UYxCDiMyYMVOX5PG7CD+Vi1LJofWwfd2OAwuet/jZz36BZkg+bY7aMTa+DSwD6XEsAPSDxKgb8WjnT37ys+LCG2Ja9KlkZBkA7zxDgNFbKAezNQzUe+Wcx9sahx9xuMZPxa88yqB+1JGHyQC/uzhm0ecQ6AP794ovbETYGPSJlil9ul/3twgCZoMiBigLff7QQ3vcxo0b/Y9NSRzA/vD7ArNG2R8i7i98/ouyuPcAxP3DH/yAmycXm9jdeg7IPoC4i0P2jRjx6z89JibIPsHFFkLS4m5n7jyepk/z99xxjGRxHxojKu54oI7L8v/+7/+l75LzfuyLXvwCd9+99+kMSu/Lin3ffc2Cjt+Gx1PqTSxbdpx+MWnnzt36a3THHnu0e/KTn+j+8R//b0jhmTVrlpiZ+pvdq1et1kH68MO96PcCZ/94ih9d+7znPksGTRz8Glwc+MSLThXuEpvH2sSGw9glfv0hBnHrhUAx0+Rs33+hj18VnC+DHZemIV6+PD8btz/CA2Lhp5szfvqtDeiuuwhA+Zh5sR6QKid1MWDtoYD98riLLhBxX67ijnuGfGBIKpDhpo24YyZCcZ8l+xe/drjI/UzEkeBhLuS3x0ETvWwby43LryuDaWw+C8Jg/v7vPqnf/p4vM7djjz1Gf88Bszcns7aJMohPkGwH5Q+EXLdP+mmCCO6UKVO1v/bs2ec2bdoo/eFn0xB3/F77OWc/qhB31G3FvWh+aBPiexV35Jks9oyZMzUv0mRx751C3GX/g05xxwEg50Qk7pgTYE9NmIj9M7FR3DHT15k7P2Kj99wfncW9T0ZM3K+66i+Le+54Khyzo2984z9C7MiAZX9cNJBZs2e5Zz/7mf4gxX1qPT4PSrv+XWf8g+LMMx+lFxn4stPxS4/TAxnoAS0HfExql9TtJraZ0G3DuJy6es0ardPP9reGJ/o95Wz/RH21ECLG5X6UZUWZwr9PLtK834dV01TbQTte9gd1bivkDLfiT+L82EYbZkGZuKBi2X6W6oH7Meefq8fmXBEyDEQYvPZDaCReStV8FHe8HDlZxCsWd8wOS3GfoD9d/POf/lzdMTwWYtj+eFtwuwUPm/G2iz54JtDfDds/cd0sy9YJN8QaAvyj667X+9nrRJRj5syZJYXTPccP6FKcf/7Bl4fBPOY1f/BKN3XaND3+cGxMFaG24q7tlHRsTxb30QHi/qEPvL94HiUWd+lo7Wv9h30mOy8W9/Sy/A7ZJ7jnLjN3CHok7o9+9GPc03/117TOTG+MuLhzWR4DCe6LffZzX3R3331vSDV4LrroQhV1/MANwOZyiRk2VgpgY4aOgXmnDEb4uUF8lYlf1Tvi8CVu+ozp7sHdD7n7Jd0VV1yhX96zX93rBZ0ti5k3zz/Qh9+xx8yZAstdEu+a2G8HYRDHAxuEeKahDeGvfKEvmu2zTf6X9/wHe3ArArYtC6JHP5/iB7BLd/VeP7DpAMNBHAfq3KAU7FK8Y+I8VuAw+J9z7plDEnc81AcBicX95htvqtRFitfsOqMqpC5qUqBd8XHRRFObcI4iHuIOGzN1zL4wWuP7FAjfu+chd/sdq+S42abPh4C6d7MJHpbFhfXhhx/uLr7osSruvK2FPscxYJfl0UJuT7/iPn3GDN1vWdz7g+LOj4hhH0Dc8fBuStwhzpMm4Tz0e9HO3Kvflo/EXZ+WlzTinj5jmjvvvEdnce+TUZm526fl8SrcD6/7cUhVz4J5M+VcnurOPucsPTkxGECY7rjjTr8cLQLFGarl8pf+jh5sGHQh5Pff/4AeiHi97oEHxG3AQzfTp01tXOrHE7MveclLZHuuUj8GKvyq2y9+fpN78pOfoGHLl68oBrqYZccfq88D4DkAPOhnsUv6AMIPIT0hvA5XR5tdyDRxWnjjONjap7rEv01/gAekZvu4nwwbYq9vIIgbFyq2HrghivWiD7cXL4pyXTpiLwII45vELQ634gb3o858hIr7nNmzC3E/qPeiMYNsEvdJetupTtxX3rqiUheI/YoEdWu/jWcZdem7kWoDwiCIdDMNRBTHAAQWxwS+loY4XAzb398GOC9mSx/iHjtG9yOOOMwddvhhGmfbuvS4Y9zu3Q/qMYRw9Lmfue+TssM2imGeenFHn0824v6QLvciXxb3oQNx/+D73yczdz9GUdw5c+c+0n9i6zEkaSjuTl+Fm6T7YlIW9xFhVO6579u7T8UdD3HhIzYf/PAnfKIeoBBi2diLoX/n+e///lMaTjDA2NerZoqwYoDGvcNpMihjGRAHEwaVh6QtuAC4975S9DHrB5j5Y7nxtttu16V9lAtBwyC2XcqHuB9zzFFdVyEedvrJ7uFn+Kf4V69Z6269bZW78MIL9EGluqf4AbYXRsVeRB9uPLVvabMr4zTWX3XT9g7avIBaJYM5TshVq/wDfaklfsz2+bO7aDd/lAfEM3cIP7Dibuv2ppz5A8YD664jTgO/FS9w+hmnuZsxcw8P1A1K3FfJRaitB9i62RaCQRLE8dYGNk+v4BwEtlyC5zYg5HzoFQ9s2t9bABTwI444Qv1HHHm4mz1LwsI5gzLZTtrAupcee7Tb/eBDesygb6fKuTgS4v4CEfcFWdxbQ3Gvn7njf3lO41hKPS2PfeGfu/Cfze12zz0vy/fPqMzcY3G/9oc/cj+6/ich5WDBTBlbiF8vwiD84IMPugcfesjtETHBl9Ww9Lh5y1adkcPgR27w4A8f9HuZPl2vTgWHKroMg/gXv/CVENoefYpfzPoN5etVeIr/d19+mZb7+S982T/Ff/gSFXzUfccdq0JK/yMO9nZASvRxoiw7Pj3b77a743jrr7pLP20/298iohB+Zz+8sx8/0IfZ/qJFmO2fqH6Ift0yvX+gr4yz4l9nU6yIXdK2FwcA4kuwHH2itOWWm5e3EvfqA3XN4r5WhJF1WREtluUDaCsfLNS4MmlBNb93p7Yb8B17ggGZD7xhv9jVGIi331/lChgEHODidpYIOR48xbmkT71LfbYtMWyL9pVpF93Ie6xcED8o4o7jFsF4DxpvBkA0KO4aEehb3GVGCHHBfsEKE2buWdzbUyfuOD9wXvj/vYs7Zu4Ud87cp4Sn5fPMfWiMCXHff2CvDipoyj133+fwpSosm2/fvlO/VNcvEM0Z06fJib7XbRLh4UcoIJD4OAUFHX5y6aWXuttvW+Huvsd/DvdpT/+V8NT+QXffvQ+4HXKlaR/K65cTT1iqD9hh++677wF9iv+pT3mS+/t/+HRIUQ6shx12mL7Wh1934u7CRQhN6pf3MFgCLvH7ZfN2s/1uhwTjYxvQacP4NTB8bIhL/BCQ6mwfgu9FH9800OV9GYQXiW3rwUUA/TrDw+BRxJcibuuPLwiAdVOgYB+39BgR91sLcfcfBOpT3KfPVCGFuD8gxxDrSYm8JQ4vxF7OGWLTWAHHgGspV1pWu82bcLG1Wc+1O+/0v95I/AxcZt5h1o03ReCva6MFA3EKDOvaT8EQulH2cSLumLn3Iu7oP7+Z7cUdr8Lhnm8W9/7oFHecAwf8sxeyn/3/duIeL8unxB2TrmnTprlHP+Yx7mm/8gwtN9MbI74sz2/LY+fhaWs8kHPg4D45mWXQlpMagzcGbR0w5D/cW0Xk8dQtntjFPXO4MYh2+xLZueed41784he7s848uyLg3WgzoA0SzNBxO4Bcdvlvaz9g1/jfj/fuz37mC2o3YUX/8ssvD6FVMJDCYLZf3CuXk5YXBKBbPTa+zk3iMHoRrs9KiMEDWX62v7W4AAAQfHDKKSdpPiz1L5QLgJNk1s9yY7t8Z78MjwWeFwKcOevgIqJx2OFL3PJbVgxA3CeKuM9ScV8kFy5b5AInPq6sn4JvidNjYCQol2wOX2TD8yebRMD9V+A2V1Z8AI4ziPeRRx6pfgj4kWFJvQ3suxRhCA8+71cb/RQMoRvblxJ3/fYCxoBexX3iZPegTBY2Nc3cRWRw4ZjFvTcg7h/APfchijv2FfYBdmkbcT/v0Xnm3i8jKu6dM/d24u5PZH+A4CCA2bt3v3vggfv1Xi1m5Zs2btJwfBP6Wc/+NXFP1NnIO9/+Thk4ej+JUdZwgQH2hS98ntah3S9GLfxTt39tCIKvP8YigrHugXX6ClK/uwtCz9UK0DTbx3MMWOIHEP66B/rYll7aZNM25cc+5bIxxN4/MFldMobwLxSzWMxJJ53kFi1eqO21s30ANwyOpVSd3NewceFAccfzGP0vy3txxzGM3zTYvctfiKbqhWARuO2xZ90QbLyKBhEH+G7D7bffoW6CduO4P+roo8Q3QYQcz4qIqEsYsPXXuWMqccGJMPyz1Ik7jmMcz/xmBB5kxVspuDh/9atfof3nH6gbvLgD7K8s7kOD4o7VUIA+xV6OxV2PCtk52E9DEXccSZy5Z3Hvj1ER96aZOw6M/RhM0SrZwyr2eib7A8TPcJAXr7Ft1SV3f6DJAScnOn4DWAdXObBmzepf3K+88sriifgm+BQ/lr/5dDuWQu9ctVp/2hEDMkQK4RQmFfcXPFdFG9x37/3qhpBDHPSJfsOMGdN1u7Zs2aaD5aCB8Fuh5wUAwgBF/0QRfYAf36Hox+2hn7YVLpzANn1qW7qFYWYKsMyM8ij88Wx/0eJFOmP2M/6DErZIZv34UR4PZ/Lkm9/8TzW4sHn+85/dt7gX77mLwVKwRKi4v/YP/1gF7ClPfZI7/zHn+UoFrhwQfOoWxw8e3AS3iXjjwtV+Lx1tA0eLgGMlDA96wuALcgXoM6lbbXj1hCr7EpbtV+sGdXHqDl49TwP46BP2B25h6aoajuWdciybh1MBb4Pxm+0zpk/STwMPSdxlH+DWBF63wkOxKXEvluWzuPdFr+KOlaVJcmz77y/gw0ZZ3EeaQ0bcMQhaccfMfcf2bQ4PxuGE14PDiDuuGiHu73jbO4ZV3GMg4gACqPbx/nv0/2DupaeYMWOGDHRT9T48+gGzLRzkWJbfJrMePIC3aNFiEbHqUutwQnGH6GOmD1KzfTWy3dhmbD+W+LF8h0OrspQs+6hDKFoQp6srAzP7zVs26xI/7injomqVXGQRLvGfeurJap9yyskyU1/kThP/K17xB+5JT36Ce/azf83dtWatDmJ2WV7veWP46lPc1697wH3sY3+rIv2Wt7zJbRQRh2jjV8luuz0I+UpvAwr4McccrQKO3zjA7BvPZtTBroj7p/DDrScWw9Wp2DyAfhu+PTxkeq8IuM7GZXDeIdv7QHQxymdZLr74YvVDzOtui/3Vu94m4v7AsIt7nrkPja7iDh9uH+Kf7Bzsp+rMHeeKX2WhuONzxJXPz8r5hG8eTJHzyd5zz+LeH2NW3LHEh8MC4o4TuV7c9+iBhLBY3DFDfvtb+hN30K/AtwE/RjNtmhcGzBDxxPBWGTxxgEPM8QQ/sANl0yA5kljRx6wfrxZhUIWwEQg+jiz80p5/OG6+DuD2Kf66Qw8neopU+roybDhFHysfFHvMjq3w46G3DRs2qhsDmC75y8wfx+SyZce6s896pB6RbcT9Ony3QTbhnnvugyX9VX0H3ALRhpAfE0T76KOPVnfcA/FW+iXwaii32W47Vyi0vQhnGvwz6YxTBl384uJ2XVFCuvvuu0/dFlx8ot24f//jH/s3XXDhiWO1F/7qr0TcH2gn7mgv+h5jgL/gF3cf4o53tV/0gt/I4t4DKXGHmO/H8y2yX3DKWnHvnLl7ccfFPvYBjmDO3O177hR3HN3+nnv+tny/jLl77jgw9Hed0SrZwylxhxuvSGHmwJk7ji6cvBhocfDgVQ0MQG+96u19izuBmNGk7lX3Cr6JDwF78KE9bvfu3cmZDsPGOtiORz3y4cHnZFDd4+5ae4+e6LhKhx/7ig+5gXi2Dzef4q8TdssgDlmUwSfJ71wV3tmX2T5+/zt+knyoYECEiJcCfoyE+dl4EvZB2+2UdPjnnWUeuOn1bm8AxBuD67333qdp7rv3XhV1+2AnfmtBGuOOOPwwvVDGPXPcMsKPLwGuyvzzv3yu71WlkRJ3LPciDcYK/JZCFvfeUHF/33s7npZvI+7ik3h/ITwFH6iR8Rm7FMdb/MMxKu5T/MwdYzkeqMu/594fY2bmrss3Ku5YhscSqBwtcnIf2C9G8ntx98udcCPv9m1bRdz3aRiS46CZNn2a2hB3LGO+5cq3Dlnc60iJPk3MdDlo8X49wOdrOQMfCzPxoYCTEichwAdMAJZqMZDOnDFDB1sIO75C1g0r+vjqH92wLTxkUTfcbS4ISLc8CP+bv/1HqXOBe+6z8QrOAffjG/yPvmzRFYCtIW85aOH404f4xL9r1y43Y8Y094hHPkLred97P+T+9M9eV7Q5WD3BvEXm0HZugcazfPmntvj9h2i2qYjD3HP3vZrsXhFygvfWiV15IYjHK5n4Yt/9IsJ4CO7II49Q/5FHiS2if8013xuIuGMMwEdsIO4YI7y4o1c92KYs7qNDrbjL5Mrj9xX+4VaiPt8ge47irmNy2E9w4+j1M/fqT75C3CdLOi7LZ3HvnzEh7vg9YAg6xV2XcuS/jJte3NFC3flVcd8m4o6n5fVAkyR4f3IqluWNuF91xVtkoB7Zk5jiztk9hB/ukbxfPlJgu+zFDcOAXZFYs2ZNkRbgt/Exc8Z98W5Q3Dm772W23yTiFuv/xN/8Q0XccYogFitKsHG8+XuJcjxCXKZM0WNPDl23Yf06t2v3boffpMZx/L73fND9n9f/MYrVcrqhdUlbmJZZ1B88uMgl+AQsBll87hhvFmzb6mfk8eeP9Yn5OXPckUf431iAQOOhQ4LydwVxxwwd28jXTu+5p/tvP2A/D0Xc0d9oQ7/i7pfcs7gPF7XL8kbc28zcsQ/4nnubmfu55z3a/foznx3qyPTCiIn7FVf8hd6TtMvyWK5VcXdyMsvVHvY4xV1PaPkTizsOKhwouiy/fVsp7pIG93Qo7jhQ8ATxlW++asTFPVMFgn755Ze7n/3spxUxx0N38EPo+bS7ztbFtF0aZ/q62X6TuNs46/74J/5e8pfirsgBVifuvBV08OCEQtz1R0sk7Xvf/QH3Z3/+JxJXPc3anHZMA2tr+BbA2rV367F999p71G2BgOOYx1P0ALbOuiWsLAtfFfNPufOTv9ion//sFzpzh5jHb2u0AStQ3/72t4OvPe9611vdunUQ94XaNizLq2hkcR9TNIk79gtOn7bi7mfuuDDdLueKn7l7ccc996le3CX/tKnT3Dnnnuue/aznavpMb4ywuK93c+YmZu59iLsuy+OBOn0VLjxQh5NYrvz8q3ATdOaexX10obBzNo/l60c8/HRdpsf97Y0bt6idAgKN2T1eMeT9cdrdiEXfhy3QB/wABxM/MFE+fPjHPv53mvZ5z/k1iQ+ve0m6WnHHYKSDXSTukue9MnOHuMekTjvMwiHg/nvuB93au+7WWTjCUlxwwWPkfJrtZs6c5Y4KH6bBAIvzg8APMPvm/fV77r3X3a9fXUzDZz0g2HhlDQ+Wkk996lOVVRo+J2LT9EJK3PU5m+Keux8L2F+DEXc8UPfiLO490LQs7/eNnA8txd3P3A+67dt2uJ14FU78kkD3TTFzl0MY4n7ueedlce+TQ1LcceXHmXvxnrukhT1VDogs7mMHfM4Xws5Z+sknLWsUdMJZKIAoEQo+xZszfIZ3A+kA39mH8OPJ+JNOLN+Bj2fueoqI6U3cISwH3Xtk5v76N/wpitVyIODoh7Vr/Q+y3LXGz77pb+Lxj79QZvBb3c9/cZPOoF7xipepEGIGjgsA/IrfvWEJ/R7pM7rrsLdNAMR8pJ8B6VXc/Rjgvy2fxX3koLhj5RWgT+vEXRe7RJyr4o577nhavhR3ztwRLin0dlMs7uece56ch8/TOjO9MWLi/uY3v0EGdXx+Nv20PAZL2eMVccfVnxd3idOl9mjmLrMaPC2PMGRAPH5VyIr7FW+6UgeOzOiwbNmyYpYXg1epsI/0frDYeEALQNQxmcbrV9u273A3/PgnKmZ1M1hA0eZ9+Bt+4h+Cmz0bT3w7d+QRh7nZs2ZqPfhNfnDb7dV24aEulIPPtp4oYn/2WY9w55z9SD94ielX3B/xiIeZGXkz2E7/W//zZNZ8nB7HcH/nO99zv/WbL3Jf/do33S+CuL/qVa+Qfprg3vGOd4fcaSDYoyngTWRxPzSoE/d90t/YNzhf8ayE7iWM5XLcTpLAJnHHzN0uy8NMmz5d0uDVOIr7ue55z3mB1pnpjVEVd73nvtc/UKeDpZzU4ukq7pi5U9xxMuOAwUZUxF0GADzR++a/vCKL+yhCcYeQn3b6qbJP5uhSMh7owqGHXasXdoGvf+0b4Yd6BsPJJx3vHnfBeXrxF/PJ//uF4HLuqU99stp33323CnHd7/GTBQuwPDmh62pBanYMP29TtH210n8UCK6DxUXO4x//OBV9grcwAOuAGeuMlLhPnzFT8yG//4hNvufeCylx1wcfO2bu4sIqbCHuiJEzJTVz37bd7d69qxB3fYiuEHfcc5/qzjnnXPf8570QVWZ6ZETFHQ/U4WtblWX5BnHHH4i7NjASd12Wb5q5Z3EfE0Dc8Utkp5x6sjvvvHM1DPsZexWHnu73cAh+XWalgxR2cuYjz3BnPephwVfyyf/nxf11f/JatQtCe97/vg/pu96HL1ns5szBz7dOcj/9+U0aB/7oda8JLuc+8P4PF9vRLxB5mraibxmhU3mgDJe478XHrUQ0QBb3oQNxf/9731MRdzmR3d49EHesw+Nc9jbuuafEffIU/CKcH7+BvefO15zxAZvygbqp7uxzztF9lemd8smbEUD2dU9wqSaFjWOS0t9jRZkRwwpQrEVYnh8Obr9ztfvuD65X8+//dbWKOoW9g6hRZ575SLdfwlavvbci7JZw+TlkMNPGrPuyyy5zn/zkJ/Xpc/QXXjGDG2GIYxrM1G26QxG025pBcYh2x5gm3lc0uF0FY8Pkj54V3o3/ZRzMfkzajB8XBrDlTyVcLxQyfTGi4t4r3MGkm2jbtJlDB/zQyG0rb5NZgX8Sd9Ds2LHL3X7Haoevrx1++BKZxT/cPevXfsVdfpmfEVSOq+gYu/HGW/Q3Ck4//VT3lKc8UcP43Xc5OvXfcJMSfdh4Qp1iP17gOWzP5Xxej02wX+L91GQo4FW/5MM5VIn3NlZw9ZZspi9GVNzDqo3uUICd6ncmwnwE3bBJGVYGWr8JVjQ8CsuMLvjREbyOdf31N7jrf3yD+7d//br7m0/8vfvbv/kH95l/+by7+urvuh9L3HBy+BFHuK3bd+oM/N++9h/uk5/6jIbb48ryuj/+Q/fSl73E/5Lb+Y9xpz/sdPfa1/2Buzx8fvWH1/5I7cwYJY8BA6VucmXHYsIwa+Jwj3X7ePlTpMHPNGf6Y8TEnTsL/+gn6g5+xgPmsdgwLS34NQz/Q5w4Sndm1MB9Y7z6tXz5CvevX/mqu/5HPxZzQ+X1trZwxnz22WfKbHZp8bOhbcHDb/hZ1MdeeL57wQuf517+uy91f/ynfxRiA+aYsccPjrVOzLGX6Qv2X+7HQ4OqwHeKve7H4Lak9rPaITGsOI3GZ/pm5JflsT9rdiDdZRyS+3/wlOHlEg5SaKrwYBb+2eWfzOiCJeOHnXGqvoYWg1fP8MrZi170/BDSDB7GedKTLnXPe/5z3O++4nIxl7k/FXGGedaznuGe/exnurPOepQKfwoI+gUXnK/m2GOP8T/cUh5C/hUe/O9y7DDuMec/Wu18nA2WuD97eoamkjXvl+GgaQZPOzYMJzasCI/i1ehyb6YfRuxp+b/8y9c7/KQmHprCB2smyvGxb394zx1ijHckIdDyD/4JuCqU/2gexly82+7fX8dTlf5VuI5vy0v4VP5wjKTDL1mNxrflM1UwGDzqkY9wW7b6T6jiiMN30AlEHr9zHvPUpz5R055wwjL92AwPVRwn+Flg6wf4xjtenyRYMdgs5X7iE3+v/j+RiwAOTMgbshflMADHoMX/AMsWd/fd/qMw+PQrPqCEcIL74uPxtwOGm3e846rK0/L+2/Ll0/K6u7h/hK5Pyz+0R44lvAq3R8cFFAA7Py0/NOyrcNhP6Efsl73Sz/sP4BcfZZyWcd3fL9duFzMhjOkymmO/yb7CvsDT8dDsHdvDq3Cy73R8l/RT8BEbSacftJk61T3qUWe6y37nct+ITE+M6My9GIzFtsZShOOfSeNNNS8CYPF1qviJTU2TGXXwVDd+q37NmrUquBB2fqMaNj4sQxgO/vM//9ddf/1P3H//97fc5z//JfeTG37q7rxjlZSxxeHnRifLIAFBx/eo9TcFZPAGmzZu1nS4h3/DDf63xlOocAS2b9/q1t59t7vlllvcD394nfviF76sBq+4/eM/fMp96Yv/6m6+8WZ304036YXpEYctcY98+Gnu3LMfJcI0T8U9MzzYmWLdrDEzsgxpP8TDcs0wncfvoTFiM/c3vvHP3Pr1G/S+adPMXV+r0Ktynw/NE6/4MXPHTwPiG8T+PXdc+eG9VszokR5Xk/h8Ia4McRWIj6UM4vfcM4Mj9S43jeW4445xd911t9qY7UP04Sf4khw+EbtwEb4X7z8dq8v8J53g/vRP3qD+mFe88qVq45vtW7fJzFvKRdnxD7Dg3fYZM6a7RQvn67G4QL8YN9ft2rXbPfjgQ+7O1Wvc5s3+B2+w4oDjK8/a+6PNzB1DAYcpzPwwBmBMwNykzcwdF4L48hlmjhgX8sy9d3TmHn44BvuCM/c9D+ELo1hFwz7j++5+vyGNzuajmfvECVhpnVDO3DF+S7yduaMAzNzPPPOsPHPvkzEv7nqiSwsh6BPEUNzLz8+KuIsfGXAwFb/nLu5Zc2a5t7/lHVncDwEo7vhoC0QfIMx+xMXO6uHml9pog7ol/hgI+MwZM92iRRDwA/oFuOlhBQA/arPnob16AYABBqsOkyb5r53hGYL4x1Qy/ZPF/dAgFnf0Le6Hc1me4s5leYD9ZJflIeLYF1ncR4aRf6CugabrDBsHd8XIP3F0hvsRIHMIgGVtGL7LbT/Oglkx/B/4wAfds5/9HHfWWWfrLB6izlk9gE1hh1gff/xx6n7Oc56p9tN/9UnuaU+91D31yZe4s898hMQfo0IydcoUd+99D7gbb77V3X7HWjdl6iz3tGc8y/3Gi3/bffgjH9e60Aa2Iwv7SBGu8BPguMiMHr30P8djutuAZX8YCH6mP0Zt5i7XdH7mvldm7rji6zJzt8vy/odjDsjMfat+fhb3WiVU4sqZO9yzZs9y73z7u/LMfZxil/Trlvj5a3Tg5JNP0Ns5uKbFhYT93juw981tGcD64ziwZo3/PXpLKp2lKb5b3tGg23MFTfF1cTNm4Jccp9bM3HHeY45XigJn7r08UJdn7kMn/rY8xlfO3O2yvNq6bzAe+5m7jt+SvnigTvZTt5k7/DguzpKZ++/89mVaZ6Y3Rkzc/1LEfV0XcdeTWo0Vdxwc8PuDAzYOnL1797sdO/xPvurBIWlxwPl77uKXNHha/l3v+Kss7uOEOoGlmzaEFu7Ud9kpMjZ/r+AnYi2LFi0KriqLFzcfd3X5iI+3p+cEd/4Fj249m9Hlazl/YPfD97//w+Aq2bhxU3BVwTCyaVM6DmyQfOVIU27TE5/w+ELckWDKCIn7gzv3yIXfAi0T8LiI7YwnfloefVsn7tzPKXGvW5bnGJ7FfXCMurjv2fNgEHeIuvkBmTAewY8TGcKtB4CKu//J1x34PXfM3CUOJzHsaXJwaFoxmLn/9bvencV9DMMlbs58m0S7G1Z0KZyLgsAuDnE83HHx59P4GcbixYs0DMcN7IULTVkSNxJAeHAha8Xbfn4zFd8PFHsr/HDHMK4NNj/yeb/PX/rL/gdw33H7bW77jh09i7svTs5zEYJ2r8LN0PEDz+JA3D/7L59z11z9XS2zCSvyKeHnh5QQhltK4xWKO374C+iYK/ukvOcuIi77TAJ1X+Mcwv6z99ybZu4Ud/977nilleJ+tvvt3/odrTPTG6Mk7nLiSlhK3CH8Xtz1lNYDBSeyDrw4AETYcWBh5r5zx3Z9oA5hSI9wijvSY+b+7r96Txb3ARILLmwrvpw1gzguBg+/EYqpCrTseiuuOBQWixBTdCEAsOGHKPs0icdHJB/SWHi423CIpX0/HnE4Ji18zS4ub6xhW4e2YnvbttkOBUPdzuqw4suKhxr4V65Y4bbJID/S4j5XLvz9LRrnNm7YoNuLOvAtDtS/XsLgR7UbZNzSdGHVYuPGjWqDMqx+1SK+KKCNC4NUHN1jCYg7fxUO/YI+rc7cg7jDRqcJ2E914o79t1Mu6nbt2qnhWdwHz4iLOz5ig5MHO3LvPv977hhIcWBw5g6bAwLSagsh6ri3LjZn7l7c/cwdSUpxx0WA05n7e9/9vizuXaAIx2Jsn1q34THxjJmCixkv9sPiRYt1iRr7Z/78+UU8Dj2KCA/DOlGx4bGQ4zeiG/Olo5LY06GuzOFg0HWNXMvb4IUTxMPNiltvHRVxnzdnjow9e7VMgjqwH2CX7cX4U7ad8TFcmdgoFweIx6eO161fr2Hwb9ywqbgAQPvABglrupWREvz4gsDGDScjIu7StxB0iDv8cJ991tnuN1/821pepjdG7oG6v/g/NTN3iLuIOgyX5cN9G6TZjxNdwvQ1uCDuiMEMH8vyuECAaAAcQLG4v+897/+lFHeKMYWZfs6sbVgMZsUUbIj1osUL9MTD7Bl+fOkLaSDYqRkzhYq2BQM30NcX1e5M0w0cD8wX15Wqs0IiulseHl+HIl16o5GufVlD3ZDCfQ+Y5Nbly3VZXu9/S2A/4j5ZxB0XeL3cc58/d65MELy483iiQFvstsCNPkltH8YswG1k39m0deVD+GEjL8Seqwab5GKAb3+oX+I2btwsFw6dr3rGgg94IZCK65XW4h5WW0GduBf33GW/706IOwxn7lnc+2fMiTvEHAcNWoXzQ5fp0UIREf9UvBjZ8Vbc4Ud5PCD0x/8lYNYsEff3ji9xpyDD5gNj7QTbL4FTuCnei5cscoctOUz6qJxRW8G1A3ydkNs0wOZvwg+quGDzA2ZcDrDh1m3TpsJIrTB3Jq3F1n8oAJHAdtMmOK/6vVBJ9W0Tqb6i8BGkuXX5rZV77hBphO/Xi3bU6Vf5AMLT4h4e1IrEnYJRJ+779/t7xTGxCKfSWBhPgQcIwwVsHIb2xOXB78e5shyIIuAsGHGFkX7cGEQfFwC4lQAJxaeWcTFA8d+0aYt+zTEmJfZ4c4Tu1E8IU9x5z53ivm/v3iDuuCDDNoTJmGwnDhkr7tgf9oG67du3uwd37yrFXcrFsnwW98EwquLul+Xlyq+LuOvBwpm7nNCIQDiW5ZvEfebMme797/vAISXuVqQp1FweTz39DdHW2XVlOXyhCPZi2W7E+VeMCAfpWMCRhrNppgF01x0mNi2JxT2VxuLjm9NYUuXV1dFVzFpUy7JH6FQZMlbcAfsgFvv2PV7fv21h38UCv/wWP3MfDnGHaIBacZc6KvvUbKK/8EzP5mNYRqWsgBV3i01LN8Y0UpbpwyCSEHqEw/hZsrSzSFfaaky7MePHuQ17kwi/SK27445Vsk99HC4C4tWAWOjPPe9s99Mbfty3uMvgLP2f/ohNauYOvxf3c9yLf+M3tc5Mb4yauMtRkF6Wl3A+zISDA/fWtYVh5o4DAxE6cxdx36eDgB+weEAUy/JjdOYOkW4z6+Zs++STTyrci0W08eT3SSedINvoZ700GIxgE+5aO4NIzb4tNn9clvVbYjEndenr8OmrebgNcVl1ZTfV2U3o8Y0FS1P6WDiBFU8rYjYsjk/VYfOSVLo6WE9ch60/pr7XSnrdnxbux3jbRkXc5aJ3/ry5Kkx1UDQtPAe4LU00pY0Fn2lg82LChtUJPMC4iUkNhFb9Jh9Bn6f2Xdw+PCegKwHh2QD8PgNFf9kJy9zxxx3TWtwB9pNvs9QlYxDEHfl4zx3L8sXMHWO2pM/iPjhGTNz/4g1/6tYXvwpXP3OnuKNZOB79cpUkDuJeWZa34i6JYY8FcadQU8DtB1YsEGzOrtUtZvHixX42LoYnpBftclDmSYkTBfj4apoYnHR1y+oxtt42MxjE1xGXbw+3VN1VqvFx+u75m9NYoauITshSJ4SxQDFdHN6WNvnr2pIC5SA9bRL7m0j1Wpv+ThEPMXY7x5K4F8d4tJlx++uI06G/bFgs6hamo10n8lbgGV6xQ9/aixPGgdQ+tPFxeUwP3603L+8Qd95zR4pBiDuemZqiY7h/fuocEfcXvejFWl6mN8aGuIuNn/DEwaG/7CZ7Hs3CcYUv0ak77HzM3Cnu+NlNFXc5YHAQ4oAYKXGnWNOkls5xHxvgJ0v1R04Wztfl85NOOlG3BWi7wwlkTzy/PaVgx3G0fZp0un7ptQw/CKeJy7KHW/t6qunifG3L6ZbOH3MmTbtiR5Q24jwIcbfYboj7sJfhw4o6qRX3/XJea10txR1frxQzEHGP0G2sORZ62f4mcQe2LLrRJrpL24+RIDVTB3GeGF4EgPhCAPuYNkGa5TfdUjxQp8eR2MMl7kiHsfycc851L3rBb2h5md4YdXHHsvxB8XcTd9nzNTN3fKEO99hLcbf33Acl7vjYCpfQ43vfEHF85nTZsuO1HbqEdfzSUrSDAAO0sXDLNlXimF5sGIomhJtprF3Gdxf3eDfXpbPEafw+6cxXJ+5NddSV1YxP3y1f23LjdHEfWbCf2OZUOoazTJvGhjXFjyRDFfl+GC/ibvfdILCiH5cNP9tl4+hm3ljsSV1bU2UBK/qguHgQA3HHzB3pY3FHGFZfkXKo4s6vjOqy/Nkyc8/i3hcjKu7xe+54Rx0zd4r7/n1Ylq+K+/794cp1mMUdog0+9alPqY2ZeDwLxzvaEHCw7ISlfpCQMIJ24j1agJMCA4kVb8BBVdsbiTtsHx78EqdpTDztWNgZF9O0e5HH93M6bxxfl7ZO3Puhri2d+L5qar+lfbldGNym9sXAtqNP9OI0uNuSEnUyauJuXoWLSYk86u5AGpYM75PUzJ7l047bFseTVFmEFwIA41Rn3tJPN26T3HLLrTp+I6xJ3Jkdu0/HcnSUjFHYd9gX2E9Ig/H7wd27g7j7cT0W93vuudf98//7l+LJfhg+2Z96qj9TMmLi/oY//5PGZXmIekrcdeaOw0OX4ymIk7QMXPkV4i7/IP5txJ1L6RDvWMQxAwdnnvkotfGb3ctO8IIOOEMGHGhtF9rB14o0w2HTAAo86IwTt+aVQSyEiUfdbcWdxLuZ6X0/p/Mi3MY3pdUBV/Zbv0JfV24Tvn295e2nnlp6LKqp/0aaQbVjqKXccvMtFXHHe+7op6GJ+wYR970jIu7Axvlj0vutG9g+R3gcb4nFOU4X+9nmVHnpsLL8WOwtyAsDcb/55uX6y4u8vVN3z51F6H5CmHQUhBvjsu4/sdF5VtwxhmFmD2GHwCPv1KnT3IwZ091GmRTiA0C3336H7NvNagP7RH8W/E7Gtbjjnvt73/M+98EPfkjb0DQbh6gvXXqcW7BwvtZdhz1BrdDjoE4JPwWaMBw2DbZJw0K6apzPTwGHASmBp7sO36edgw/zWDewaZuweUA/Ah+X0Qa2r8zbvYx+6ulKTZFt+g6wTXH/1+Xv3O7hIW5Xmzp7bZEVd+TlzB0P1/qy0uJufzhm1MQ9pteNNzSVn5qFc1/YfHVl1M32Sae/Kvx4PRnivmrVau3LlLjjsKiKu5/dN4v7Dv8qnITF4o4PZc2W8Rvf5cD+tscdhB5l37byNrdixW2yvyH8d4ZYL/oUeYj+eP7mfxMjKu6177kPUdxx0OBgKcUdB8sEFfef3PAT9/Of36ji/ahHPULTYTZ+4oknolkVdECJThg0lGH2ACM4KO3JUCfwxAo4bRrAmbwNjwUeMFzdRXqJD3ExbXezzQt3P/ksbYW+Ln8TbF9n3nRZ/dTRE6b4tv1GuC2jhe0btoNh6T4uqYurz1HSr7h7vWo3c4c9HeKONJI3Je7dBLAn2mx4RLf6UgIP4nxN5aQuWkBTGSrWkg8zeog6bnfg/XQ8yIzxeufOHbqvtH2SjenRBzguUCeKg7jjS4IUd4Qh7+5d/p470mIfzZQxGw/tzZwxQ/zTtA0QcjuGWuxKA2b1d95xp9a5cuXtYrzwAwr+L9MMf8TE/c9f/8fFzJ333Fs/UBfE3d9zh9DVi7tf0pGDQQyW5WXIdEcddVQxAMHGCY54u+kIr+sKjdM2dB5gVty7CTuw4s401h0v09sDu63Ag7jeXnYzy7c09U0dTXGkm/i3KQOk03WGtS0vPjZ6QfO2yMJykd66xwpx+2w7U9TF1eeoF/dBLsv3Ku5D3gdNGxywfdqNOmEHdflZPt0WbivPvZTo2zxwsw347gjGb8zaIawYh3UGr89P7dWx+6GHHtQ8GNN1LJd8aMuUKZh4eZFHJyEG49t0GbOnTpuq+xsXAUgLo8dCaBvHxBQc83DPH29OEY7NK2V2f+uKlTrTv+22ckl/vIv9iIp73cy9SdzxQB3CrLjjJMaVI8RdBwE8aSk7MjVzX3rcsZoW8GDnQU0/ibvCxsdpAQ5E0Iu4E4oxwAEOyjxe4OGnATgxAOthXJ3AW9DGIl/kHwRsYx118Slx71YWaJOmStmP3ejnlEDZ/piNBuxElb20vZ+2DDdN7W+MCzbBtlUeqJPBHr/ljfCUuAO92JVjxo/5vYs7ziHciqO4p0S9qc/rto95arc/CkZ6pLV1cRxpQyq/pVt8E7HYs4y4LLSX4osPknGctelS9bOPYGMfT8YPxYgdC3hqPI1B+bY8+v244j92RtBeLOkjfvktt4rQ3+5++MMfaRwEnuYlL3nJuBD7ERP31//Z65Iz95S4wwbYZ/HT8vXL8nKqi6hPmyozd1wESGaI+3HHHi1p/HI7oJ0SlRRxPtAhiomiinpMPosVd9g0oE7c7QmANjAcdjXO2xZ7Elg6Q0rsdsYDT9wHqbJTxOn6Efe2dVnKPPV5h3IqoHz2caqceOAaCkNpZx117U7R1P9NcUT7KbiHU9z5/YtBintM3G+12y/BbcttI/IoK657qHQrk33F+NL2Is8lck5CYpAG5wHHY46NfqyrF3Lrbxq3mY7t4raI3BRtYpwV/Q0bNrjbZUZ/660rVPyxnA+s0B+KYj8mxT2euWsTZeenxJ0zd2DFHYMAluVjcQd0dxN4prN5QXwgVrpQkhblR/lILMKwaUBbcfd2NR4wTTeYz9IuZ1k/SZXVhE0f7wfE+f2fLnModZV0hg3lVLBtZjm17eyt+UOmzXbZdvdK7Xa24NZexV3HgC7ivlHEfe/IiDvg9iNfU190lNui2+qEnnX12lZLr/njtHHf9doW21epfuv1wr8pjrCJTIs2Q+it+OOHeLCEv3z5Cn1gD7/fz6X7Q2lWP6LizmV5FXfp2717+UAdHsgQgW+YuUPQdUYu/7gsv3PnTj1B/bI8wifpfR3cq4Hfz9yP0bTwazlIV3PQsCtsWvotVlhToHxcxXYTW+S3BqKu4ZKeZTMOxOJu0wBbH6+SSewHzEfsNoNqbJXhEneGx21J0UudzWl7G+RIL/UnGWL2Xom3MW5/P31AeukLW88K+6twXcQd4XiiuiLuMhZMnpIW9+7L8jL2JLRzKP1gQZ+0KitsYCptm1l8L8TnLemlnrptGlS/pUgdX3XHXN02prBtZnk2DG6I/Q9+cK27dflKEfuVhdCP9SfxR1zcOXPHgK7irj8cI7N1I+6pmXtbcce7kTiB4Y/vuQMKCXekPUDYFQjz9ZdxIHXQxGlASqwU6wzhsGk4Y7fhdIOUuDMODFrcSWeIr9+CfDY/3XVlAhse75c29JK2Hb2VN+T6B938BrAfYmz7U/HDCetbeeuKYRP3ppn73Dlz3D6ZWNidMIg+QH0sx7obiY6DQbSjDU3tg9jjHG8r+iPRZnu8gjoRj9PFVLc7nZbbD+xbVOtFw1aKwH/vez/QWT3v00Po8RXTscQoivtEEXf/hbp45g4hAthHCNMWioCraOOfuLEsb8UdiRE/Zcq0ysx96XHHaFqCcO78uoMD2J1bB8uJSV1AoJuL9LTETwOaxJ3Cbttk0wCKexOxwMfY8ppAqm7904Stp7INUfvatof0mt7S7YQHvZTfT1vkUja4Rp6hDgV2eyvHuxCXzXMcy5/bd2yviDuWew8c2Bf2gpRj+mQQ4o6n5efMnh3E3VNtX2/7jdsZbyPC++pTKa5NPtu/McjfFJ+ibVt7meVburUprj+VNjXmdNvOdv2QTsM2cZvhp4HQc/n+2muvG3NL9/2Pzj3AT7vW0csx6AWuKmoWxsFgpo+T2T+EQyODQzCIqzM23pZpDYAYxSaVrhIm/1TIgx/uWNiJdaeIT4hucFCtwx68TSBWL8RqTvRuA4Cto6kuprPpm4jT92JK4Kapkk6fxqZta2qq7UDTBntgRo6NfgyxZcX+OI++Nx3SjQY4Pm37fBj9/ri28SlDYj9JhXWjrqzhZKTq7DaWcTyksUDU2wo7w1LlpPDjNuzO8ZxlQA98G+if6A47bIm78HGPdS97+WXu7/7uY+75z3+2W7nyVnfppZe6ZcuWjfpMfthm7hB0fKf905/+tLp/6zdfqK88pGbueKAOJ1ObmTvy4bU4+7Q8rtiRdpKk0e8S69X9RDdb6lqq99zLB+qwwwB3kqVbV8TxcX5gw+iO01m/3x6TLkTBzXDOyFMzd2sDpuU9fzuA9jqzR7lNfWLrtXSvxdNtWwj3WRuYH+2O3d32bzOdbUi11dIUb9tHku1rrqICz5vhhsdUm+Mpxh6P2N47b7+jMnOfLLNtJKmbuesFu5wzxRfqus3c5d8kiefMHfkXysx99qyZ+sMx7Y6J9Hb2un8tcXzXdtQX1ROtjjkB4zHOT9ijRUrMLXX9i/Bu/W+pH1/K8PhNASzVA9bDcOTACjXu0X//ez8UvZszarP5gYs7Rf2qq65y+Crc2Wef5c4665Fuz0MPyUm80zxQh1ciyqfl8SEE/eiBlOF/gMCLG9JqC+WE9h+w8OKOvKW4++U3XF3hIzY42SH06NijjzpCLwSqou4PGrgttiu400iqm+L8wIb5ujrTYBtInL5ihzZ3E3cLw9j+uN2pPDG9Dtr2goBAaNqIsm1P3X4B3drdywVAjH3q14IyO+PKerrV2dTm+PgC3Y6xVLxlpGbCbEdq+3js8OKSsG3xNoyWuM+aOV3EvXwWp72IldvUTXz6oWs7TJfb+lP5emlf2+2vO0YRnrKBdfdCXfvj8mO6xZP2Y4ZPF78d4G3fb/SjTmgWwIN48f15iPxIzegHKu5oNEQd32w/++wz3ROf6K9U0Clbt2xxGzZuKmbu6AQINMRZxTyIOwYBCD06FPsGeWU3iYB4cUc+iDhm49v1M4jmJJYZ+7Rp00txnzvXHXn4Et0ByMedXScitivadEtZnj+Y6CZ0WzG32PyWjjLkPwbKWESHY3DpqLsFvV4MkPjk6uyHzu2ra1PbtqbAvkP+eJ+nwgDDu/V/0+CB4zqO///s/Qe8Jcd1HwgXMDMIg0nIeQY5kAApihFMkiXSlqhMK1GWLMnyz9Z+1q53rfXa/ta/lShpvcH253XSyraSrURKzKKYKQaAlCiKQURiQJxBThMQB8DMfOd/QtWputV9+6b37nuv/vedrlOnToWurq5/V3ff+8oLid78lXZNAttnj5rNUOsHQ1eeLviyusj9yBE6r7lcnP3Jf3JyD0TuW8aSOzCM4NK+9h1/mXMmPz/HtmGyrq7Ct6uszx+brvFf2rqOv9nhX/OZpH8mHWPA0Dz+PKudlwm1i/28P6w/yz7C83ms5t/7nvczyX/iE5/gcJGYC7njn7H89E//NK/a3/jGbw9veMO3xgNqVzGHDh0KDzzw0MjK3cidf85QV+7HjlAe6l/JL8/m8BKdvRBD9M6/iARyx8p/E/+cofx05QlE7vjPUpgYtu/YGc464zQqR8ryMoo0kJE+rlt8GWV5JZnX6xOUaV3l2oCLtjzbXOBPtrIdtf7wPuOA48HHkfSufOVJVfOzNpaTZ19butLKfSqPf1+ZOep+w/MLfP2D0ONWa3+5v4Dt6yyYdj+B279xG5E73pY/lWL2tvwyk3uCjL/6vpfjs0QtfdL6Iybr/l74Y9M1Nkpb1/EfNy76+geYdFwNQVeZmHuMuE2flOQN1j92PLGf9sY9VvO/8eu/FZ555tmFr+JnIneQOVbquA1/6aWXhJ/92b+rKbgCSs+5UcUzzxzW/+aDnwSUNCN3ELuRu6zc8RvScuCRF/1o5I4i8Tz9WVq54x8YCLnLPx7Aav3Ek0/mCeLEk04IZ55+RjjhhC1cpz3btjYB9ZOr64COwsoaR+YWt67O29Bdn0/rHmjzg90Z8P3S1z6PLj+/z17vK7VWVm3/+9o2ZB+sPZPC74tB6uhuzxCMI4ROULXdbUqo7a/3QXqZB5ikn2r5+3Abvy2/YHLH2/I0Lxi546tw2085eYTcZ8Nk+91F7mYzvbR5+HROoyaY7yQoywXKsTDJGDDUxsIk7Rs3lpA+abu6ysT84sl9GPpJHijbZ8frMzd8Jrz73X8ctm3btjCSn4nc0VGnnXZqeMtbfjhcdtklvCNWnL/ygc6rckp7jkgZz98Pk2DF/szhZ8LhZ54Rgqcdlx+xwcCik5Jv0SVyR6fwS3UUCrkf4pfy8O8cT9hyQti69WTWd+7Yzqt4e+O9JPauAVYb5ILRg21l1W65p3pG85UY5zOkjBFMmEUmUYG/9W/9hDb0DZOp2uhg5VspXeWV9nEnofnXjnf3sR5F13iZBCjDTmxgSP1T1dvfJWNhfcbHQ49LCWv7PPqlXLmXz9zRnGnI/fCzetHPeTaFk7dulcUBjRn+Ktzcyd0D/eZId0rUxkxfn8f0CcfA0Db2zQEetfO3r901/yHoGp/jMLS+oSTvuY5K11DQR/6P0ji9/vrPhne/671T7cc4TEXuuA2P1/1f8YqXhR/7sR9Wqxx86zhfLHRLw2rd4ibogGgnkn/+CJ10pGOFn54t4r8EyQodgBm33w3WuUgHqSMN5SFuIukyyGoHru9A1GAXDTV4u+loj0dXXo8hPiWsntqLbn0AyXeR+7Qo99mjLDe2G1Kps7QhbsfY1+P9hp6gfai1pQt9k5hHX78YJq03m6Qp69C2eJR9aRhKAJPi9m/gmfsT/H+7qZZI7vnKHe2CNx3PGcgd8wLyG7njR7S02LlDiBb7Mp9+s+M7yTHFuTxknE3aRitz6Pgc1+ZJxvk8MUm9XfOIcUYXuXuU/GJ58Nv2//uv/N/hmmuu4Wfx88LE5N5F7B61CcLifmB4H+jYeRtoIHt8DQ5AGvwh9gM1gJVhccBu+ZsAtcFlHWs+vi3DkMov4e1dPl2otcfbauV1tT36VppQK6skd2AagijRNXkMKdu3pmyvj9f6wNLLfIDtv8/n4z7P0AuEWj0J3Wll2/vLSej1o6S+/h1HFD69PH61vp4Wd9x2R35bHhflVF1J7gL5hbpuct9E5P5cRu4A7gCW5L71pBOpjrRyH9bjwyHjq69/R8+/mq0PY8+fgUV1nZ9dsOPv21obE7V9GdvmHkzSN5P35XDfPgwh+Rrw+/X/4z/8x/xztr/1W7+l1tmw6RcnuNmPZ+wveclLwuWXXxr+7t/9Ke4QE7n9jVWzxE03wc6KPd0ihwAp5C3HkQdEjnIlHL3FbgMFodn4BGYfuYWP8lBWypOLoYwPQe5u+5CXMWmZCwHOu1K0Wb590Tzi5w2TCe7EVMwiA8q2j8RTW0vUJhcD0koxu4ePj6aNl/5DTQ5RpgOOVdmuTpibb+BIG0pbklSP18djqK9cyB8LB/bv5+fjJ598MtvtMZdcXEiH+m5FOkhfqtHz3eYFEiwInn76Kb7It7IQbtmyhcqDz3FcF+4QwAdtKAWwlz+nhZWD/kuyCPjyE6Fx/xV7YH0qZO7zDUPap/EofdM84+vtl5QnIe1fnt7Xtlo5Zf4axqXXMJqnXgb8vOCfnL3gBVeHf/fv/gOnz+M78ROt3NEIEPs//If/gDpHruwtnBYy0AR2wgMIxzUN7YEPQqDm31WG5emCL3dyjF4oDCnL2gpf3+6ueGkvMaROhnMbnMcBk216fDIcsjKjOmnCHfIDLPAb1zqMIbmYFJRjc5JxO6Qvaj7D+7Dfz++Hwd/aq6V7dLaDzDZ+utA1vsr+rcG3sQZf5l133BmeePJJt3LfwmMBz9zHrdypByi+ZaqV+0knbOH3dTysXWW/IDZun0uM76fJyiuPRe3YeZsdv05MVj2jHAslyvTe+gnj02fnlz7M2r4SQ493V7mwX//pG8Kv/dqvh1/4hV+Y+SW7wb2GN+KB/+l/+u+5EThRfDi9yCobYqtzW6EjzlfqTuplTC7jUPrU8naXgwsTvCCYBjv0cWLwOtAVL+0e3W2rAMWoYGJFuZPIEX4ZUnT50aFRn5rggsC+HWGwiwRLszggk36/AD6O1Zms0PALiEeiDaEcoz7J21uT2v4O74N6PQa/HyYetXQvZblRKI2PdS1NxfKX9ZTxmniU5VqZAOsTDNN5YujxhWAM4mLCS7mfBt8HptcF3w6CJFsf0A6PMg74Nvt4FTB3JK0X+Dm7JuN8hgCEbtIP6XAptrvzX/f619IK/qrwqU99Si3TY+JLIuz0Isg2iRC9dViZ7uu09hjM7tPKeB+8fyke3lam5cDJVZ/Ay5OutPfF+8Tg9aGIeShgkoe4sm1CMr0vzYv3gxhML4ncEzrg0/ukrMeL/IxxbvMTa03SsRsnebk1KZHboJtIWpnHbJOI3xf+aWcXZznipEjz+bvq78M4H582rqx5QC4gXZ09+zVEMN6M5L2UZRq8LRe7RT7uYiAXoFaeodRLiYDqoh6Yh/OwPh8ayrSRugr49tRF7ur6c83g9WnRtR8GT9xd4mH73yclamlXE7njEfisGEzuuJJ49atf6VbWsnMWh/iGltKVXl4gWFyenduzdhFfp8/jxeB1wOLet5RpMSzv6FnkB7LHuPissPaW+17dj9Fmx/ZY22OcJh0vBu9Tos9eyriLBplwKc2Fpc8kUptUa+InnySj5Xmp7aMA4Wh6GZ+7YD94X3Lp6utxUkMt3fS+tEWgfHG0rGtI3dxehBJl1MoZV5b4yLgZCoy7GsbV58/3DMhCQjMspYsAZWiwcrwYTPd20ycRD98moGyPR5m3RK18D+OZEpavS4b45IIc+bGC/awzz9TYbOjuoQJ4S/70008vGpcEsE7xYnYLa1Irry5p4JVlGODnYXlXGnaSjUoiABxY0UsfEY9auomHj4/zKdPL0MA+mEycOZKBkxKd9lr5U4gnni4SAsFPSvKGWpoXQ0n2EH+cIfY7D6V4e74/8ijBp5k+ieRlit5nO4oVfuUux1ABanaIobT5NMCnzQv5HNBftm9XqXsbYHEbZzX4fKW/t4lvmhc8vI/BxprB60AtT802AiRXXPz8W4Ofa31/zzr/dtXXh1qdvn011LjEyzgM8fFIZUMXQcefccbpK7tyx9t7+J+16QDnO16KwXdWF8Z1qkm+yk8DDWJlQHweg7d5u0fp0yU1lPYuvzrqZ9O4E7HWnq56B53UhJpPVma9qZ0oV0hAX9+U7bQ4C0izEPPxsLjPa5Opn4B9ukmX3aQLpZ9NvF6M6P17ALD7uNgsDe8GPM9y7FhKh5i/z1dKukCoS286E/1onV6kffDx+w3fFPeS/FOZsPv+K8G27uHikPL6cnz506KrXVU7SUncbHdxtqmwH3uITx6mPvJpphtsfHnd22ooyzBkx4aO5STn+iKAuX1S1PpoXrA5tyZd8GlD/G+59auqzYbBPfdP/sn/wr+LKwSPxiViBfoaOwRdA7Es1zrGi9hTW7ouFCZBbXDMc9Bgf8uyMDHibLJVlJ1ZXXXW2mO2LumbfD0sXkubBEbAHrW6fD0+7omcf72QBLDQp5fShXLyHSpAzQ4p0+wY+v7Gc2//7F+egyexdAj+MZKPixixShk+XIRgjB55nnQV1FVvbyL8jBwKMcLxdQjSsUIdJUpbzacP3h86C8aI6SzSxq59KS9i+sQAzcYa/yvrilBD0KgxYxL9lNvQ/z7eZfN9DfFpdhy9bVQoHT7s50X2c9R/9NjUbEPh6/TxISjbY/FSDCUHlemLBH51FYKfaH/nO94T/uOv/kdNmR6Dvwp34MBj4Qd+4PvDTTfdEv7lv/zfY0dYdun0VNSknVJ2bA195ft2ACgPJF8rd9K2eQzN29U+g7XPUGunT6dDpaEAJyXuZBiGXLxYGya90AEm7TNMZhisBlvBd9Xty/fEbCTeB9Tj/Xy9kyLvc0FXm0v7pH0EdOXx46NWP/LhYlbCevvmiaydWp2v1/S+tlgZvqz77r03PPH4E2HXqadSXvzqpH4V7tjzePrLNhauVL4KJ1+9RO7j3Vfh8DU3/ELdc+HRRx4Oz+o/lEJdeF/n5JO3cl58Fx7/tXIL2eRXMdN8AWT7qSj3KR2X8eOsRkQ2vsuxxsdTdSD2KYm1S2z4Wlz+FbFaPZbedUz6jpWhej6QDe1BfguBsu98+WVdPl8fhvRxF4aUbyh9R49Nik9SbomuvDZn/dIv/Yuwmcbtu979znDpJZezbVpM1HM/9ENv5tX7e9/7J/xSGzpglh0FaqTWBdRl9Znu4xKm2/QWluLzdomUNbpv49INfWl+n6HX+gAnq6WJyFW2CeB1nCzlyQWY3dLgn1YmKW2cWF1DhevCPqjwSglSKZtF09Eunw+o+jvh8ov4UJF/M5xC/LdBiO/7rpWPF+yzj5d5fBwi/zSpW/Draabj+9g+DYJ+wj9d8n6liE/SJ5He/LirwHcWktT8/HiweFkudQ2LHeeVgrXJjgfqhs2On5fSbuMC5+g4MfjxhL0sBYA/Zg0TMrDkPlKv6KP1eCQ/afc04tsd20+CBnHoyu+DL3ORsPm5Nv/6tFImgd8XL7PilltuJflq+Im//WPUJjXOgIlW7p/40w/xD0787b/99/ih/z/7Z/8z/+MYQE6QNJhKzGPnAQyuGqz8sh7E7eBN0gbsCy4OyhOnrH9cmbV2mY521fJbHbgQ6UdKHzJArS5MVgBW/jV9VmRlabNsdd23qkZ6ib5+m/Sk9PDl1sozvasGv6LAcRodF/W+tHrLEPC6x7j9zNtf9x1XRgkrz7czryeHf7eiTLd8viwLH3n4EV65n8rzCH7E5gQk0FiYYuV+PK3cn+1eufMv2ZGOlTsdML64MFibAOi1fTCYXvpMC3+eQ/NjC0gtE0xaa1leiXH70ZWezU9erfhP2lfj2gwMLXOoXznfTt7m8f5dPu9613vDO/7o3eE9f/wO/gXFy2jVfsnFK7hyR8Mg/9f/9ct8Avwf/8e/Co89tp86xb4eJ/+5zfz8jnhbmTYJugjPyivr8IJ2lnETbxcxG8IkqN/LaL7h0gVftqHuj9O+PPXzPpgVOM6l1OwettIB7CofxA0bwi7x5dXEUEuDoF6ruyaW3uVjdl9HemZa+qZnslgBmp4k95c8Yi9DWz3iAsH0ScSezyO0l9ZQtonV5eMm3l6KX32bb1cerOT5TXvoLl8tHt/ILy6IVhJZe0hkFZ/uOCD0/VQTy1tLGyIGf2EITc6FdHGIs9ifyebDugtt3JXwZdVQa5OHT+/y6ZiKJoKfZ7swbm7z6aWfn7dr4uHzAWWZNelCzQeLHAiesf/KL/+fTOxv/eX/beY+9Jho5f6pT36UV+64TXj//feHG274s/AXf/GF8LrXvTp83/d/D0YBH3wM1rLY2gAbWPUIuvKVq6dxsANay+frGN2Xmn/9BMpOXM3XV7ZHOWDgC1stj/cVHwvzuvrqw0Q1FNaWLlh6tb7ubBE+X1lGZ7ljUMtT7oOPWz1ms/z2s7mGsgzAfH2dpc3GRs23C7W6uiC+yb+cwErUz4PRMVGbfOGX2akqWWEfiyFQlrefFgeP08pd7gAeCyeccCKcyH/ylftxtHJ/1q3c8QweqK3cnzt8OFu512B9jYv/GspjMeTY9OUZJRipt6vU2mjxvn0k6TGu3WX6OCJkkGl8ubO1r8veNc7HtcdjEt8S4/La3Uvchv+lX/o/wplnnhl+4a3/PJx9ztk0/k8IJ514Yrji8ivDRXsuZb9pMRG5X//pj0Vyf/bZZ1ne994PhA9/5ON8m/7v/b2/E6648nKZpLTYcgLz6CLELvQ1deBuDEI5yfmyy3rG7VdfWcAk7YYvBk4tjx9Q5iOhGgmWr6vOGrl3+fah1sZq3dpk33agq06z18o3TLoanPSregbvU5K9B9ppbfVt7iN2P36GToAe1j++jaJL3E9+fnxOej56+PYbuE6tKu5ncXwOHDgQnnjiyYzc+c3scGSu5H7SSSdLXtJ37dwZDj/zdFyde1ifIfT95wG7719P/l15DD69S+8ip/KR1miPJ6QxKWFfu8a1uas9QC1vZqtknWRMl+XPu60efek+rTbWgTJ/1yPIRx59NHzyk5/m1frrv+V14Wf/u7/H4xJ3v0HuJ590Urj8sitWntyffOqpjNyfeeYZ/h/K//k//Va48667M5IHjDDKk7qr2nETzLjm1tLLAzPuIPsyJiXn0Xi+P+WkDpg+Sbv6UCvH8kqYJqeyzKGr97621MpFvDNP/25HWP5a+YaVInfA/Ly/ab59ft+7xlO5Pxg3fZPguHSPcn8snx+bZf2TYJK83her+ccPHaqu3BdF7vy2/K5d4cknHo8rd/SH708jxnHf8ADKMdDlaxcAPr1LN5S2krjKHLwfqgNlfunDUbuhy16iRqBD2j/SYIeusTyyDz1tHOmfDt++MgxDfLpQI3WMpYcffiSSOnjy+3/g+8K3/LXX89jFPznCON1M4aqQ+w3Xfzyu3I3gjdwRf+zRx8K73v3H4e67942QPKqxqvwEXFZfkmGJcc2tpfsDhfTywNXylJOwYbS9KZ7rsh+1crrK6Gpn6Q9Yei2t3D+D9xU99/PEXit3CLraZfGx5dabPgiTEjtQI/cauvq0y047qkraZz8WfD/U+qSPvMedI0ZWBovXyht7PMagtm+GGgmwH5ktH8i9XLlTIt+W30TtRfey8MCYntxPJHLHv442cse/msWP9Hj4Y1kSe9exANCerguBrEz4uXiN8D36ygIQRz/axYjvb3SPb7PPayRvGFq/YWpyN3SZK308SdvmQe59aUPgid3GBEgdhA5iP5148dWvuS78ABE7HhMxoS8LudvKHXL48GGWZ56R51d4qeb5I8+H/fsPhve97wNh795+kgdwsqMLzDZu4jIMbHYnkB8HslbOJITsYTa/D0PKqgE+NtC66upqv9nLgep9a/lqbTXU/IGyntJvXJ01cJmVCcQDRO59SmK3Z7012PPfrvQSXW2x/e46DmYr21b6Rr+BY7+GWv3jkI53dz/YhDnN2ADKvsn0cJRW0E/GlTu6M7stTwYmTrLPm9wfefhh2qe8v/3xBGx8WLyEJ3QjpnJM5T55eQi7nucD5ufhbWV6lkaCY4duKknT/DzJ1+oydKXNTKaFeaXIHZi4rQNQrthx+z2S+ukg9VeF7/3+72E/HHd+B4RCT+74nQc8c191cvcrd5D788/Jd1jxJife3j144GB4//s/FPbuu4dJHi/eXXXVleHKq66IJzlCP3GY3bp43IQHfxyQgbsR0effR8h9+ZLPMHLvazfs5UDrq7tEmb/M21WWtXdcXUPaMrTOEubH7S/OtdrqHBPoJKt2I3fAT8beDpQTtcHqQzjuGNUuOspSLc8k5N7Xl31jzlDLL/tS3+eu+vrabJO197FyrI1PP/0Ur9zxVThQUXZbntoD4WaRO8Lx5P4skfsjY8n9oQcf5DnLH2MjYgBtt2NrYTke/LH3JG4oCd/GS1muz+NRI/68/DxfLW2TtsuOXo3o8amhr3xgEjIFRsvTO0q0nxy6tnnfceUaVovcPak/TGPvU5+8Ptx661fDzTffSqR+WnjTd31neM1rX83Hn0md/I3cMTZtxW7hiSeeEK64bIVfqKuRe7ly56+T8FdxZIXOV8dUww2f+TP+dbuDBw8x0b+WdhZkfxrtvEH8i+aMaV45KAxm9xMLgDpwAMvdLuNoBwZL2Z7SD/C20XL7J+yR/XWo1Q/U2lACPn6gjrarXobZ+9oFDGkDMM5vaLsYE5x3Rr4ek1wAdKEss6+Pga46Pcn7fH3jxfxq4xewY5aXN2oDavnLia3m4zFujPjJ1vv6cp955mleuYPc4V6SO0rgcigLmscTIk2MUtz05P7gAw+4Z+6pnTkRy7yC9LJvgOjr0vz4yOyY0M2fy05l1soGSrsn+7zsvByfZsfAE1B51LKy3EkGO45Vll4p2+DTDKWtNlcbynMLqJVZwubJIe0x+LQhdXiUK3QjdPsRmtNOOy284pUvD2/67u/g/eWviVOI/Vtz5G7P3I3c+XvL1Nkgdi4ef1rNgYMHw8033cpkD2AlD5J/zWuv4zgA37JZtYkEhwR+fQfHl9M1cZZ1lXFD1wTlMbQswzjyr6HWFyWGts/Dp9X9cBKl9o7btyEoyxhSJqZ+AMcd/nb8J2nPpORfm3gMffX7enz55V0CyqxBPh7G7VPXmCx1i5e3omHvOn8kT0rzZY5DWabP6/Vnnz3cv3InH+4/yoIiu8gdEyN+xGYsudPEiq/CzZPcAaTX+tKOvdlLkucwpvWTKfQawXeFRnYlocIKn/6jqRcgGgOsXABl+zhQxoGRuis+HjHduZWkPQ5D2uUxLt3gSR3P0T/1KU/op4aXveJl4fLLL2NBmSx0vDBeEWI/uskdIV2kLiO5d63cWYpJDTt54MDBcOjQIV7Nf+UrN/Nq/uqrr2SyP/PMMwJu3XuUk5LBmt93eEoyrO3ykEnV21Am9qNGtLW8Bp+Gg+/jZT5LR2joK9tQu2CotROoldfXJkHe7j7guPkJqUSNbGqotQmTI/SyH6fBuPz+GEyCWvtqJD9Sf+UYmk/X/toxtjQfmj5pfyNM9U3eBzYW7XwxHUAc80jfyh0jZ5HkXh5XrLIA+FmahZ7MPSzd+qpEjeCBPpI3QLd4SeylP0LrY8DqsfQSqJ+Pa0e6QElKY4DVUZab2pHaafC+Xe0x+H1AxeP8gVrf9+WrpZUr8i782q/9Oj9Hx5h92cteynefX/HKl6GnuFwIjhXrIHELab+WltyvJ3J/ypM7kfphuvIuyR0TCCYthFy8q8HIHSe4dcTjjz8e7t67L+y9e1/4q7+6kf1A8FcRwV999VXhtbSyB3xT+5ptaXb4LN5FcEB/eWlCNL8+f6CvLo+yHB9H3yCO0DCuXqDLp0b6Hr7NVkZ3WbB3nzyTwNdRko+hqx0G0MG0KMu2uO93j9pxqaGrXKB3FU+IbeCtYNzxszw4jqYjNAGsf326odSHjuE++HrKcYw4fhvfr9xPPPEkJJK2eiv3RLY6Qbt0wEgZ4PlM46Z7G+DzW9mA2Wtkn9Jy3Qi+TJe0vDyD9/VAvDwuHjZP+5BySSIhtjeG9XoNtXqszTVU29XtnqGWt7TVyNwfn4cfeiQ89PDD4Zabb6VV+g20Wn+Y7Zdeekm4+NKLw9/4G29EofijZvnjkMYNykM9Y8kdIRH7miF3FM3F40+rwdYGS+qM1Cl4Jn/o0OPhrrvuDnfeCZF/Wg+yx8r+ta99Tbjq6nxVX+5CZ7ywd01eZX5DjeRLdNkNvk7rB49x+Q3wQ5/VMG3bAL+Ptf7pLiNvy9D98KjlKW1d5A+wb71LBsHqsrCrfyeBb3+mF33riaETlbQa4aMeO3bQvXSRuw99XgPqweTt6ysn8xrK8kugPCN3Oh3mu3KnONxA6iB3+4nsnbt2hofuv5//QRDgjzPPQyQ2yWMfpx0HZT4jQ4Olp7owD2LyT3ax+XTRjUC8bkRpx8XSAa8DZdxgZXRjtMzY3kq9QBnvq6OrXRE9ybW8XeWVxG7H4OGHHqZV+fX8P9VB6sCpp54avvllL2FSh1Ch3AyUDdJGFbBwvBQqd92Tu4EnMdpJmK0DEJdQO4F0MnCIZ/R3EcnfccddYf/+AxTeyURvt/Gxsi9v4QO2W373sl31OqFGZIa8jHwyzcqsYFz6NORuPuizGmZpU7l/Xf3SXUa9TR6T7KOhK0+N7Nl3fDNGMKRdk6BrH0pir6GL5H2Z5S7asYPPJOTudeQTW/LDODOfPsh4lFZ5fymvnh9ZFkfumyjbcVVyv//ee2m+0pU75h1uO+qQuQjwJGvwFzTWR97mYeUYyjiAOmLdWo+0QcrkdJ0fvXCathshIDrS8/aYv4WA1w19pDuK1A4LPWGW5U9TXy1PhiK55u9tNULvIvOXEpljyL7hjd+GQqQqDXm8cJS2sCHAh/VCqI6M3ElnYoc4cmeCX8vkbhVhJ61WdIAMSBmkRu4p1E4iAUDwdxLR3377neEv//KLbDOyl9X9VfydQr+6t130u1rapPQ6meX5RskE8D419KX7OseVMylmaRcwlOxLoFgcs0n3p+bvbV3leZIf8dGDa2Oor019aR7ez5fbtc/eNoTcS9TIPmuDhiXBm48ndehmR2gC1Mi9Bthtv3Mkm+VF6I8PYGkg3pUl9+OJ3HeFe/fu43eDDDbn2D6VIdK7wO1zGLqCBbhetdtcxzpIAGnOxvNjoZsA/n0BCWUsWrr3raEkW8tfgy8H9Vk90C2lVldpszox7sr6S9TK8xg9Dnn80UceDTff8lX+T4Q5me8K3/zSb6YMROZvEDIHYm6Ks16EXD50BPiwXgi1aUOSu3UA4hJqJ3CnyCCxwR0FVgq5AAVIHmSP/1CHlT1ghA953eteG668Kv/3ebbbfvfLrkD9RmZlmqGL7A1d+Qxl+hDyHGkn+sNh0jqB8XnqXy3sgp2ssj95+/pQtmPSOFASSURHM/r2vZbW598Fn8fIvZyMulC7hd8JSisJHjBCt3aUcdPhn2ypH2HDOLO08ZB9S+WmNhmgbyFirr0tH0DumAtI437SbJs2z4fc9919d2wT9svIG/MOhxYvwhKe9O14enL1sHiWx+mY7AHk98RuPl7nuVLjJkaOtfpN97YSlt8AXxwjHwJeB1I62iR1A34/DT4fYHXafNGHMi+Q2VSFDQT+EMlXb/0aEfqt4VYidQPI/OJLLg5/8wffHPNkbVU9WijOehFy3dAR4MN6IbRPk5D7FhL8vvzK/+OYFSb36gBHtyLOMYHtArb4L1OPPXYg7D+wP9x+2x200gfhy3N7fysfur+d77uhptsk6esFvG8NNTLsyzOuPGDIiWDtraFWx5B6h2BIOeN8am33ebrym72vfIyjvnT7V5qGmm9f/hLwLes02yQYV6e/AGDyV3+MP+S1PvUka2Ua0QNmtzjgj4e3lxjdT19XyuvbYCv3XTThYkivFLnfd889PGdxKZhPyA7YcUHoj1GNqAAjdKAkVQvLvL5cm99Y1/zlvJfSZY40vUxHHwAWt9BQxkuUcwr8cYx86DEal7YZynitD/vmsXH1AbA9QscbRA4Cx4q8JPKLLr6Ib7VffMlF4RIidYGWpUHeNtLlT0BppnMbNB51BPiwXgjtn5C7HLsRcqcxih9m2vDkDuFCoEtRGaR8qtNPRvTBb97vP3CQif8LX/hSJHvACB+4Sr+GZz+VW8K6CiHaVnbdJIRaI31D6TsN+soYR57zBMrl46a6oHb0BGW/lO0q215r9yT7gvGB9nXlqd1C9xcAyNeXvwbLMwS+3LKOWr0Wt3bbKp/tjuijH4Ve98TrQ0MZr8H7WF1lecnn2OLJndJOOOkkJnn02S6a6B+47z6eqwA7Fj60ucdQEpVHmd+IwuIGK8/bUW70d+le0A9mL0NJtzhWzmLzKON9hGoo8+B4eVuud/3CnPjY/nl0tcHKLes34Cdd8etveJMdpI632A0g8l27QOJ7eGUOUkcp9bLUpkHeRtLlT0BppnNZGo86AnxYL4T2cyJyp7F8wpbVJPdnidyfXx1yx4cU7tyy6RKjrTNTC7I2GGCjYsIf/uG7eXWP793jtj4AwgdK0q+9uAfEdhTt8Sjb2nUhUPoNhT+5ahcOXeVOW98syPcdRzKHb1PZvnHkD3T1LVBOKiO+lDykr0ba1VPnLCjvJIxD2UaLs05trK3qAesH7+9DQxk34JzH+YvQ+0A3AXx/w2ZfhfPkTrMDpSVy51Nex0lJ7vi625YTtkRyP0zk/hjInUL8G80auWPlDh97oc6QyLVOkjWS8vD+Nm+x7kgPsHJSfeKb/CXk+bBiT+lIS8RfSy9hadMi1VESeULZT7afgtF2ApkH2fGrb57EbWVuwHjBLw2CwLEiv5jCBK1D/qrIjsmIX5GXyjI9lYuN1CMm0wuhfS/JHdyGMdzIXdOiWKdqWR5SPtXpJ5CycoLtMhWjEMXIHc/tsbpHHP9v2uwgeADfv0dbQPpnnHHGyFfzIrSesotrXV6zAX1E1YWusjxqJIl9MvgyvH1SlOUC9fbV6y73v8xbLwv2yd4RAGpl2cq3RM23qy198Hlq/dxXZl+/ppW77D/SLN10+HibhKOE72FpJcpyAOj9dwKOC888g9+Wf6pK7jwhwov20874eZH7oQP7ac7K/yscgPRIvhaiYQV839s+eRuA8eeJzsrxftBjPRoaqQNluidslF/zK0nd7ONQ8zMStPPJ4H1jf2VtU1u1TNjkdjoA0sYvvuGWOp6VQzfsomOFsXHRRXs4DiIXHfubysqr0QjSRWPkbXF64WeGaKN8pnMZ/IeN9DnSOKwJ9Ukjdw7nQ+6xIgK1IGuDBxWjQHtkJQ89bskAO27nwwDCx3P8x2ilj7f2S9LHih86nulb3Fb7sSoCt0fhdUOXDfvv9ZofMOSCoCuvoTyZF4VR8k37WENpn4SAaqj5cpv8AStQW6V3XQTUMGn7aseazwW127gAvJ/pMdR221visHN+2I7USXj0+OQwP4MdD19O6ePjTzzx+FTkfoTqOe44IvQpyf2pxx/nR4se1o9pzknj35N0idqxt7nLI5bvypJ6JF6SuoUp3WzSrtInJ/6ke9TstfO8K7/vB9s/8/V5TH/kkUc5vPWWr0UyL19wA3bt2slEDuLGVxU9odPeYcPtTFVgn1XNdED7TP464FJG/MQQbVSW6alcbKQepHFYE+qjSO4UGsf1kTv+M9yVl1+1ROSu/xFu7uTOuoYQ61Qty0PKT/UB1AJTImyXqRiFKBJXnTdpUl4u/lIAAL7USURBVE1Jku6Bdn34Qx8Vwifiv40uADyM/O02v31d78wz5W1+j/JwlHGPrrSafRzhIw/2w3QP2H06UKvDpw9BrQyDXFzQ5KwXGZ5kavm6yhqy3yU62+V2r0Z6NdI39JG/1dfV/zUM7Wsry4d+VW92v8L2+2HpHnVbfnxKkvfwtkOHDg4jd+wvZRtC7njm/lwfue/cFZ55+kmexzwSWaWFhaGvv2v7GNtcoLQhjnnPdEv3YU7aiYhL/0T+yR/w8TK/hyduj75+QBwEDjHCrt1GB3bu3EkZQtizZzeTOeIImcSpHHzkrx6yxiFQ6j4OaISCzJyhy0cM0cZtM1U0DrVOpEr9FaG+a+TO4cqQu4GKUZgCJ9F5mxw0Hjfd0O589LHHuLjb8dU8Cm+7nVb87ra/oVz141Y/gH+mYxhyiLxPn/+QsoBxpDhvoF04voa8nd5eIdUJ97dr38b2jTaj9Jsn0U+CrsnYw+rybYZucbTTk7xPY3hd4fsv81VIGTnZG8q+P3BgfyR3kDrInU53yjMduT9z+HB47NFHe8l9x44dNHcd5jnLI5Kjhdq/flwavK3WB315DZ7ULSzzydyY+wF1v9zmiRzw+cuLF8CnlwB542tlthKv3UIHdu7cwaS9e8+FHN+9W0IQetY+1C8RF8KOv3qIjR0jtpoqiS4OaISCzJyhy0cM0WZtZFW0uA/sh7BDqL1rj9zxtjydQPyPY4jgn39OiH1mcucOQKesPLlLXHXeiI59SEli60ZeP4A2lKshvrWPr+xRiO/oI9V+ga+EEb+t8tNt/zPi6n/cYSzTJ/UfB0za6cSbHMMuJuQOQokhhN+3P+Pq7srLdrfLtXYY/PHHuTGEmD18HtPLydlQ1uVh+zISUp6S5D18HLWW6QbrS5+e63kfPfroY0Tu8kLdPMkd8xImS0/u+CocygG5Hz0ijxGz/dL+zUJRo20IjLSBvny1+uwcKgm9DIHkm0Kfrxxjfrwg3YgaIX6pDccCwO+pP/Iw2RCqjwHkjf7bwSQuRI7wwgsv4PTavtdDtJW2mPPFCAvMnSFrHAK5ztsYBzRCQWbOkHxcQJBMMc5tM1U0DmFnP4QdgjHcS+4kNE4buUPQzRyOQspP9QHzIHcgJSVbHVK/71Zug6s/9gtSot10MWCVD7JPsp8uCA5yGl7yg83DiN8uAs4880wOcQEAXFX8iE8frO1+H7pQ88FxmhRD6gISEac6+vIOIf4S49L9xUAcXwXKMvqIfwhAvjY5e90D505Zj/n60GDnqAF6Fne+Bv/2PlpQ66uuMrN+UxsIpOttebR3UeSOueV5msN8W8txmxGV6+/a+K7ZDEizerxfH5GXfqXN8hgszQid7xwSsLq+9davi/4orbQfwi30UdIGQNLA9h3bw+4LZcW9g3QQ+YUUd9VHiC21zYc1WwqRzhEeRxKSxn/1kDUOgVznbYwDGqEgM2dIPi4gSKYYtzayKhqHsLMfwg7BGKZjZeEouZcr9y1M8KtG7s8SuePEWCy5a6doB5kvPqTEzvaQ8lN9ALXAlBFQMQpRJK46b6LDSLwbef0AT4i+Ta7Lk46+kpBBgZ9IkehyCbmTAV/he5QuBNA3d+g/2UEa7OUFAFBeBIguFwKA3Q04/fTTON6FgcNmMIaW1+Wnj4w70ZUPZFgjxRK1/N4WiasYIl35cLyGoKvdQFcZfXkMfn+NxG2V7/N3leXttVakFbzUY/4Ivf4YkdB+umg1ct+y5QQqDz5HaeLT85w2vK+UbXpyP5F9UA7I/UTKg9vyfj9K+P6NOgVGyoYuoq3B0hBaObV6yjLRTwDIGsQMPyNofG0MK20Az7trq20ApL1zh6y0ASPuXbT63k594prRi7y9vGUdyC6I4r5oOoXQJE66RCQ3h6TxXz1kjUMg13kb44BGKMjMGZKPCwTWLqCi8z5AR4AP6xVh7hJOE5IXgs/IncYlCL6RO7qWw1FI+ak+IFKisxmoGIUoEledN9FhJN6NvH6A2+Bs6B9D6n70lYQMzuIyoS9V1cQ8r2p1oOxj4UtfupEJfz+t/AFMqkg7cOBQ9UIAwEUA8o67GLD4LEj7IyjjJfL0+rEZVwZICOPNryr7MNrG2rEkFM2prYKHwAi3hvK2q6ErD/zLNN/mWl/VLnrG7UutTB964sdFKJ7b+tvyVAGngdxJ4fNfMsyP3LedsjW+UGf7WBKqB/IZbE7CuDH4dI+aHfXgd84BkDFuh4OgDYiDrGtE7YH9kJBIm0h6+/btXN91172SrNRZxf5YS1KTSHHN69qHPkgWmZslnsoYsVEITeLIk2wSksZ/9ZA1DoFc522MAxqhIDNnSD4uEFi7gIrO+wAdAT6sV4TGSCN3DjcGufsuTzr6SkIGBX0rdxch+LQaUPaoh98bpBrB2w/6oL9xAWB2/Mof0HVXAMBFgCFdDNhLg7gQ6E/3qBFLCewX2pnvn+xZbZ9L1PP3o+Y7cnGgnVv61vapJJUh+z0v+Pb1kXbtgqG3zzr2G/1k+RDicdMDDzwUyf3EE+UX6o4exT+O0W5EiHOP7JgE5SIFCZggc3K3t+UxN8FGGTk8kW/LC7njK1fbt20NR4+kdwyGgttBAOlinqqtog2PPPJYRuIS1sk6EvX2bRIyWatOaTt2QJcLE1t5A9YepFlnIWBzTBP4mOQjyV0GIdUJnbesA3ma6NFGITSrWwKdyzkkjf/qIWscArnO2xgHNEJBZs6QfFwgsHYxXF1q532AjoDTRWDA+LT4MHKnkIgd5M4ET3LVlVevB3JHXEg8I/cYtw5SQddyOAopP9UHRNpzNgMVoxBF4qrzxulAytCDvH6A2+BsvsuTjr6SkEFBbDtAiSmWfDigidN5VlBP9XvDHrE8KP0lamPjpH/XXXuZ9AG+INC7A8D+A4c4xLsCgNwxqKNO/mdqaBcB+V0CH69fKIwet2kJ1B87j/oxTejK54FxXhKsJ9WulfosmJi0FX39l/VFsT84t9PK/RjNH8+GJ596ksPnaB45iUiYEoh4j9DphnU3wXab7CW586RIq50aucvKnVb7lPbMM4dpMt0UTj75pHA6XUiAZFH/w45sjYABEDMwlJwNnnjxshlW1awTKeMMRtfsJBu+Fsu7AAOOK4X+DMdcx4DJdYKYNY2QxVVHwPmtDIeahccd1R/rnACcw+cj1WbnWB6F5pdC+iBS2OSvHrLGIeB1YDRuyO0lKFHT8+wSs20sgxSo1r8ccLoIDP3kDl4jQnfkjtCIvZE7h6OQ8lN9QDxhnM1AxShEkbjqvHE6kDL0IK8f4DY4m+/ypKOvJGRQENsOUGKKJR9B5lkByh718HvDqZlLf4na2Co54DiNy+8JPn9MQGONQvwff4PZ2U+LtbsIQ1C7YADsogEw+5vf/P0cToKS6Gp9nWHIMCKU5Ui/zgcoG+WNa+vYdGLZ2kWJoRwfPDLUZv2GH9DBOX/kCMbpUZ5Dnj38DJ9umGeef15un+PrbZ/69GepELwjQeOExojMC8frhaPsD4gY6YcOyUXlUOC3yQ2nnSbvnGCVTy2l8FQNd3G7sIJGHbt2ITzGRI62250JFp0HkS/aYhoJKrABDZvpHjDxYZdjL0NAdAD9FuOaFlPFOcPoBSLFR90Gg7P6Mrk4icfxSqH5pZA+iBQ2+auHrHEIeB0YjRtyewlK1PQ8u8RsG8sgBSrvm9NNYBtH7kzoy0zu9rY8vi86hNx9Jeub3AlFl3IbyjbFOPooDxnsEp0o4mPJJyHzLjCaUtsT9qKNDInu0hhuH+ueY/KPQzV7vo9opxB/suL9AaAkf1wwcKgXDch74GCa/C0dmOTCYRzswkL6NMFfcAxF+dgCwDlhZUMfirI9Hl2r054sDLyF7TFulTsNTjsNJCsY1Y+LNts/kDR6Bf9S1oA0/JcwuJx2mhA6vGVWsfMwlYGwJuIr7xCA2EudNtk8aHYmdoRSeAw7T0q2S2JS1ZmCOBuqPRK4xj3yGOAso4mDkI07Uq090U4ha0XI6ZkNcfzlIWsWSiA6h4bReASpWVIGTSl9tDDbxrJJgerbDt0EtkbuZJAOaOQu7ilksEt0ooiPJZ+EzLvAaEptT9grunaXxtB9jJOUA47T2PwdiMOxmr2yj5lhXHoHtDNSn7jeUZXJn3Rpn4w/uVBwvgR+F8GNE2iPFe8ndD+W6G+sPd5YGLT6XafupK3sQ7Z3+a4qxOhXvVKQ2E+DnVWJo/9yX4GRsLpRvlP5vAeMrDA3iAJd5wKP8vxMzYjHLek52KKbOARVQegl2UYJfRZyVy0HTLy/su+8B2kjaU53sRj3yGOAs4wmDoKc7wpSrQXRzsdqNOT0zIY4/vKQNQslEJ1Dw2g8gtQsKYOmlD5amG1j2aRA9W3nsagCWyN3MkgHrDa5p5J8XFSnAxofi6JLOeZs3KYYRR9JKH+a4HWAnFIs+SRIJDNFjFpre8Je0bVeUgKlq0vdc1z+ARgpQgxmtrGVkPWYYMRQgXZG6hPXO1labk+xpKFNQ4eJhxseDm5/ivTxu9XViMLO0dKX4vKnyCKk0vlLH5yPvL9Zup6bHXHLa7C8KMsAjclMTXElagYKzF9LF7Ca4lwXOjaaRGFbAbboxpLND6GXZNN5roPc7ba85SvJnQcK4qiY/6TsCIuW++XjFMQ+ULvGYrzEEAujw1zCHzsgHhuzU8haEXJ6ZkMcf3nImoUSFDpgPh5qoGAkKaLLRwxmK/fFtx16jJNUyR128FkXuW/axO+OzJPc89d0GxrWEOIJtIIyDrU860LwqdlJ4kX4QOGJrZAy3cc9arY+1HytjGnFo5Y+VBoaImg88AUf4QguCklmxRTkjgZ4mRTj8gwpc5p6+zFyqq3aubeIiosJScMSq7bLawgLm6SrxSzvEbH99mHsD6ePF+xlbhtBX9oApLKTbkhppfSlJckwz6lrmimuzNNRxqgZFhOHjvxDMXn2SXLM2LgK+kqcR239ZUjqPEjd0FbuDQ0zojbpbxSx/Z8WZXk1WQQWWXbDSmB9Hrv0CGf2y4k1Su7tpGxoWAYYQRpZIpr08dIwR7TuXMOg84G2f/rxT4TvedP3r9Jt+doFxTzuWUyEFa9wshOn8J3XOTeknHnVNTtWpyXLs/8bB6twNs4fnTuxhvZugqZ2uyLFJFe7MdahGz1ZR5O8ZYI6Z2jefNHfkIceejj8+3/7HzU2O9pt+YaGhoaGhhkw6/UD/uXuz/69f8D/fQ/YOLflF3HlNcclHoqapLhOX58wx/YB1sZxxaY7pXNuQMMawuKWOlzyrMUPzB+/WjbGf6bmTJJ5qO8iyqxgfFZ4qNdU9VimeuapinQo8/fxYXdSV8qsrZsMv/gLv8z/E/9H3/KDapkdbeXe0NDQ0LD2sQbXI+9657vDj/3IT4Qf//G3hB/64b85lxW7YanJfWWvncahPnIGj6dFDLyBZa7BMT8/zGHnN3T/LRiTneOj3plluSaMArXGVWyd+zB853LP4fm6MaaMrmSzT9yEMgPFh5QxcT2rB/z/g5//H/8XIvf3hOte/cr4cqlx+zxeNm0r94aGhoaGhhUA/svgb/7Gb4d//PP/NJx00onhH/38PwzXXfcqTQW5C7vjh5xmRSP3hoaGhoaGBeP97/tA+Gf/5J+HG2+8KfzQD7+Zb8MvEhuW3NfzrVa/byuxn8vTl+v5qK48uu9yUsrgW6Cl49CMk9QxI3rqmaUJK9X8HJPVCu+ajKJuBbpTCgx27MZkRUzgPVXbxmd67NHHwgfe/4Hw3/39nwuf/vT1fAv+Z37mp8IFF1ygHotDW7k3NDQ0LBpzILZhaBe4q43HHnssfPADHwq/8L/9Uvjf/vlbw/Wf/kx41XWvCD/zd34yvOpVr1SvxWMpyN3G/YqN/zkAp1D3abSAEywrclj507ai/XBYw9rF6s0i3TXP2KYie/8L1aWzhhMC2UwipiyrH/qFRdpY8amaOVboyl8U9hOpf/iDHw5v/YVfCTfc8Nlw+eWXhZ/+mZ8Mf+dn/na4rkLqi/6FxrZyb2hoaGhomAKP7d8fPvzhj4b//Zf+Rfjlt/6L8JnP/Fl45ateHv7O3yFCp9X6zh3b1XPlMSG59137LPq6qB/zrH0u11OrvPodrb4txxtWB5OemzX/7jL6S4+pAxthbgPd54tVqXQ80Cxp2qwNHJDfXMpwLGZt23DsJ0L/yIc/Fv7xP/qn4V/88v8Z/uyzf86r9J/6Oz8RfvqnfyK88pUvZ79pvrM+z9X8cdSAQS04cOCxcP31HwtPPflUePa558JzJM8++2x49vCz4fDhw+H5558PR44cJTnCP3p/lIpF0Vy8/CmO8Wv+MGNHsC/H4X86Q9cw/j9ns7OuIUiK//JO8OW7CKkacTaAilKIwlvdeD2pohvymCCrouhWbkc0oV9UjboYcj06EUiXP4Vq0ZBSujHER+DbUQelueS6Z1/+ARjJLobMXPHpyNYNPZjpmLqjS+pEdkIxVAaBm1hpZ9f4HbdLZZsSCjtHK766E36bB7TVOJR8n/vjfIb1xAGJln5pm9tLJxf3qSNpAn+a2Xk6EpLTqOD/btd1hJgHYzymObGyLSRbJ4q2exLwuvk5CxxUmQ1SdL2srvaYnoUkHMtC2PHXH7LGIeB1oIwDzkDqSDJDrWW6tm///gPhC3/5RSZ1hMB2WpFfffWV4bzzzgsXXHA+ueZ1S1wMUorCOVm6B2z/+l/9P+G2278WLr3kCrVOh0buWg5vdeP1pIpuyGOCrIqiW+0EFqBfVI26GHI9OgkoniyqZS6F/wjGpSf4dtRBaS657tmXfwBGsoshM1d8OrJ1Qw9mOqbu6JI6kZ1QDJVB4CZW2hn3pkgbt0tlmxIKO0crvroTfpsHtNU4FFb74lHX1J44INHSL229HZEYZcUnlmlASi/7nfub/4oQ596I1MjdCN2ReyT5QqxsfCiUTQeK/ZL+1DgFcS/VrjGB2maFFFMvp6s9mLNHQhKOZSHs+OsPWeMQ8DpQxgFnIHUkmaFWlw5C/+IXvhjuuP3OcMcddzKZb9+2LZx/wXnh5S9/GdWTSmJeYlEDIdtfhLGOPF8J2JaU3I8wwU9M7scRiYO8B5A7eUueeBgEvnwXIVUjzgZwUQxRfJzVtFE1OjDyWEJvO3w8drue2AzTxTByaCieLKplLoX/CMalJ/h21EFpLrnu2Zd/AEayiyEzV3w6snVDD2Y6pu7okjqRnVAMlUHgJlbaGfemSBu3S2WbEgo7Ryu+uhN+mwe01TgUVvviUdfUnjgg0dIvbb0dkRhlxSeWaUBKL/ud+5v/ihDn3og0cjd0tUfm7CIk4VgWwo6//pA1DgGvA2XcoEYKaskgcuCLX/hSuJOIHGQObNu+LVx11RXhfFqdn3f+uWyTdqCeVBJ0ETUQzMa6r9U5+TI8/n//+t82cvfw5bsIqRpxNoCLYoji46ymjarRgZHHEnrb4eOx2/XEZpguhpFDQ/FkUS1zKfxHMC49wbejDkpzyXXPvvwDMJJdDJm54tORrRt6MNMxdUeX1InshGKoDAI3sdLOuDdF2rhdKtuUw6WxWvHVnfDbPKCtxqGw2hePuqb2xAGJln5p6+2IxCgrPrFMA1J62e/c3/xXhDj3RqRG7qIjbOQOeyUk4VgWwo6//pA1DgGvA2XcoEYKoIHMQeIIQeTQAZD5eeeeG7ZT+LKXv5RtVl5sfywLdalNdY0yzMa65QGck6WXWDVyf5LIHcTeyL2O3nb4eOx2PbEZpquBgth+gBJTLPkkZJEODPHhqrBlvQ5Kc8l1z778A5EVIZGKySHrMcGIoYAezHRM3dEltWbPh0OX/3BwEyvtjHtTpI3bpf5W5O2t+uoO+m0e0FbjUFjti0ddU7O4bofaDFHV+gzFuRrTnb8hnXsC7m/+K0KceyNSI3cjdCL3qI8hd9ZROW8zwJLantotu6hxCrIeoEQXE4z0yeSIJVTK6mqPEVgWknAsC2HHX3/IGoeA1wHxyUyEA7jF/sUvsf7xj32CQwBkjhfhUMZLXvJNFKI8yQ0OAqz82H4r3flaPo0yzMa6b5FzsvQSjdx9hxF8+S5CqkacDeCiGKL4OKtpo2p0YOSxhN52+HjsdvSRqlFXAwWx/QAlpljyScgiHRjiw1Vhy3odlOaS6559+QciK0IiFZND1mOCEUMBPZjpmLqjS2rNng+HLv/h4CZW2hn3pkgbt0v9rcjbW/XVHfTbPKCtxqGw2hePuqZmcd0OtRmiqvUZinM1pjt/Qzr3BNzf/FeEOPdGpJG7oas9RmBZSMKxLIQdf/0haxwCXgeOI55Kq/I777wrrcq3bePwsssvCeeec044l1boAOdH/VqQhUPJ3edTNbNxaHkAcyJYeom1Qe4Y7DaAtRxoidxlB0tyHwlNyIdySD7fYQRfvouQqhFnA1CGQBQfZzUZRuJAHkvobgc2LjXq1MJoNl0NFMT2A5SYYsknIYt0YIgPV4Ut63VQmkvu9uwrYwBGsmc9Mj4dGNcEPZjFEReQWrPnw6HLfzi4iZV2xr0p0sbtUn8r8vZWfXUH/TYPaKtxKKz2xaOuqVlctzXbaEAoDVqfoThXs3RWUno69wTc3/znQ9pygNDL7OROgZTPlfM2AyypyandsosapyDrgezYKUb6ZDpwKZWySnsktlpIwrEshB1//aFqTOL7DxwMd90J8j6OiBy31++CA+OUbaeEs886i0n9nHPPJjI/J2uDlAJdNrV2inA02TUfEsb6Wmh5gCKthkbuvsMIvnwXIVUjzgagDIEoPs5qMozEgTyW0N0ObFxq1KmF0Wy6GiiI7QcoMcWST0IW6cAQH64KW9broDSX3O3ZV8YAjGTPemR8OjCuCXowiyMuILVmz4dDl/9wcBMr7Yx7U6SN26X+VuTtrfrqDvptHtBW41BY7YtHXVOzuG5rttGAUBq0PkNxrmbprKT0dO4JuL/5z4e05QChl0buhtIeia0WknAsC2HH32h44OABIvG7iYNA5rQaJzGcvPXkcMrWreHMM8+g2HHhrLPOZDK3u7/HE7egnHg32ARG5EDAGwSSNqpLnHXNB2OXr4QpjUOXTwKNV7DhyZ1DBApfvouQqhFnA6QMQBQrM26Tw0gcyGMJXe0AfFcnnVoYzaargYLYfoASU8zbNfS2TgzxEfQPDU1zLnXv4fVVMZI965Hx6cC4JujBlKA4shRNFqdlbi6S+Q8HN7HSzrg3Rdq4XepvRd7eqq/uoN/mAW01DoXVvnjUNTWL67ZmcwFQt+dzQXmuZrnSRvow60jtbdqwFkPaRkHU9BnJHcL1pbAELK7JBFFkF9VIQdYD2bFTjPTJdOBSKmWV9khq1VDHA23YSuFBIm6k3XXX3awfOEiyn0id4jWcd9654UUvvjZs3rQpHE+CvkMIHtm0abPwCZUHrgHB22NdxAEmfQKZpB0qYvM6BykuLY55ACtzxNcMBJ9PgpRWYsXJfT+R+w0Vcj9M5P6skvvzRO5HG7kr8nYAvquTTi2MZtPVQEFsP0CJKebtGnpbJ4b4CPqHhqY5l7r38PqqGMme9cj4dGBcE/RgSlAcWYomi9MyNxfJ/IeDm1hpZ9ybIm3cLvW3Im9v1Vd30G/zgLYah8JqXzzqmprFdVuzuQCo2/O5oDxXs1xpI32YdaT2Nm1YiyFtoyBq+nTkjrmRFIlzfSksAYtrMkEU2UU1UpD1QHbsFCN9Mh24lEpZpd3IqwwPHjzEsnfvXo7ffffecPddohu2bNkSTjhhS9h2yik85+/YsT2cefrpzC9PPPEk5T8Y7rn3/nDyySeH0884PZxJcuGFFzC5g3s2b94UNh2/SfiD8tcInvkEHzQLugqQ6xykuOxpzCNqj7+FLp8EGq+gkXvqLoYv30VI1YizAVIGIIqVGbfJYSQO5LGErnYAvquTTi2MZtPVQEFsP0CJKebtGnpbJ4b4CPqHhqY5l7r38PqqGMme9cj4dGBcE/RgSlAcWYomi9MyNxfJ/IeDm1hpZ9ybIm3cLvW3Im9v1Vd30G/zgLYah8JqXzzqmprFdVuzuQCo2/O5oDxXs1xpI32YdaT2Nm1YiyFtoyBqeiN3g7eDvA8dAoHv4zjCgwdA6gc5Dpx44om0PcbPxE/YsjlsJgGpn3zSyVwYSrJ5X8iZwk3H06p8ExH/CeHI80fC0888HR6j1f3dd98Tb8+D5C+6eA8fi03wJ5JHPpQhhO/LBMlzRbEuCCA6q9EGkFWV5IuyAOfGaV35JHDOBTYmuZPQBn8ECrk8gS/fRUjViLMhY8ormpUZt2JglHEgj+WQqvJ2AL6rrV9Yi2bT1cAuMZEiovstI6rO1okhPoKsLVVQmkuue/blH4CR7FmPjE8HxjVBD6YExZGlaLI4LXNzkcx/OLiJlXbGvSnSxu1Sfyvy9lZ9dQdTCmnOjc++GNdzcWA8z2tqzQbU7GqI9sxKStQULj1tpA+zjtTepg1r+KOTQHTaVmTNkDsw0i+TAyUcJOJmAtdVOOKiH+S44aSTQOAh7Nq5g8n8xBNP4HDbtlOEI8AV6DcKj6CPlDcM4AnbTyNDthFXbAJnKNk/R9xz+JnDXPfde+8JW4nksarfs2d3uHD3BULymzZzaKRuhI9ywTGoCHEg8Q1HWeew6ONoz3QOsjQOLW9hr6GRe97VWfkuQqpGnA0ZU17RrMy4FQOjjAN5LIdUlbcD8F1t/cJaNJuuBnaJiRQR3W8ZUXW2TgzxEWRtqYLSXHLdsy//AIxkz3pkfDowrgl6MCUojixFk8VpmZuLZP7DwU2stDPuTZE2bpf6W5G3t+qrO5hSSHNufPbFuJ6LA+N5XlNrNqBmV0O0Z1ZSoqZw6WkjfZh1pPY2bVjDH50EotO2IuuN3EHSAAh7HxEl6yBtF/fAKppJm0KQ+YUXni9zOT6oD38UGhegj5gfVGAHsR89ip8tR58cpVLJn/rC8hMFx7bDhn4VXhDyB8GDUzZv3swCksdX4fbdcx+v6PfsFpLfsX0737q3FT1fJGhebi/azeV6opc6WUc7DOonqtc5yNI4LPJK4GwOjdzz7srKdxFSNeJsyJjyimZlxq0YGNV4D2JVRdf6rrZ+YS1lUF0N7BITKSK63zKi6mydGOIjyNpSBaW55LpnX/4BGMme9cj4dGBcE/SASlAcXYomi9Myty77cHATK+2Me1Okjdsl36ZRuDRWK766IymFNOfGZ1+M67k4dVwtWdxQs6sh2jMrKVFTpDhrmu5OR4JEzGbnKkI+BggLiXMcxzHvSchxmwNVtzwQs9NGanWhh49Ju+NGd0F0BNqjgpFjJzh46PFI3vv2yS1zYC+RNm6j+1U3gNvkAJ5/n4Ln31TuiUTgWH2fdNJJ/AY7XqY+4/RTw3nnnsNzOL/URn5xviaANHl30Q/4REJP5I6Xsa0PZc/z1ktRYuO+IzApk4lDEpQFHeSN5/R42e7Bhx4O99z7QHjq6acjye/csSMjeVvF22165h2Uae2HjTZlH6d0r3OQpXFY5DVYugfI/evfuDVcftlVapkOjdxVszLjVgyMarwHsaqia31XW7+wljKorgZ2iYkUEd1vGVF1tk4M8RFkbamC0lxy3bMv/wCMZM96ZHw6MK4JekAlKI4uRZPFaZlbl304uImVdsa9KdLG7ZJv0yhcGqsVX92RlEKac+OzL8b1XJw6rpYsbqjZ1RDtmZWUqClSnDVNd6cjQSJms3MVIR8DhIVMQ+7RRkIbqdWFHj4m7Y4b3YXjmJQtlNvjjyMhknWNtA1G0s89/xwR4eawa9fOcPLJFKe5/USyY75FO23uNSJkncjxuWefC4888mi49957+QLgqisv49vhfu5mIKCdwb7zvpL42/C2iheRveZ6KeQ8BbjvkMrlpvYxQauAuLGKx/5g30Dy993/IJM8vjZ39VVX8QUA9gfptornckDyuFChcqRc2Q+uhyvlCMdFLcOkA9FueYEij0cj97yrsvJdhFSNOBsypryiWZlxKwZGNd6DWFXRtb6rrV8EFGNdbL7NUQc0v98ynFpEOjDEh7zYrc+X0lxy3bMv/wCMZBdDNFfSO7J0Qw+oBMXRpWiyOC1z67IPBzex0k4/FjzG7ZJv0yhcGqsVX92RlEKac+OzT+MYJ1AxIQr03LToSFwtPXFAoqVf2jKiqnUwSHMuPsKabmrj22x6qlGII4A4GaA7iXMcx4WYRsjd20jYpkIbqd2FHj7253/+F0TUuvKm9u/bd6+m5JDn3MdxCOIG2eJQnnTSyXyLGrfQQXogMCQgbfPmLRzyHIvC6Q/tfviRR8LzNM9jv7YQeVs74ce3syUTc8HDRJ6QM844LVx4wXk8Fni+RokIKKMRNfcHlWl9Yc/ccWteOAM+SGPvTOetREZBFXGNyhto4xa8rEch+mHT5k3EU0fCzbd8NTz66P6we89uWs1fGM459xy+GChv1UcOIhH+kX3nWhDhKmFPuoQcxDgQ8xmKPB6//uu/Ff7yLz+3wuT+aSL3pxq5J62OWFXRtb6rrV8EFGNdbL7NUQc0v98ynFpEOjDEh7zYrc+X0lxy3bMv/wCMZBdDNFfSO7J0Qw+oBMXRpWiyOC1z67IPBzex0k4/FjzG7ZJv0yhcGqsVX90RbGXckubc+OyLcT0XXRznbXe6WnrigERLv7RlRFXrYJDmXHyENd3UxrfZ9FTjfecPDNCdJPKG5OSO//2NtP0HDnAcP8CCZ9fQUSVW01hpI3KQVtuyAq8DhCyhEDaIG3t7Eq1KEUeZO3fu5ENmz6FtrpTjkELaEijEfEsfJjElYszb7AN/sp+wherVslgo5/FEgH/xF5+XOZ5kz0W7lZyPELk/Evbdcw/v9+4LzwtnnnGG5qeMvNvoHwopH9ps/Wd8MUru8EN72cA+ouYhV8K5pK0Wyr7ps3gibHxFDn22hS5mwF933HV3uOee+3klf9XVV4Zzzj47ruTtVr0RvpWF4qU/0st3FpoOmJ/oGnI7FUWaB8j985//83DF5VerZTo0clfNyoxbMTCq8R7Eqoqu9V1t/SKgGOti822OOqD5/Zbh1CLSgSE+BHLL6h8BO0R0e/aVMQYjWcWQmYtIR5Zu6AGVoDi6FE0Wp2VuXfbh4CZW2unHgse4XfJtGoVLi2rub+UnK2n0Z2OYzz6Xxcdt4rPbmZra6Q/EszmzpW0ejDgRYgmC7EAknTXd1KY+mB577DHe/8cefUxtx8i2HxqHls9s9i9DEeJnUbvgn2FLKC+jSV8cxy+lnXgSxan/4HMSkTnmQABzn5ALhSSyMpb5Ea3huZEAH8y/Nl96oQ37ox2xLMyxqvNtaSoXb5aDDBEHMT7zzDO06sUPw4AoN4Vdp+4KJxBBiu049kGeI8QB733vH/OFzPPPPxdOP+3UcDJdiIAnhJhpNHOA0MhdLoriM3gldKRD0C7pb8kLXzLFdKQw2AcQf9k32W+synFRgrYL0W/mfoaOOxN33LWXSX7rKVvD1VdfFS65+CJe5dtjCPTDJvSR9hXK5TsfXF3RxwpTzcbpOM6GzNfZCUtE7oeJ3J9dt+QuW4LGgaTVEasqutb6otQ5xrrYfJujDmh5fstwahHpwBAfArll9Y+AHSK6PfvKGIORrGLIzEWkI0s39IAWR1xA0WRxWubWZR8ObmKlnX4seIzbJd+mUbi0qCYbTwlu/MsUQVpyIVXiNn1YnHU6n3GuLgu5f+hDH1VNCFlIWQAilzDZ+gBCMOCWLwAbCNNqxC1sjlMbQJJC5tQ+7ROby1jcHAdYHIVxP8LGfqwpyYBckEd0pNtzYvjI3CnpRkQWB3kiBOFJXapTHn5erqS+devJHPKKl/aFCY4Eq95Dj8tX3+644y6+oLE2PProo0ycDGrKQw8+xHU99NBDbLKLGly04MIGcfQTRIh3E3EGbt/jjfk0tnwoqsUtLcUFULQP0Ge6f+Adu/1upI07H1uoXvwb8wcefDjcdtud/PjiBS+4OlxyycXst4X2ycgeZSJfPI5cj5QPpJAD8TEbfSIKf48lui3fyL1ErKroWuuLUucY62LzbY46oOX5LcOpRaQDQ3wI5JbVPwJ2iOj27CtjDEayiiEzF5GOLN3QA1occQFFk8VpmVuXfTi4iZV2+rHgMW6XfJtG4dKimmyYErD64pBvJWuCgj1pR23FmgOrpuN1BavnrIPkBZlKXosDiWBRtifgYcRbA/6tp2G7/mcwwOzbtm2n7bHwxBNPhPvvfyA88fgTTDL4QZRTaCWH9oO80URM7Ghb0inU/Yvzk+oWYg70viaYA1HS8ZuQZjaEQhToex+nv6STHSQPIuZ8EBAOnFAapfFFAPvaXIo8IDVZhTJBkWBfUS5ID/tpJG7yOPUHyBmPEfCb7rfffifXAWzfsZ3fPDfs2LmD6wTELu3m+C48Njgu/rANfmIWjyUQeoDoAVxc7KTy8UIcgP6QcYgQSlrRs5UCxLk67iuqmxXo6Au5q4GLGeMa7kOEm+URBPoA35l/8MFHwh133s0kf9GePeHaF13D/RT7Bfko5PKyY8S1q85qbkNjDM5eYoOQOwZu6jjuCA5RDoVcnsCX7yKkasTZ+ICrapqVGbdiUD1uGEmrI1ZVdK31hYBiI7qkxzYT8sNj6QbVvEse6cAQHwK5+baMgh0iuj37yhiDkaxiyMxFpCNLN/SASlAcXYomi9Myty77cHATK+2Me1Okjdsl36ZRuLSoimLj7X/957/M4bTARN8HfOfYA9Xu2Lk9nhN4k9mP/e2OpO3fd1ovSNz0PF/UNbS4n1S/8MUvhy+RGKnvdG2Hm/nGOUj1Mqyloz4hXUrDO2z41jZCntcslHyYAwGJG3Gozs4pLa5GkV/9YIOTkbRdBHB+SjNislWokRWTvOp4YfqWW74a9u27J9ytRAyAyM8/7zw+LhdccEG4cM8F2COulzYSEjRwcUlDGyTOAcMOzSG6gMTFpL13gLsC+FlaXAjg7gjuFpy8Vd4v2Epkz8eQ/+ijZXAs6lYva9qv1g5JE6KnOPqD+oZJn0LcTUDfYCX/0EOPhDvv2ss/ivMt3/o6HtO4M5H6D32v+VE+97Xfb1ZVVzt9RNGQYGmGRu6pmxi+fBchVSPOhowpr2hWZtyKQfW4YSStjlhV0bXWFwKKjeiSHttMyA+PpRtU8y55pANDfAjk5tsyCnaI6PbsK2MMRrKKITMXkY4s3dADKkFxdCmaLE7L3Lrsw8FNrLQz7k2RNm6XfJtG4dKiaiuhEN7xzvfyyvotP/bD2RjlbTYeE7wdurxcpjYNu8a16cnd4qNlAFaOzxf9CFU9+kqIueQLX/wrIvUvcRyrxJ10cWHguUbDqOMT7RywUvr6uIXQfHommPvwQag2IXMhJtpCVV+ZGzkN4ojJLgLYBj8Sv8oEeeNlPIRMUuSH5+ZPPPlkuPXWr4XPfOZz3F7c1bji8su4vnOJ0PHDNLFuzMkUolWwoR2chh0ksK0ajpI7gMMBm4WA5cGqHgQPojfCx4ULVvOQ7dtOkcNKGzmqenwpe2wfQchdVu6+XYgD3GdII0GfbKE65IIHK/kj4Wtfvz08Qzxnq3iQe7zLQXnguwn9gn2ksqxsrSqrE58Ic1CYXyP3vJuy8l2EVI04GzKmvKJZmXErBtXjhpG0bkh1lbbEOMVGdDH4Q5IfHtLlT+HSoupsnRjiI+gfHpRWJNe9h9dXRZZdIhWTIh7xHFWjQg+oBMXRpWiyOC1z67JPhlpXV8cvoW93BH0NcWlRzckdXxX6sb/1I9omjM/RGmvjFKGZY7qluVbX83Lg4i60RIKV4/OZDlT16HssfPFLIPUvc3zHjm18C1kmVnkRC+D5Bh/rH8R9mtpFZ89qOk1iHIBfOJ2E5zbVQQ6A5OkWnh9ZF9KIcyZCkDTsmC+pPCYdEsT5zW+y8W1lW3FS+PRTT4evfeP28LnPfYHrB6FfecXl4aUveymVR+Xig3mYBfUkm7QjtRmw0CPZzIeDsaiVBXiyv/ErN7ENJAuS93dbAClC2imhiZTvRYhYjotdGCEudznwq3eb+Nfu7rprH6/iv/VbXx927MIqPt31YIJHXj4+VK7rJ5TLrbBQ+4MTK/iN3/jtRu6+a3z5LkKqRpwNGVNe0azMuBWD6nHDSFo3pLpKW2KcYiO6GKqTE4N0+VO4tKg6WyeG+Aj6hwelFcl17+H1VZFll0jFpIhHPEfVqNADKkFxdCmaLE7L3Lrsk6HW1dXxS+jbHUFfQ1yaqlY3jvc73/U+Jve3/NiPwJKNge6xKXFviuk+j2u5paeQA4ZPK8uxMsp8Po/B58VK/Rvf+AY/V99BZIaVOs8r6AQ+cInceRVGkHmHFQmh4qMRPydZWbwC51RN19ALbTg0opc8+FASkQQ0T6r8Z74kRkDIZ7+zLkQsxL55s9exct8Unnn66fCN2+8Mf/mFv+I2CaFfEV7+CiJ0zLOxzFQX94Pq9MchYOmm15HsnS4FussaBcj++us/w0QPkt92Ct6TOIX3t2wf1FS29HvZp5B4wQQdF016+x39CI57+JHHwgMPPeyexcttersTIndJpN+sPykayzdQTJVkMzRyT93D8OW7CKkacTY+qKqaZmXGrRhUjxtG0roh1VXaEuMUG9HFkOvRiUC6/ClcWlSdrRcD/aj+bk9KKRLrvgPr6kKWXSIVk6KjvVWjQg+oBMXRpWiyOC1z67JPhuxQK+LeFGl9uyPoa4hLU9XqxnjrInc/Frt1VQjebgn+6NTLtTClxXSzVcvgwMXz8G1v+yMh9R3bmQQwKVMqHS/MIza3sCvrMu+IbmkcUnHRxr6yYZvm5TROoMDZRPI4kyc7jqZ1SbogAPnI3MmkQja/OkfZuJ2Ml8O+9GVZ6doKPRG6kBGXS2WRpm3R9rs2cVx9E7yeI3PrQV7e5ADJg+BB9CD2E0/ELfut/J12APsk+yAx3lLANk2DGSEfD9LRl3CS2+7Sz/wVQSr/kUcf45/sRd+hH88971x3K5/6kySu4pEf9Vh9UFA/KjGozQByX39fhbPQOgSDFh3EPiK0wR9BOsS6xZfvIqRqxNmQyfLFcjhQnTdejxtG0roh1VXaEuMUG9HFkOvRiUC6/ClcWlSdrRcD/aj+bk9KKRLrvgPr6kKWXSIVk6KjvVWjQg+oBMXRpWiyOC1z67JPhuxQK+LeFGl9uyPoa4hLU9Xqxnirkbsfh+WUkaepQsj8yjy6B+aTQg4YsJXp5jCanwOG2Q49/nj41Cc+zW/B45k63sCWr6/pXAKNAlsFo0gEmH84pI1N9nH+YR+bg0TndC0TZUU7h06XgtRPbDK/IVHs5pvKkfz8UWJFnkjIIBLMlyRCLLLKfOYZIvW79oYv/9XNXM5LX/qS8LKXv5R9eX5lQRmoX/bf6gJ8aDrF+I81M80BqfzZYLftQfTyfH4T/0/4U0/dxem8L6zIJu2jpqmILcWtr5jgsVKn/sW/nH34kUfDXXfv4+/GX/tiWsWD/PUX8TzBQ5dyXNnWkQTEPRq5a+dYt/jyXYRUjTgbMlm+WA4HqvPG63HDSFo3pLpKW2KcYiO6GHI9OhFIlz+FS4uqs/VioB/V3+1JKUVi3XdgXV3IskukYlJ0tLdqVOgBlaA4uhRNFqdlbl32yZAdakXcmyKtb3cEfQ1xaapa3Rhvq0HugOlmSnFXv4WEsozkcix8/etfD5/8xPW8Qj/99FP5u9Ww2wRbI1WJUkjzD9JgkXkJkZQOWB4YkWJxMandfKhd4qvpGsIJcyHbkMGVy+kI8eE2IKrzIgmIA3EmEMyXIBMKsVK/86594a++cku87f6KV75UfWWVjn1HgTbnWp1Wv8BCdk3w+kCkMlcOI7fstxHJ69fxAATlvsrYyNO98EWU9jcTOV08gPe+ctOtZNsULr54T3jRN72IyZ2f1aO/9bjkF1RaR6xLQsP6vC1vIToBdtKXg9xFN+SxOqS6SltinGIjuhhyPToRSJc/hUuLqrP1YqAfucU+HIHaXXLdsyv/QGTZJVIxKTpaWzUq9IC6I55A0WRxWubWZZ8M2aFWxL0p0vp2R9DXEJemqtWN8TaO3AEfz3VVCGUen+iPkvmlkIPMnpVl9qIMmB+n1fonabV+333382SOf4aS/OX4YB7xpMpzi066ZTy7COA0Lkp8WDgWdQ7pw39skzjSZCMkAjsalOoVfwbHYRcb2gpIm4WU5Xl6Ines1JnUb7w1I3Xzk7wpP9epIrCQq1ck20SYMFtqw/yR37LfHM4792wmZTSy3E/pD1ZFNzv1F4A+ZKG0+PiDyPvIEXkWj/8lj5/jfdG114adu3ZEgufVPvrf8tvxJ3AtVilA+m/M6W15GTUNDQ0NPRg6AcPNXGWyrOezibMGn9/CWjllGSD03/+9t4eHHnqYJ/HTTtslEynIkAgOkzpPtlH060wQmqhBhHxbW/1YNsuKV3TyM0EeJlexZ+W6/BJ3ZWieUrDCw8Rvca6LQ3lRC890uR5873vLlnACh5t5YXXrV28L7/njj4Tbidxf+tJvDj/xE28Jr7ruFewHH9tPzq/lGtlzL3L/Sr9XunkEXcdjGYEfz3nt618T/sHP/Ww4//zz+D/D7d8vP5yDaz4RuXgsxf4fPxarFuJf0+KncvEPaPCDN/iZXfTluTTeXv7SF4cHH3gwfPxPPxG+9MW/4v+axz60EOaFL//Peix+pXxug7tAnTcWR+6uzYtr/gSYZCwu+bhdG6eVx/K3eO316fJg8EQ/xm9cOTG98Dv0+BPhfe/9k/DH7/sT/rGbPbsv4J9SNRKS1ZIKSI6En59q3MjaE7KseCFKqmpHCKJl0mTiVfsWEiZP+JNwuvjzm9Sog9O3xLL8RYCQtwh+DpXL5Lj8ZzPICUzqKieeEL4KUn//RzNSv+7VryRf8UFdUo6U10Xo3cDMjZcOxS/5JzswctwkuS49MFJdBPADND/24z8avuM7/3rAj9vu3Xcv/8Kir8/qhxgB8x1ojhPBs00JXgXfg8cP3oDAsTJ/4QuuDGeeflq4+eZbwnve875wgOoQgn+e/EHsFYLXcN5oK/eGhoalwDST3L333h9+73f+QFfr54SzzzqDSUduXdtKWIicBSTnVs9MtGRnAjSxOPlJGULkTN4ge1sJQ8iOPHIxIHapT+NappE4l4kQdXB+2ESkfIRC5rLyFsEvp4HQ8c9lniOi+Ngnbgi3Ean//Z/9u+Fv/8SPRVKXiwT8UxepC+UaqZeEbhc/46QPXenePqScRcPqx9fX/tbf+tFw3XWvDPsPHOT/R49HzDL2hHCTjhxpTILoI+nbKj6SvBA4+vrcc7CK/6ZwlOwf+9ifMsFjhY90rPh7Cd7COaCR+4Iwr6E8uJyJK1zdk22RWL97tnbQOZdXEmzinYQAHn/iifDe976fVuzv59+M33Ph+fo75KPkJLfbiexAeCBrjfPLUUyA+KGXlAZyZX8QOcibfSRNyBlx6EKclkdsEhcf9YMPfBF3BA5d6tF8sIPUiZyF1LFqN/0Eks3h5lu/Ht7xng9QvZt5pY40yVMjdfndeOkH6V8v8wHIyFbxoo+KgOutfDrcFwbcqn/dt7w2/H/+wd8Pp51+erj/gYeY6IXYqQks0hixid0aF21EzkLyJETaeO8MF17P8a3642QVf8Zp4eMfx236L1OavptGPp7g+fa/1jVPzEbu821LQ0PDOkQXkfDEPgXuu/e+8Dv/7ffDgw8+JKv1s2m1zit1E5AbCROvrb6FiI1gke5X07xqVuKFn9kTUUpeIWMpFwKS5tV3zEPCZYmd62Ai1wsFvkAAqUu59tY10mTlDSLfLCv1E07klTr+g9qj+/eHd777g+Hrt98Vvvf7vjv8wJu/T/3rpC4XOeh7JdWOYzBvzFLXottp5VsdIPnv+u7v5FU8ftt+3z33x1U8eNbIVgKvSxpECFpW8XiuziFIngQvY55Hq3jcpr/pplvCl7/kn8PjNj2RPPnbCp4/WoGFs6Ct3Bv6gclB1XWJdb1zswNTTCmrhUOHHg+f//xfhve854/5x2guuWg3/yANJlEmTRBwFBCoEi1CsvEKG7fKlYhl9Q4yLPIwSVKc0yWNSRui5QhBq6/GU7qV5/KpXyR6kDruGCCNCVoE7eV/GUuEfSKFh599Ntx481fDn3zwT8OVV18VfvInfzxcRPuNC4B425/bi/1YPVJfi0Df2Cr+n/2v/0s4Zdsp/G9f7T8iAghSF4oCGws+pECInyPJYyXPK3Qledymv+LyS5jgP/OZz0aCx2r/CFbwSvDIjzLndZI1cp8Qs5wqdKqpNi2G5J+1joaG8ShJY94kUhZ3331Yrf8erX6+EnZfcB5NmGfxat3ehBcSBrkmMpcQ5EfCq2PostqGP6+qISBV+HCaxEG6WX7WlURVZMXu0rVs/3ze/JNPLnh5DvXY7XdesW85IZx44gnh4Uf3hz/4w/eGr33jzvD93/89vMKMpE55ZH+E1IXI5V0D0Vd+HqiNCbGBrbqkgppbKROgry982o//+FvCq1/9qvDEk08pwcs4REgaiW8AGxlC8OmNeiZr3KrnVfwRvk2Pr2W+9JtfHB64/4GRF+3kK+RyUQABwfe1eSgauTc0NMTJZB6TisEXNbRc85MJVVbrf/EXnw/vftf7+BfmLrtkD/+fdfsxl7hCZuIlIcKT1TBCiTOROhKGvxGvkLkQLK+kyS+VZ3lSXIgauqZz+RI30mdflFPErbwtEL0A4FvwIHUldtyGP/zs4fD+D3wsvPePPxxe/oqXhZ/6qZ/g70/bRUgidUzfQuroi3keu40G9J19bQ4Ef+DgIX4OL2nY0oD0vI4obqdjya6I5E4hf12OyR0reLllj69BvvDqK/jYf/SjHw/7H9uvBO++KkehlTUrNh65r+j476tsaEPaCbuxsXzH381vnVJDJB+EqhMlSWhpCov+t//6u/yd4T27z+evuCGBf0GOCVNW356IhaQLUQIXYhRSBRkjjUmXiVdW/0ba5uOJ2adH0bqF9FMcwnVbG6Fb3SxyGx4iL8XJ8/NnDj8b3vO+D4eDTzwZvv8HvpdW66/Q/CB2rYvKLH+QZu2iNnpqUqDmYkJAn5hMChD836JVPFbvd++9l79q+fTTzzDhRvEfJXkWqp8JXuN2q55v0dMqHePk0ov3hDNOP5XfpP/SF77EBI9b9baKpyL5lv2saCv3hoaGXtgEWU6U5eRp8dymyoT43J9/Pvz7f/erslq/9CL+b1+p/MBEFwmYQr4tz+QHu4R+VQ1fIUnEEYqek62QOtuU9FM6ScxHwqQvZaXVeV42C/LR6pzL4fqIpLWueCuev+K2JTz0yKPht3/nD8P2HTt4tY5n6/aynORPb7+vfVJfbuBOCX74Bs/hH3rokXDvfQ+E2+64i3+F7t77HwgPkg2k/9RTjvQ5p+hgeX4LnolebrfzSh4ET+MEz+HPOO3UcOONNxPBy5v0+L48SB4l4Vb+rGjkvqEx6+Qwmn9DTDdtTh0LTHQ1GYKPfuRPw+c+93n+lbmL91zIt+BNIomS8O1zIjxeIasIsWKVSwQab71LaARtK2aQbFyNc5koQ/IZGWflIx+nWz1aHglur/M/DWEiL4TKltvwkE3hBArlNjzehJcV+19+8SvhHe/6E74N/zd/8PvZV8qXNpSkbsRuusXXL2qjySQH9UbdrZQxwG16PId/0Yuv5Tjeg7jgwgv4QhMA6d9HRB9J/777w4MPPsyPkvAz7U8++bR8N16fv/MKngW36vGi3VnhZd/84nDTTTeHj3z4Y/ymPkgeFwdPPfU01zELpv9tebrC4N+Wf7bjt+X5FgWuQRBqIYxV+m15AKpmsHyxHA4qOm9EB5I2Hlxz0b2+u5NufSRxryPI90F93DYiRgt7Lwb4Up3dXpRSJNZ9B9TThSyrRComRSUdGDEo9IB2HmGKjqRlNsB55AkTIQ4Hh7g3RVrX7iT0NcSlRfU4ql9Kfcc73xt/W96OvKX58WsYZ8uSfcT70OfAgUPhYx/9eLjnnnvDRXtoEt26ldP8+Q+R29J4eYxCzBf0gc4XAJyWSBDkHfOqX4wjPcbRhsAkb2kA5h/KltvIB0A8raAlZBtHU5z+SORiBP4I5YJCLg7+6J3vD3tpn3/gzd8bdu+mixm2i7+VYfX5sETtOKwXdO2zoC+tBwOz2e/Tf/rTN4RXvPyl/DwdYw3AtxnAg88SH4LUnyU+RGjAhRtw8lb5xUR8uwMXdTu2b5M7MnSxiK/E3XzL18PxFP+2b/vW8Ik//VR47/veHb79297IeadFI3crh4OKzhvRgaSNB9dcdG8+6ZlufSRxryPI90F93DYDmyr2TgzwpTq7vSilSKz7DqinCyNZi/ZUIpUsdegB7TzCFB1Jy2yA88gTJkIcDg5xb4q0rt1JyBsCf9dKDQlRXRlyz3ydfvDgwfDOd7wnPP300+H8885mYufzneBJDoI5AuSX4qJ3haKTUEgRZ9N5Bh+2UWWaxsJzEolLj2nRRgL+Vx39KLrYpA7Ma2luE1I/nlZ2T4YPfPgTYf/BQ+GNb/i2sBt3KShN9s9/rQ3lprAPtWOxFoF9tX0Zv9/j+6WKCbPd8OnPMMGfd9654dxzz5HxpEAbfTuFG/GP1Z7lf2aEf+yD5IN0rA32M8L4j4UnnXQi/zDTc88doVX7U+Htf/j74Yd/6C3qOR2W5LZ894Cspsx5/E45NGbHqlXc0DA/9E2+ncTucM8994Tf+s3/Fo7QAuHKyy/h/8HNkyUIGSvcKMcFe54uZAldXjDzob9174XTfVwnZCZxEDTq80Jp7Bvrl5U2i7WD24K6Ua+7fe9Fn7lDxz98OeGEzeGBBx4Kv/brv0urwGPhp3/6J8KePbu1bKlHyCKRBmSjYfh+Y1yNkwpqbl4K4EW717/+tfwPiu6//wG+5e5h4xshVuf45cQzzzg9XHLxReEFV19JchX/X/2X0+r/qquuCJddfmnYuXMnV3XPvfcT8T/OxA48QUQ/K5aE3BsaGtYCJiWZce633HxreMcfvZu/3nbxRReyzUjdyBh1CuGqjcgPIT/7dqH5e59E1mI3HxYjZxby53JMtCwlmCwfC/mQvz1/52f0KnjGHolexV6eg+C/uP3e298drqLJ/gd/6Acovz37lzYbqZlsJCz7PpcEX8ITPAR3sU2HYLWOW/VnnnEGy1VXXhFeRoT/XW/6G+H7vve7wpt/4HvD1q1bV5HcK1c1c8WCy1/eoTO8ZSu9D7PXN0MJE2Vd6Z7ZWMAENQ7ep88dLxF95CMf43/2csnFIPZjsoKmQwjZpMRcrppBgCBMJlwXsg2+IFla5ctKX9LZRyUSurONpHFZIlw/0kw0r/hJPdJGLQcEz5JW73jhDm/EQ/74Ax8Nb3jjt4Xv+I43UB68OIe8/nfgZQxPQ3LLTIzjsNi2YyB2SQdqriSvfZ0QPP7pDF6iA4y8Sx2wuBf7ipwJHnXLd+Kf5/Qnn5QV/CxoK/eGhoZOENWoNl+84w/fGW655VYm9bPOOp1tcltcCRLkWQiTO4VC7EKoMZ2JVv3cSh2EIX5kcz59YvWjHBHU7cTi7IM2meCrbnIxIOQub9HLP4DZHH73be8Ob/0X/09489/8/nDtNS8kP/FNxJ4Ibi2T9KTAvq61/X0dkfurXvWK8Oijj/JX4gD78Rp+Q151CMia7RURcpevyvHb9ETuuILAuyezYsnIPV3trBtMMWZ7s6zKOTCm0iJ5VZo4DdZMQ1cPtM5QTTDrJPz4oUNM7A89+FC49OLdfDveJncj1oxomQBl9Z3SQNi2IgdpI68RsZRl5XkxO6eRCDkXQmRr5Vm+VFcuo/l0pc+rdb0dj1U7ye/+wbvCXXfv46+54fm6v8iQNknfmsyCWn5f9lDpQ81/Wll9YIyPk9Hjg6/IvfKVrwh33XVXJHi/OjexZ/MIo61K8iIAvg8/KyYid2niKLrsVcS+mihXQ0PDlFiWM+3ee+4Jv/Hrv83EftWVlwqx62cTrVwh9mZ5Sep9q3WkwSfaR8TI2i4AKj5cViJ1v/qW1bUIp6lYXtyGR4h2iMj32mXVvjn8DhH7nXftCz/4gz9AxL5Hy0Iee3Euybwwj3Jr+WYpb70BL8OB4K+86spw55138VvxAMjak7uROYeF3dJEzC9Ekp8Fc1m5t0M9AVxnDeq3XqdK4iIOxiLKnBFL2KSFYJ77uRIkj8mqhnv23RP+6A/fxYQOYgdAEiVRgmT9SpmJm0kVxK5kDzJ1RGu+o+LIWsXbwVGQjNSdnxEZRPJRGurlNjrRNAiIXdqMC4PN4bd/948ise/Gil3rWSu34X0fLGsbVxMgeDx/x1fj7rprbzh8+DDbjbhNr6H08XH8ut2smAu5+6bXd6OhoWE9wCYfj5rN48//7M+J2N/J/xkLt+IBEEX8Khp0kCMRoxEvBKvsSLqO8LG69yt9KiGlRdF8Kj4NZfFLdyrmZ6QsAj8T8Ukrc++naZtN7Dk7iP0dQuw/RCv2i/BVNynLE7tJw7IDY7wuIHj8Fj0I/hvfuD07H0xHaGKrd4PZ5432Ql3DQlCfrpZoEmvz6XhMON/UJig8X/+zz34uXHD+OeHCC86NZNZN7EK0JSF7SaRvQnYQPad7m4SxDhV7cQ8yWpfL72zyLB+ETJNm9BE/+c57Tvq/+d+wYt8bfuiH3yzP2LUsDDwpR/a9Yf3gu7/nTfxLdHv33jNC3iX87flFYQZyzxs13yZqaQMKna1ePbmmOceQZ2nPzUkatrQ7sVjMd8A2OGC+OnTwUPijt78zPPjAg/xG/Gmn7opkxmQKMvdiRKkkaCRppIi8QsTugiAK2WgmQ/HJL+XLfUnIOa78KS51QR/19WWNCOUBsUPH7Xhb6f/m7wixY8WOn5O1/ZC2SPshDSsL6/f59z/+/zpu0e8I3/M93xX2798fHqBxXyPvPhsEz93nNTm1lXtDQ8Pc8ev/5bfCgw8+yKv17dtOYVKDgPx4cqVPIkrRO0mURNJSHpTBOpUnFwcio2VIvV5AxDEdBI+yOEzC5J+V48TViYsNIXZ5xv6e930k3HlnWrHDXhKKhQ3rCziue/ZcyM/g9+8/wD8vXEMkckfqBtMxBmdFI/eZQCcpTtSOk3WSUzgrosg4STkNA9E6NYNNKn6iYSDaJwWwYv83//rf8j/IuPrKy8K2bemrbiZGjiBPEVo5Q3gFnVbrUZCHSNT/ch0EcS6PdCuL7VYP/J3N+3iy9z6cD6GWHW0xX7qwMFI3efd7Pxy+8OWbmNhtxT6PH6ZpmBxlP9f63Y5LKZbmUcb78KIXX8PP33F73mPk3HIozz+Mv1kxNbl3N7OhoWEjAsSOFTuIHf+DXSZLkJtJIslEsiaSBh9JQzwJ50UZ+KBc9WfhetQny6vpJL6+5JfiEKzC8Wtz6e35JJSc8lE7NkFHGH/AZlMHseck0rD+gRfsvud7v4ufv+/bJwRfu3iGbmIwva3cF4YhJ2Hhs0wnbptD1iaW/Lj5SSgCJhIQ+x++/Z38/8kTsSsZKkHayjkSra7gRXQFTCTpV+cQ/k9qlAadfbBiRhqV70mbfakPkw6ydvU58e1LpD7qlwvqE0EcZcN29z33hn/2C/83E/uFROxoLxqCtlg9DYvHMvW1PX9/7DF5/g7Y+VMjdBP7nvuqrtwBag6f2A0NDRsXhw4dCh/64EfCM888HV5w1eVqxeqDSJBECBmkrQKiVNKF8FvmsKmdidPihY6523SJK0mjHorbRQAEcUod9dU4CwiYNpbWJ1wehcgnxH58ePzxJ8N/+c23hVdd9womdivX52tYfXgyNXhSraV7jEuvwZ6/g+Dt+XtZZykgdwBjaFa0lfsaxrJPG/X2rVKrfbVTNWGVe3tVqseEhkkHE47ouSRix8tzL7z6CiIzTEwgQCI2hMVqWAhYQrMZYUbf4ywkO4TsVpaRN1bHvNrXW+Ji03JM4Kv+XKeKke641bq1i33VZmWIvin80Xs+GC644Pzw6tdcl+WD0EZ6SfWamC/7N8wEI0jTlwH++btvHwC9fKnOyH0emJzcuQ2zdVwtd1+Js9U2I1bknGsndsPaA4j9gx/4cCR2wIjKE11cVastki4TrxI0CBN+CEnirXj1YeFn2FI2l0U6r7pZxFbWLbfQpU0mRtD2LgBfTOgFhfdLZUiaXLRIuyC//ttvD488eiD88I/+oKbn+SfFNHk2Kmp95ft9aF/O26+EPH+X77/v23evWuvwxD8PtJV7Q0PDRLBJ6IMfkBX7RbsviBMrk6USsayqKa6EbQJbFLZJXvalkAmUJLOxXdKijryIs39RBnRK5xU+ia30IfZyH0TKcuXwxYSPm577/emn/yzcfufe8B3f+cZooxJjuYDXh2Ko/6TlrjfUiNCvgOdJlLP2NQj+537uZ/n77/72vAG6PGtPt+XngaUl9+kOzewHtO8wTneIpx0Yy3fyLl+LGlYLb3/bO5jYL95zYdixfZuQKREcCxO2CP+HtE1ehDztObv4y0rYVuiss4A0haRFXJpeQFg6bFk6dL64gK/U40nf+4L4efVPaRAha4Sj/vgu+95994WPfvyG8MM/8jf19+KV2LWMSYAZq0saVgf+GM5K7B74JzN4e36E2DUOXdLmQ/JTkfu4gdcGZkPD+gXein/wwYeI2C8I27efIqSmkq+mlVRNIgmbrqLpQqKkg1ARV7IXkdW2lcnC/pImIqtyS4c/t8nStT62kxjZk0usk+Oax8ifhcpG/PHHnwj/76//Xrju1a/sJHYrf1oMyesJYhb4ts7a7kWjbGuJceklvG/Nf0gZk+D1r39NePbZ5/gHbkrws3f9AMf4l+pmQ7st3zAM48Z5R/p8T4/h6Kx3tRo0E5an0bJiN2LfRhMgyFLJE4SoBMmhkimEidjSIwnryhr5UQ6lGRnbhBtX0MgLYgaJmkQflAnBKtvnIfHpWo/4aZtYhMDjrXv1R9nWZvP71V///XDhhReE17z21eKDD5UHX8DCWYFyML2Pk42EtLIVvURf+ryOyyyw77/j/HnuuefUmrd7npiC3Mc1YrZGzn8XGxoa5oG3v+2dfFvxokjsiWCNrONKm4hQyFvIEUSIEL5GqkbSfkUtZag/E62Vh3TY0wWBlC86EzmXibJcPp9OEskcbeH2aLks+cUAP0LQsjZt2hx+7Td+Pxw5cjT8yFt+SPJjv7EPFAIWrgVw29dQewHf5lrba+k1v9UEvh6Hl+vsu+8eIHiML/D80vzL14bhWLGhtlxjusCcG7eofR1U7lJ39NyAFfu+ffvC5ZddzL8VbxMpxFa2RtL4N6r2bD2SI0iWdBCrEWokfiuDhMs0otbyZQWOOqRMI3Bb6bO/kbgJfFg0nWxWr4n4afkskkfaltqNffujd70/3H7H3eFHfvQHKZ3KxEfbB1i40sBiqEsaqB8WsCKeBbx6/57vCk888SQLYCt339aVvS2/yn20VIdoY8znDQ0MEPvevULseHnOExqTM0g9kqkStrNH4je72iLJEoGaDgKPhE8+nFfzoD6+eED+KHrh4PyN8FlQvivbt0EuChBKOvsymQuhm9x59z3hL77wFX6BbueunVyenwNWi9hnQUkmywD0ox9b6xVYveO77w888EA8BnY8LN5W7g0Nk2AdzRcrtStv+4M/isS+7ZRT4kW2TcRCoGnVO0LsJNFXhVfT0I2AVZiY2UdINhKuCfmAxOHLZWRiBC0+UTQ91gkxm/dXHxafj9r00Y9/OrzwhVfHF+jQ+bEskrUMTyheXxaM699autns+IwrYzWA775j5Y5fr/N9Ho9Fe6FOsKjhuLSn7dwbNkuBS9tLDVPAT4Qf+MCHmNivvPwSecZOZBfJ24RJtxAlaSN22GySNZL1/hy3dFwUIL+Sq1+JG+ELKUtownWxD8VZTyJ1kNA+RfJGfSP+qU67Jf+Rj10fHnx4f/iON/0Nbh9/tK3LDsyL42Ql4fvN99+4vpw1fRmB2/Ove/1rw/33P8Bxu7Aycm8r94aNg7V3/q4plBMkSP3GG28OV15xadi2jYidPiBRHAgjRCZFJkKRSPxGuhZHGvkJaYqgPpOYD0Re2BGCaI3Y+dY6yimESRwErhLboGWB1JGX01Gu1sk60rk+IXS5Lb8p3HnXvvChj34q/lAN/Pw45PgCsejyVwu2Xwi9buizAePS1wpe/OJr+OU6nGtxxc7hfC671hS56+7zdipMdfxrmToK6io/s0/ViE50l0Yp862qYS5Y2YMyydliE+SBA4c4vOqKy+LLc0a+LEqMkE1Elp4Qa35SbhJ8jPwjgYOgtR7YPLEjhPjb9qUIsUs5XBZW5RRym9QHdXObvD8ENvID0bO/Coidb8fv3s2+/OH6F3sMbaIHfH2mz7N+1DROGhYDrN7xj2Vwe95+uW6eaCv3hoaGCBDHqafu5Nvw27afAgM40QImQ7mdLaRoK2AInDx5Igd/kMfSVPgWOBdKIeL0YcKlj9QE/0Tsdju/JrY6LwnfyuHykd/KUF0IXsTaLO0/Lvz+298THnz4sfCdb/oOaS/KQnEKlLMS8LdqTffk37C28aIXyT+WeeCBh3icGeT8mQ2zl9DgMOkJP9Tf+63MpDKK+deLEldrbxrGA4TG5IlJR0MhPyNCIV0mXvLnEAICVSFHskm+aEPoP2Zzwitp0zmvkDXqzfwstBV7JU1EymCiR9tNR/t1pc+PDUjuuHNf+Nznv0zE/tclL31if+hnkUtc1Gmw9nvdp68Eartq0gff3pVu81oCfpb2ueeeDQcPHooXbrhdPysmJPcxh3Pc0V5qtMHX0OCB+ZimZf7ISgLniE7UPGELSbINBA7CZB8BEz/8NA6NP5afyZWEy7IyKQ9snEFsZo+iZcAPaRDMiZaOOnNiz6VG+vx1Or6gOD787tveHW/H8/5xFeK/zPDtS/s3rN2T+DbMF7v5h222hkceeZTHMbCV4rNiQnJvB37NYQkOWa0JNI2oJunLMbKWoxXLAzpKRNB2gOIq3YgAZrOxP3yI5FViRhImDYsShGApSiJkrBcHTKYoE3EhYpRkdSM/XuLDRUH0I+Fn9PphJ2goD3byg/DqXvVo07ycRuHvve094bnnj9CqXd6OR1HmC1hYBSbmmswIfxve69auwe2bEL4sX4dhXHrDMOzSZ++2csch3r5tm6ZOjwnJvWFSzGW4UyHd5bQTqmFB0HFH0zZ/DBzDRB4nc9X95A7VCwP5hETFV4XzaiCqbDiuRuegMZ68TBdIOvtA9EIE9XE8eot44ofcccfd4XOf/yITe8yjspZQa6/fl5p4lHGPkTwU2jVMlzSMB1bvhw8fDg8//DDH8Q2VWTEhubdD1dDQibXFAYKeU1p2R7cgSiI8Jj0lTRakl/sd45LOPiy0LXzVynJMxeKST0HLmeOorWZJZZKgUG6PqLxT0NWDF7uUIAH8RGhPdH9A5MeH3/mDd+nt+AsohQtiPwtNX2n4ustw0RhSz0q1ZT0Dq3c8ez9wQP5j3PYd2zmcBW3lvqRYr6cL9qtr3/rSGlYDcjS6Jm9vzXzAoscojhB0rWl8W90BZr7tT+Db5YWNwUYS2EwnJxRvcQRcGevpIwbScDFCMdRhYI0rUx8S3I5/03d9B+ualYD2S1iXAahlq8kawCRv6sstZvl/5fIvTfPdLWWj43X6L2HxH+OW6LZ8OzQNDevpNGA+w0ZJzp5/g/gyIu8EdQaW2lLSSB4hc7IRSyONPc0GnbcESk8v6qk/ipZUBhMOCoCuUkJsUj7Xw8/tZZ8OHDgY/vt/9M/Dq1/zqtgGDlU2Ivx+d+kN84Wt3oFt29sz9/ljJcaur2OkvgU0YI5FzlLU/JqxgD6aB5a0WVPDEeZQ5L6+Q+RFIV+miHyiTbNYOrb4KU7RBZymS3fhdbmdX/5iJ5fMDnL3gHXKVhLU7/7Bu/h/tF977QspGQ6jPt3g1nTIhKgVUcoKgftK0aXPG7aLJhsRWL0Dt9zyVQ5nwQTkPml3q//QbBv1aDY0LCn4DXUiuRrNMfl1EGB2KrMLLOqr+cxHSBQCCwnIQ1WksSCdSQUiOI7vCvg4NqrHTQ6+3a918/N20vFvXG+7/c7wmtdcx3Uhn7QphesZIGsvfVgksddgR3hla11dYPW+Z8/u8F9/+3fUMj3ayn2tYo3NO/XmzrYTa2/qtRavhZaXBFxH78QLwjgK0rBJWraWK5abHAhSL3yP0VLcntfyM1tarbMr4kcpjctmTwkpLT7bZT+Uj/KQT9LFIlUh/qGPfIJW7Rfy28p8GUFtmh+pcy1jZELUijCZAxZJ4Issez0Bq/cbbrghfPKTn1TLdGjkPm/Ma15oaFhV5BNxF+mxCZN2FLFb7ozAEehGspFCwj4kQsuSxqv1uEUytkjXzLIRaNmcZm1gk5C+xKUsIRjJ+5df+HL4Bq/aX0UWsrkia/u6XoA+MJkGZV7Th5ZX5h8CeI+T9QKs3CFvfetb1TIdJib39dSJDQ3zxFqhg2GTYd/eWAlSipUllpTGk7h+2MYBQigCMYkvu1DIz9hZ0qodq3RZvee6fHRFb+W5D8AhzXSSphcRtHsf+ugnwzXXvIBX7YiD0NczqQPcz2MwxAfg/lffoXmAjdDPs+LHf+It4a677tLYdFgDK/fhg2ZFMNWY7M7UmTJBPYNKH1veBBV2YQ5FNCwJjgMNJviJXCCpZgPZAuxH5GunLesIeZN03Fa3MuXWPYl9yEEEukbYrnHSOY5Q0y1No3rLHnqyG6B+/i//Kjy2/0B4zWtfTXuSk83KEg9a0yUTgrJwX6qMFAeZANZ3pi87/G52yVoCyP23f/u3NTY52m35hoaGUdhr64pRwnNTZTbxiy6Tqdo5IrFo1ySA1uFs42JAShKLPmxhstYV+1GKI5lFfPFxxqowQZGAzN/+jvcSsV/HLzDpdcqaXk1yP2D/ejAufaUwpK0Ncnv+v/7X/6qxydHIfSCGn/ZLPEGgaaU0bCgMnlL5bXQPfTZeloBoJEWK8B+M5oeYWCSRHTjOdp7oJUkt4kLCt+eV1PGxXGB3IwjxNR1e8VKB0+Lteycf/bi8qPTa17yazwHslxH7chF82md5TIHv+qW46LSlfarB26Mu2fulYSmAF+tmuTXfyH2jop3EDX0oVu5ARhAIKM4f2KFj1a3Z7LYwXCVd7Sy65VU6IGXY2+8Sly+tix1vxpMcEZ8jXJeQHV8AkB1l8bP4I+oLH4iUJjoJbsV/7E+v59+PX25ib1gEZDzUZdmwc+dOJvdf/MVfVMtkaOS+RFjRucXqmqTODTj3rc1dnkOrqYic7ECCUeXZEGTJJgo5sE2cKeGEQIwSqA1x+oCcBeYjJC2hrMETxC5CMdPto3FNpPxHlOgRxcXAsfDxT14fduzYEV507TVapmDZid1fhABJxx0VCbtlQtSKMJkB1uZyXxrq2LVrZ3jRi64Nn/rUp9QyGRq5T4w2KBs2DjyJeIBMLUnmfRA9U2z8SJpqIFxvsygp0EWgW4IEZmORDDCySCBpdiGAD6/geWVPDsLs4YheMHzpyzfx78cDRjKNaKaD77v10Ic0UgbJSuJFL76Gv+8+zXfeG7k3rDJGJ4XZp4n1OFmv0j5RtTJxS/00nVNcQmwx2eGH3zjdJnqdATmgDazHKI2plwhWvISIwb/iqZkIRtj4sIPFLaofjUgs+nBMklQH0cPwnvd9UH6wZvcF0qglBtpu8Ptm6NKXHX5f1lK7Vwv2nfc1Qe4b9nAueDJZ8rlqhdEmjVmB8cSkTl0pOpslwt0rJB2jrs/xuJ7dMXmzorq6sIokTY/P2iGcbitveXbOX7PDbXXcYmeBTVbq9tId8spzeCUOpPk4yZe/cnO45toXUJXWqI0C9GuXTIhaEaX0wFb7JmsRtV0uZZ7A7zBM89b8CpP7vHe7Ye1jo4yJtTWR4ahg7vXzb1TVaEcu2zMycrL6ZGkEIVqQLsiZDdiwnYlcCRnZkQQdinqZke05eYtvJpTHfD59w5+jNv7nMMCyk4tvm7W1tBm83rD+gJU7XqybdPW+wuTeBiGwqF6YvdzVOD6LqLONs1nBPQh2BDhCGyMRIkuOQlUh6mGNiYaNqmewAhUcdTYXRxWsK0kjDpJmG+Di+PAKXpw4jGmqf+WmW+QNecA1a70TY+qLLkg/9cuEqBWhgrssLGPb1WCY9tb8fMh98DEa4DjPshoaGqYH8R5IG/wn/4VNoXZAnrcLjuP78bLqBmlKDmxTXp7QNcopyMOTPAnKQrLFAbaxkaOcQroRAwJbnUucQhWz3XjTreHgwcfjv3SdN6Fbe6w+oNQXnb4a8G1arTYsK9AbXTINprk1Px9yn++5svZR9Me8umcR3byeD93QfVvPfTA1YqdgAhct9RMRN4xq4AAbCPuKEqNpw0kpKj/EApWfuxNJM6hseeNdyIM/auPn6hqXVaCUAcTb+kr2Jjfe/FX+DXkGGoVgFVfsaJOFphu8bZr0xQB1dEnDSgBfiZv0B23mQO50gGc4xm14NDQsIdyJKTxIG/wpKfL/eVd+7CZKJXjesIHiomDLvOTJikW2IpxsG4lz1OJqo4BtbNcUjd98y1fDvnvu45+atVW7tXdeBG9l+vJKvUxfSaxWvTXEvtBPPIxe1jlqu1xKCXznHbfmJ/lBmxV+5t4wV1TO2VFT94kdU7pdBmLmAhqWFnJs0xGWqQfrZ1YpAUTqRwDi5QTF8WhMqVqEaiB6tbEL4u6NebciN5u8KS929oFwCbK96Zav86p9185dfieWivAaGoZikh+0aeTeh6nP/wVMHG0ualhh8JDLxl1cb/HKnRhSrEaUeRAxEmeDEHBEjCZirrrEDQn/yQWBkToTPqtHwz20Yseq/Rr9NbpFEbpdcEAMpV6mryQWWy939hiZELUiarLBMOlvzU9G7pUO3YB93DB3LGbSbZgBOCQkcmT0ZjoIiuOEmOahltEEQjlTJMLjFTcsMeRUibMJG0nj0NSkqC/iYsOT+Jtv/Xq4cPeFYQ9JbBoR/EZbtS/DPm+0Pp8VNpK92G/ND31rfjJyb8dngah1bleHr/KJqmHD+oKRrUQkoFlZFYKqFRMDuqUhkPIkNJTxEpLm0ilueegyIOl4mQ4f+wocAXfoJau8ZHfLrd8Ir3nNddyYRRKcle3LL/Uyfb3B7+OowMMOTk2mRK2oUtYRdupz98WQ+yI6a50dgIaGtQqbjBNEh4mF9OPjjKF+x5FB1RFkZeFU9zNumSmfCITMJUdM48BsBKeYH0Li+/DRj8s/iOFV+wYH96VeADWsfQx97j4ZuTesG/iptWtungpzLaxhJZGRABM9B3RIbQWG6QIHOB1kSZcw/qi8SwdieoSLcH1Kzlp/bIMVR2A7PlmS82dhI/vd+tXb+A15VOUvWvKLl4aGtYVJnrvPRu56MjU0NKx9ZCSo8Rp4sU5JKZ29dT5IediqSQkSEQInydKAZFBP9QVgIV3JPNnZKiHZbv3a7ayvtX/ruhbhx8z0wNEbJ1OiVpTJGsQkz93byn2JMfyUmezkWs4pbj1PvLV9G7WtZg+AFE0SZLV+3PEygWMO51A/GSyNQ8R5w0kc8pfdDfIrdqNIRmhYgSegDFUBdU1tTuFXv3ab/GgN+cyHfNY2rA8W0Q+jY6ZhkcBzdxD8kpH7hAMgc8/zrtpQ6jk3xp823mNjTzYNy4cRAqCAf6hGYjlgNH981G/0vJSJH588lbw5ygWRD0VlQ3ERyaNu7KM2DROpWBniiei99z0Qdu/ZLXFF3K81BH88TJ9GPPrSJsW8yhkGHN9xMiFqRZSyhMAP2gx57t5W7g0TYJUnyFWufr3Bz11GlpEk0dnobwQ0edv32uUQWJiDJ/nMT2wSq+RI7uIDxRJspa9tEh9qWzLL/Gttlgit2uWW/LXXyH9/a5gvjMz5WDesCl70omsGPXdv5D7RGJ3AeZzrxOfG8AyjnjK9NjQMBcZLnMgRo1B+chZiaXloBMtSAi/bsS+JmuDvXfNcGtM85puKh8LJtNE4hSD3Zb8lb+0aJwavN/QBA6NL1g9wV2rIc/dG7g0NDVUQxchHiVKMyQYPMSFMfubrdZlj9e6An2z5DXvz50Bh+SyPgs0pvxA9IP733f9guEb/Z7shtqFhBHaMhsqGA8bXOFlhDH3uvuHIfRHDc1mHPNplYuhs61LsRGrEUjSnA8vctknAt7N7ECd0vFSHz/EUIsqTvE347BntklboYlAbe2tcdZ0hY3s4IEJHkuVjlbacZqGA85Hp81+4keN7du8W3yUFX6wMEIPXGxqAIc/dpyf3AeNttiHZBnRDw7xQI42xAKke72/Hg2RB8C7O330XIG5h1MWgNsSxEd0gNpihuTRrqmu7mCwkcFbakOFr30i35DnJV9KwwYERM06mRK0okwUB/9993HP3dlt+naI2rfVNdSmtTYgNBBoGkaQxJHRYCF9KxMhT/GwqMWemaSQmP7YncD72UYOHywd4HbCYkf59DzwYnnjiyfCa175aUwRlvoaG9QD8DO0aIne7zFng5U6GISd9mxgaNiZAusfr99uPx215kuP5tjwJ7Po7tEzQLJrL4pJIf/ATG0K+xR99EIcjXCUubgg5VYSNrHC6pCAuOtK//o07woW7Lwi7du6UvJZnCWHtGycGrzcsEn7JXcqUqBVVyhTAM3eg77n7/MjdGjllYxvWCJZ1nmnzXy9qpDEWSsyUiYkeevpBGy0rhiB9IW6GBgAnazmss08SuwAQGYZYDwHqffc/FK7B19+GF9HQsObRt3qfH7kvAHydsOQXC91zSZ7S69eV2J0pYYhPw4ZHfGZNMgjEmHjWjtW6rOBTCGKVFbySOcdJOJvoQvZqB3kjNA7nAD4wiwFxVrn8RPZR5zLZQnGB5MGq/U6+Jb+7/ZOYhoUB543J6sP+Q9wqkvuYjliOfmpoWCASGa0mjHSNTMcBXimPI/ZI8JJu5M8v3eFWvfpwXMkXzpyPP8hLNoprIeoj9RoQZTtHOMYfDkH4asMfnrfjRTq+VUn2OAV7vaFhbrBRVZMpUCumJhX0vTG/YHJvyID5aCNgo+znOgeTNMgbZApSNYIGpzLBC1Hjo0YN1I6VPfJgPMiG7dA5HaLl4WKAKlN/8dEENEWiqMfB8mPlfiFW7XlyQ8O6xrg35leV3DsuRhoaGlYInbfqiThB6iB3ECyTPLEnQpA237IHuYL4lZTFRjpsnKYEjHJiXsRF2J/jm9SfBB/TmdDRFt3ARmVQRk6H6eu33YHEcK37D3CWv6Fh5eGX2l0yJYpiVvm2/MbCtNOJzyf66kxMyzEfDm3EOL+l2JmlgH/e3knmBdB7kchVjtu0SXQQOIUUSaQO+sYAYuKVvEb0kWw5FDvyIM41wc7+4seC8jE9eRsLTBTiQyFepNuxY4cWg/LqKObFKA0Nax1db8wvJbn3nnQLPyNlguieJhoa1j7GEjwR5fHHE5kTEW9SgmaCBzGDiEk2MSGTDUQMUleiF0I3gZ3CTerLpCzls53LYCv7olyUxU3gCwXNBx9kZF/Jh/gDDzxEK5j0Ih37NDQsNezSsibDYV+H68JSknvDItAmvYbhwGg5HoRsxEwhkzniKtBZiHw30YXApuN0Za/+EsoFAn9A/mSTOwBiF77WCweyMXkjjjTQuBI70ilCusRFjg+HHn+Cn7cjbvD6ONSm15o0NCwbQO59vzHfyH0GLIQuF1JoQ8OEcKTL5EyETAaOg+QhvKpGursIkJW4iKSDoImIsRqHj6Zb2bgo4LwsWid9/LP5nNCRT/J+/Rvy713tH8UgraFhI6HvN+anI3e+lG3Xsw2rjzad92PI8/UaiEaFeG0VTgS7iQieSZfixKRZGhM5fBCHIA1kjzRdqfNFAfsKOXM+Cu3OAH+4TiF8qU/SUY7cGZA2oH48b792hf4DnK3g+6ShYXbURlYpCX1vzM+wcm/T6iyYqvcwp6k6inY8GuYIT94gW9L51rvKZtiMpOHHQsTLvkLKIG8maehYbSuZS3nqY34QsoHQ2aYkHtMpFH/Y4LOJyP2BeEu+rdobNiJe97rXLoLc8yuIhoaGtYeusxgr90i+Sqi8ascq2oh202a22611kD1W5hxyutjFV4lf/fCRstMKXXwpBemsiy1eFFg7KH7//Q+GQ4ceb79K17AB4VfxcgbXCH4Gct9gaAuDDK071jnoADNpHwfyBonbyh1kDKIFUSey5xX3ZvKjcBORPl6OAynDzkSvq28h881h02b4kQ+Inchc7hJIHgtRH9/upzTUaRcB0B9/4klu5o6dOzhcBpRTrklDw2pgDZF7O00aGibBtM/bAVy8GbEa8fLqmcgePzqTkz3CpIP0jYyNwKNOpG4rcr7t7shciF/LpvxG5GZDvXzBQfqtX/0aP2/3t+PbrfmGjYoFrNwb4a4eFjORTT8/zr89a3+qHrcHS7yHNBBArHFlzYRNxMpkK4QrJC2hiNqMjDfJ7XVe4SPEahxC6XIxAD8lfqz62ZfS6QKAQ61PyrB0uZ1/zz338b94laYu90ixFfw4aWiYJ9b4bfnZTwk/LfRPEXnqoOlkueechoZOYOgy+ToyFpIHSctzcbFTOhP08WGz6nZLPd3O3yy+LEbSGt8shM6kzat6IXZ+Ps/lkL/dKcDFBoW33Pp1buPu3bs5BNqqvWEjoz1zbxiIOUyUSzLXrrkpf44NHkJ48Kn6wQ7S1ZUzBGTMq3I8M0fIdgn51jqHyJN08xM7yiQS5zK0XNzmRxoIXC8k5Dk/fCSvXQDIxcBmXrXbD3hQietm6dtW8A3TAOdBI/cVQP90OseZ22NBxTasbcz6zJ1Xyrx6BrGCiBGXW/R2UWCraY5rKEQO0oaP6hTys3qUBxtW7npB4FfzEopY2XwXgG/VI8/xYd8998Zb8usRRvI1aWgogR+yqWEmcp/3YGuDt6FhfqiuyIeCyZvIlUmaiJnJlsiVRIg3rd6ZfDXNCJvtejsdgu/Fc7p7to7V+2YmcLpIIPIWnfKRDhJnMofO9YiOZ+8HDhwMb3rTd2hD3X56FuyShoZ1iLvvvlu1hMnJfQOeIG1h3LBegdV9bYWPMc+rcFLse+m8OoeNiJdX5QhhM51DXblnQjYl8VynkInb/Gp6smHlf+NNN0sDNyj8dUopDRsXy3Vbvo3GhoalQFz5eoDEiYR59Y5VM5MwyF1tLCBo2EnUZqtsJmQmcYlzPoRsJxut/NMdAVnN4zvzkp98eJUu6chndwSsrQhqzW5o2GjY2fFbD1OQe7tOHI6+2WfYzDTf+avNhjNjDXXh0GfuXX5E5UyoxqT88hyRb1qdKxGD9NkmJG6rctFF+JY8/PW5O18IcFz0dMGgZZDIm/Kku7r27t0X/1GMwOajmlRQcytljaK2K6U0rD/s3LWoF+rW04hp3NewDtB1q30S4FSIt+FV2EYiZAxCZ85nXZ6RC8nzKj2Sch6PL+YpYdtKPT7D59W7Ppf3K/lNcsFw512jzxYbGhpGsXq35RuWFu0ap4EYmFfpQsJJ+DY5iB1C0wcIGr4m7IevvFHUVvAg9E1q4wuBIi6378Wf45zPxPLLhcD+/QfC7guHvinv16xdUkHNzaShYcnQvgq3jKDJLceIoaFhdSEMzKTLxIuQCVyIn8lab6+zD38kPbsQoHSQs6zsJc4XAoizDb5C5ELqdotfBPpdumrfvSf9eE3DZKhdr5TSsLYAcq9hanIfNwjmOkjaiNtgWI2LnDVwYbWgJnbdwQcJA0zoTuIteuhK4AiZ5I306SPPy0HoaXUvcUrXVTkTOPtZ+WpDeUT0ZkP8wMGD3J4dO7ZzOB9g57ukgppbKQ0NK4g9e+r/GXFqcl8DU+EEqOzNDDvYlXW6In2unhJmaO8I5llWwxqFEDhIl5VChHQRycHJTOJGzCB5IXqO04d1TD0gbSVwe/6eSB9589X+HXfcOfLjNbA3zBe16xWThrWDBd2WX9QwGFBuG4ENDXMBSNWDSRikqzoTK0IiYwkRF98akNPypbKE5JEfp268CFBCh9jX4G6//U75yVmyNTQ09GNqcm8cunrontqGTHpzmBiHFtHm4HUBI1kDVtQGWCFC1PqBL+JYgTviz8tIuuUFgcMXIZM855d8sO3fvz++TOfzLw6Y5cZJBTW3UtYo1slubAhMTe6zog2MhoY1DOXWkmQRZ4GuEomfQiPwXJAzRypD8j22/wDb28t0y4WS7Nu8vjxYDLm3Izw/VCa+1cXSNWgFsPH2GZzbO1t32Qd0FVwg8RY/PqyX5K+OhDtuv4PD+b5MNw9YJ/VJBTU3Lw0NM2LVVu4NDQ3LDeFY2ijhGBVHcJJ8IlTlfB4uq08b8VPAym/R6zP42267fV3/J7gM9S5ZM9Dh0isNi8dU5D71wenI2A52Qxdmm+fW+Cy5qsCv3NFWf+3Of+IZa6r3G/FVmG8JHCKTDvAFAP11fZ93+WE7X0pDw+KwQVfuPTPJorGKVTc0DAZxj5DzMSJXHbbKScTfGZlzInxsbKsfVvrRh03pE+F8M3CZKFSiWLnv0jflbbXftepfO3D94KF90itrHLVdKqVhNrTb8g0NDYR8OuUJ1khZCTpKnH5VLECoiH7Mv5LABK6+QFmmvYSPZ/HiRxv1feyx/Uv4vL2hYXnRyH1BmGVN0Zu3L3GWSqfAClcnWJVKNyaYWzMREs5I2Yt9jh1Fbv7jwPIWftFBcfSoONd95b9frT/4fuiSCmpupaxhtNN8dqxdcl/jg7ehYfmRyBUfu0vOE68pJMfCUU4HMfOJGe3yMZ3TIOwXY1wubLJglw/XRRt8br9N3pRfu8/cGyaFjY0+aejHHMm9r7sXcCgwIaxxZLvgI+tg3xqGYkkPNs+gtAHpkgpJK2pL9yJpnBiFVvCmk1P6iL/Zo7DNqbSBPPrYY2QEue/gEFj7z9sngXbKWClQc/HSsK7RVu5TYKJpZSPNQQ3rBjz/M7nSqlxJNkluY3/Vjzq7SPKljZwOPv9R8xsVbQXnM2wsUl8wUreuSbgR0ikbGe2Z+4bE+Aly5O3lhn6so+4CsSYOTW+851IjfZpO8acieaHXLgbwXB5hkZ8KKG233XbHxvmOe0PDhLj77n2q5WjkviSYlBsa9TZ0YT6rWyJWMDUVpZQbybZGwFGOJiI/GnXK4VboZj969Ei0lWmZUI3tefsQyLEZlR7U3E0a1jQauTdsaKyti6RhrQUhzgye4LEBu1PIqtTPUZCuEwGIOLd5HxE2sy5hfVUP3W7x364/PdvQMCkwovpkPeDgwYOq5Vg4ua+XDlws+iftVSGgeVW6Ko0fjvU4PmdduTPRqk4RVQDSUTQJrPCyj/kZSZfC3jEu7kkqq3XYdBUPtJX7LEAfDpECNZdSGpYWy7lyb4OmoWHFYcQaQSpfJsCmwoRLInHxYTt9ylvqFodTzY5Q0lBEnpbkKP+r153tB2waFoA4hDtkLeDggYPhoosu0lhCuy2/cEy7ihqSr+IzbXVrErPv7Ly6a613O4i0xMhERxv55jntLRtpo/mIhrkTENpHbiCQFoka7upPIZK70tjAednUVu4rAulzkYa1AtyWX35yX6oxtdan64aNCiPJ2QGCTucBSsVzcH4WrnEWVfDSXDSwH63C8YG/E1uxc3qWhmz6dbni9Nu5a6N+x321wAeyIgVqLjVZo1gru7EC5L6Gj2LDHDDPSXctTOAr08bV7YlyeitFAGL2AEmbC+sMNZAkQs+F/Yt0ACv3RuoNq400gpOsNg6s1gt1q4ll6PiGabEWjl4bYWmK830x2i/ei4U26fa+GkDm+LCak3vDsiAesIr0oOYOaZgZBw8cUi3HypF7O5ANE6Gt3KfFvFa4Q8spCViiNnvXRDByex9CG86v8vGPf6I9b29Yarjh2imLxp49e1RLmJjcp27oKsyDc6tySEFLc8twWdrRsFqYx2rXRhEIvia0UY9pIFOeFGHTn4nAYgcO1G85Niwj/HHskgIV03rDomfk1X+hru8gLugAb4Bx07AoLPqMXCCYfGcFFWEkHsncRJLZ7kWMnDwDcNZ6Ce3/uK93lIe8JmsYtd3xsiis62fuKwad8IZh5tkvYn4lNTQI/HPu446n6YFUjfGWwUReiqYB0It0fCQhYcgdhkVOfg0N6wVr8nvu8eQee5a3aaChYVZ4wuUV+fG6Mkc8+5RUXab7j0wzWRlU5vF08SAr/rKkHDt3tWfu6wcYX+OkgppbKRsYCyP3Dd6vy4f+uVIx3mnMnMsYVNWMGFxHh+NKtHGZMO0z9zyfki9rJLSJPGwGU1mEsCNpY9WvgKsRuRdOQDr75Gkm+/cfYJ+GhvUKuzYZJ5Ni6VfuSw+agLpQS8lt3XkbGlYD4HcIRqaRdI10vcAvEjrFkTvmL3xZ4MdecB9N96eFUxs2DDyl9UmBmovJOsVXvnITh0t0W9739jru+QZBm6GXHnYWxtU7HbNOch4ribStDBjHkzpS8vSGhgYBzsxS8LvyXWgr90HomGRWau4pJ7k25zUsFJg2Erlj/HkCNr1zVW/P6UmAqNOFg+nRZgI/9k3+kP00ee3cmX56tqGhIQFfg/upn/opjeVYUnKXyYXvDxYYYmnYWBBqmBzT5huGxZbejXnVm8rxJOyJt1sS6fvV//GbNkU9F6kjham+hoZuYO6vSQU1t1LWIO6+e59qo5iI3Nfo/i8GPO8MnHzW4xzV5t11CSbWgtjl04FIxE5lUZJmH7FhBhG794OYTfJ4aWho6Me3fMu3qJZjaW/LtwuJhoaVhZFp5NRj+p13xGOaI1/EYWQ/KCldzmD5FTqJa9rxSc/Cjlv8+F/uO3a02/INk0DG3ngpUHOpyRIBt+W70J65rzZkbnMYMUyHQcXMqa6GdQPi0wjMYyBYICNd/rAxivg5KdJqQpsRmwlgYUNDwyj23r2Xw2/91m/lsMTaIvd5XzXNNHfMkLnNWQ1LCk+oWLV7so2gqD8VzYdFbTLIa4LA+Rdi8HpDQ8MoDh6U/wZX+xoc0FbuDSsDN7c3LA7T/oANUOZEUb64kny9GMy9TCOND7+Ud1w4SmHpA7BesQOz7FtDwygwnsZJBTW3UlYAWLl3ETswB3JfoT2ZGvkEMSt6Sysmo8VgJepo2KjwpHr06FEebpHkYbd09TFYvlIiUA6CLO247OKBjCy5T0NDQxe6bskDS7dyX/ZLhYYZIXN6koa5YpGEaCvneI6irpKEWQdpu39Ao+mesEnjEBC3ROhRnE9Dw+oAg7NLelBzN5kT8DW42v9xN8xG7nNsaEOOodNa3W9ek2LX9Nom3WXFaty6Luct8De+324CokbICRhTCPEHAncS0wyknnrqqeHQIXm22NDQkND1f9wNS7Zyb1cLDQ2zICPHGWGrb78KH3LxYETvBWD6po0ndBNJFeR2gS+noWE54Ef4yo5Q+9nZhd6WX7ndWctIk9RgTJFlBPMoY82jdcIQeCIF+ji8JP0a4ZdpR6HDrjrg86F6I3lP7mxqaFgzsFFuUkHpUpMx2LtXvgbXhwnJfUCtDQ0Nq4Ya0U4HkDGVxeWJHMMLdlMW7y8eoHMxGprUcNppp6kmmLL6hoZ1hYMH+r8GByzZbfmGybH6S5uZWtCbuS3bJoUn0VkBMj969JiIrryPHjsqFxAjggycbWpYdivK4vZ9XoNP99LQsHyojdRSKqi5OTnQ8w9jDBOS+8abbFd0j3sqazTXsGjYrXDA5hEmc3wckZekL0I2CKXJCt/8paD53VFoaGjY2/MPYwxt5d6wIdEulsZACZm/665EDTJPfK0fMuQr+RioJL/kY4KKxgMvDw25OIDHOGloWD7URmopOfCmfNc/jDE0cl8wxpGIT5+IcFaKnRoLrjnMemte8hMhg8zdCj1+oEeChsTAPPiiwFbxtpL3K334Vm/xIwWB4rTTTlWtoaEBuPHGGznse1MeWNvk7iaBhoYGwZBV7hAYiRvvesGGdaj2YZtzSoFKzQdxUQEE5sdpbJkfpPx+aWhYZuDHa/AiXd/LdMCcyL2dEhFzfKFpLljx5kxR4YAsS9arS415vFQnRIdVNq26g6y8/SpcznjaKglnEgG9SGOhEnFXQJwI0BC3dBEEzqmhYQPDToZj/Lx93KodaLflM8ikOHZqbEzTsI7BFwfErHZr/QhIXW+h42MvzsGev1Snwv7Ol/PiIsGgE5X5ahwXDlyeewwgv1D3OOdqaGgY9rwdmCu54xRtWHnMdjEy/kpl6a5llq5Bs2KSHVq5nQcfE8eyCHETEWPFDeJVqdtA0ETUR5Tk1QaCZzvy0MdCSmBCV4qXj5YBy0pD2tEvDQ2rgRu/chOHC1i5t2Hd0LAxAPI9km7Dg3yxoqa46Ym4azbV3QXCEUunkMtRn+zOgBPahDe+8dtFV8S0hoYNjHHP24E1cVu+ncoNDSsL4VYh7iNHieRBqvqBTQhdV+Ik8GGdVutG3HG1PmIjcRcC0V6zUX784xj+LW2K82TQJSuIWvUmDQ2Lwt1794398RpDe+Y+Faa4NbrubiU3LDPm8lIdyFZX3kzoIGhHwEbUxmqy+s59+Ll81UY6lc234zkv7HSB4G7lQ+AH4FfqEDd4vaFhowAv0w153g5sQHJvLLuUaIeFMc9uAMFPS/JErULox7Aix+15kLESMwQkrIRtK/n0cp348Nv1iFNoxG3kbTYr10ie86sf10OSA6TeISiApZ7M0tCwRoELXLxMN+R5O7Ci5N7OrUnhJuZZZ/1GnhsSU69wKRsTrpGvEriRpxF09EE8krrFEaaH7n5lz1VYHrUhnvKRqA3Yt2/8z20uC9DicdLQMCn23i3/CW7I83ZgQ63cG781bDQMWbl3+hjJGtGSGBkbAYsPyNmTuid5e9Ne0uTj/Kt5xN9I/+KLh01mCZ5GCzG1oWGNYZLn7UB75r40mO3So124DEfrq/EAweIWvLzJrkRLIchWbq0LyctteiFj/oCclaBx2/3IEb31zmWQzd1yJ4sI6eQQ8+QXBnJbft/eezicG4zka7ICqFVbSkODB56379mzR2PjMT25r7fRN88Zf0xZxzV6aVgigFSrgJ2EV9FK0Cz4GImD3EH0Frd0kDJ0skm6EjbHxcY6iB7piJNd8qS371HMrl07tUENDRsXeN7+i7/4ixobjzW6cm/XtVNhqmuKYZnmcrnSrnlWD8UphWgiYSHquJLPSBxkDEkkzSv5I0LitNV0XZVrOkg790eo6UhE3VzfkbCTyN3+pzvXRzI9kHeMVExRVhArXF3DEsN+vGYSTEHubcg1NKwVTEqE0ZsUkCuTtBIzl0WCW+tM9Hp7PZI04iwFibOPflceNvU/QmUj3eLij3RcGMhKHvE9uy/k77pvROB41KRhY+ErN9400fN2YM0+c28DvGF+qN8y2Ng3EkCsIFglZpA0SB3P0LEaV+ItSZk/IGakka+s1pFOJRrJcxp8hNRxkZDSUR6JpltdgK3eFw9Po4WgLSz1ZJaGhjljku+3G6Yjdx7AbRR3o0YLhW0ezNFbZEcFME9ad5f/pOU0rDim/p47nd5MsiBYXn1j5S1Em1bnJEzsQvogclnNk48RsyN5eflOy2LSNhLH3QBJx2qey6c0K2/Hju3cJjxz9DDS34jAno+ThvUBuyW/giv3dTyzN9JqWCeYhQDlmTsJE7t75k46ixK7EDlsVJ/GZUWOvEgDgQuJy0UByFzT+IIB4sojPd4NoPj2SO4b89Z8w8bGpF+BM6zZ2/INM2LCC5jlvd5pV2J9mH7lruQLsiWSBakLe4tdCFiJnIRX7CBuS+MVuaVbebL6l9vwsJON7HLBIIKLAiF1pKX4zp07luy5u62PK1IxjcgKoFatl4a1AazcJ70lD0xO7nFUrK0hMm6K60x3CdPSyLT5GhpWD7Jq5hU2ESxIHaQMIjbyjkROgvQYZ7Km/JrGt+Xhr3EqWH2N6C2v1IOLALklj7yStmPHzvl/132DY+3M3hsXk/yL1xJLs3JvA20VsLCrjhkKHsk630a2C61hwPnIt8b1uTmTMBGvrKqhk7APkTKTt9xuZ2InsWfo5itpkl/KTWUJsUt9RvJSl6SB6HfvPn+OX4dbNNC2MVIxRWloUNgt+aE/OesxJbkXI7ANyFHMnUXaT980rCDonAbJ2godZMwhbErQ/OY828idyZt0kkTekhfEzRcDpKcX55DmXtIjG19EcB7JKxcFiIdw/gXnb9ivwy0SmLq7pGH1Mc1b8oY188y9DbaGWbA0F0ar0JDpnruDYO2lOiJYXbkzsTMh2y10ELK8cGdxTgdBU5zzYFXvLhKYuJXErfxjfCtebLK6J13zw3f7tm3cqr20kmlo2AjALflJ/gtcifZC3aqje+KdJmVicFFzLK9hKQGC7yL5mp04lcj1CCkgXsSFcG0FLqQucTin5/GSbnHxQV4lcpA3fKCTMJGD+KHHspFP7gzIS3pHwrbt27ld+/atl+futj6uCPWFSD2ZZQVQq7aUhsVhllvyQCP3hoZlwwKvtYzkvZjdhwDfJucX6vQteBaQOkhabskbyWOq59U60kDUHAdZC/Hb6hxEjjKZ9LFaZ/JGeeKPcuHLFxJql4uAI+GCC84feakOFwkNDesRs9ySB2Yn93ZuzY45TuYL5IWGdQ5P7Dix00rddAnJQKHcsvcrdyZ09rc8IGbksziXGn0knvIYkac6ND+nHQ3nn3/uGnqpbh6w9XFFKqYRaVjTmOWWPNBW7pOisWfDBgB40whUSFRIFzoImKidCcQImdN1Fc4+WNkrqUsZyJvidmFgFw4gcVnNk50EOt8x4JU+9GPh3HPPbS/VLRnkyI+Xhsnw/vd/kIl92lvywPKR+8hIaENjPFbjiqNd5ax3MHGDZFmEjJng2Z4TuKTT2Wo+rJNd41YWkzaXISETOoieQmSKNpTHZaIMErpw2NZeqnPAvFhKw3oBbsn/5E/+pMamQ1u5LyVJaZsafzasGoTMRYR0KXB2hBTj0AhcSFz8sYpXkkZc89CGfWzlTg7sl/0cLaXHF/RwAaHlbtt+Sti+fds6eqlu3jCSVymiVVkh1KoupUFgb8lP85OzHqtM7u2QNqwtbJTrLeFhIVUhXQkTeQspS7pMz7BLGkLkFwLnOPw0H27pg7DlxTrxSXUhfkR9JB5X/7R63759e3uprmFd4ytE7meffbbGpkdbuY9FOZ0vdnrP3mlqWDpsHBoBIWuoJC3EDZJNcROQcPJNNvhHX+RVwjZCl1V6ivsLhpQPOtlIzj33nOyluoY+yDHpFqfWpGHFgRU7Hjvt3LlTLdOjkXvDBoBcMc3jumkjXXvJilmJ1ZMtPvyIPBEy++CN+WiTH7YB/0ooPmANKQs1JDsVEXWJQ6gcLkvLpIuAc845O3upTspsmBzLN5JldNRlIwBj+frrP8v6Kads5XAWzI3cN8oBGI7KybOI86m3mvEVzrNJi9i9htUDE60ndZVItkrAooOIEymLr9pRhpG1+vMb8HHFLs/ns+fuLJZPBLfqt207JbatYRYYbfYIgoaFwc4nEwAv0gE4D2bFmlq5t7HW0LAy4AkHpEwfJmcmap2ESEDkCCXAmSlpIprf2eUFuiSw88UAEzxqNELHxJb8jOzNtnXr1kjwHlJmw9whh6pbVgi1qktZ68CzdtyWP/HEE8OmTZvUOj1Whtyn6fn1cLTmjTkvjScqbsmX5e2uwfxBdKrkqgRMws/NOS4he1FgfhzhdMlrdoSS39u1rIzM5Xa+zyukL6t9xC+77LLwn//Tb3IbGxrWC2668eZwxhmns752yL2hF42YGpYRiVxNEEcKdAnTKhtRirNIPvbgNE6slKd2kDyv4Ct+sXyxIe2cc87i5+57994T/RoWATkevVIxVaWhF7gdjxfpTj/9NIodC8cfPzs1N3LfAKhdPGS2Wa4uFnFl0lHmoKoW0Z4lxYrsqk7OTKwg0oAVtZItheLDDpQmzhIVIua8IGvk0Y9kgR98NO+I2O35RPxG8PayEW5hNjQYMLLGybLixptu5h9pwlc9Mfbzn4KeDo3c54Rxh2KlOQf1mTQ0TA4lVPqklTjFlHAxU8otdUpjH9iF0I2E4WNl8Id9/O12dsBfTI8XDlyH2PBJdwiO8nN3vDV/8023SFMVXF7DCgN93iUOFVNDAn645owzsGoXbNmyWbXpsSTkPutR1/xt8DSsBVSvuJbrMox5EhsjTKjC6QyQOWJG6vAD0UseTqI//aiP+EmaCGxE9kzmoicfl0fLwEWBVHEsvOhFL4wr9+TXsPSQw1mXFUCtWpPVAl6kA8444wwOgc2bt6g2PdrKfZWwmlP55HVLjuWin4ZFgyc9kCaTJxEvLNDtVjpCWJVw2ZUsIPxE2OILgW4rcH7ODpvWIX5SKaucJulpNY90ConhT6HV+6FDj/Nzdw8up6FhDcBuvfsX6QzHHz/7bDsTua/f06jRWEODka4nYdHlzOeQ/5TI8WHi1zhImYlZb+GrT7ZS19U+lw1fTRd/uYWPdDJrWdKGradsDWeffRZNjLLqaVhG0EEbKw61ZJN1ihuJ2PEiHVbteIkOAs5fU2/Lr63js/5Gk12urNxlyzxrahdbKw3wqUe6ZU4ESyQLAsZpIiQsZ4yRdw5OQWIhzqx+/IEhSxAyT8Qv6fA766wz4z+R4bo5raFhOsjIGi/zBJ61n3nmGWHnzh28krfV/KqQ+7x3bjkxJzJpnNSwlgHC1HAEZGIyzQR2IWBeZYubxDkJWwEuFlTj1Tv8kVdW8uIrt+PVBx++oBAf+F9y8UV6a779C9i1Cx4Z46ViWuvAs3aMXZC7EbuQ+3Fh8+Z180JdHevg+C0B0hVG17WG2NuVSB0D+mVo182ji7mMlTlWvEoGkeLD5Ks6pfFKGZ+RkBNZZ38YVISwYaOolo8Q4sF5LAU+WrdEUQ5U3Jo/OZx9Nq3e23P3jQkcZi8rhLLamgwBVu1nEbHv2LFDLQmr9j33oY1fESxVY8Zh3KQ8ftJemWm9oYFAJIn1dVyF04Z1JXliZ1glAYCKjYLNtJEg2cVRxJ6583N2LptTuWjklNvwAiN9DlVO2XpKuzXfsOYQV+1nnakWmtvdbfl5YHlW7iPn5DxP0kaJDXPAGhtGs51BQrTYcDlKnBxjOxEwYgg1TZ7DKyHzBYFbuSugGQEnq4FTKV3KUeditW+h1H3xxXuY3EtSL+MNax04nl2iqCWVsiTwq/Yaqbefn10S2GGZbO4n77mSxVwLa2iguVAIFBuQJc+NtBFdZspI1DGUDYhf/8QfNoRG1LxhL9XxJ36ZrjB/Uji0Owi4NR/TFV5vaFgNYAR2SW3VDniSn8cKfmpyRyM3Ehp1LhmW6IBM0pQ1NY6IJIVk9XxHXG1s4ED0LFQwx7J/CbLB19JVxJGNUKoQ36RvPXkrr97/8O3vjLaGjQYbM32i6ElaKZSrdmAeZF5iKVfuq9DfS4yug+7sa4oxGtYCEkfqDMiGdGYyyRZnqhGruFbSOI/5CUmnPIiLjZ+968rcfqrWvhuPfIIUXvPCq/nWfHtrvmEq2LDysiCA2DFOzzr7rBFiRzhPkm+35SdBI9GGDQQmU/6T2U6i2CAuNujxGXlME8BXzFbCdBBSl6IhRvT2rH/r1pP5O+/4pS/xE7vla2hYFvCqncaqf9ZeCrAx/itcOz9XBu3CZY5YP53JBMmkmp+IHOsgT37izmkmgNdJ03QuvqOcDIWLZLf8eLFud/XFuoYGAQ+YMeJQSzaZEnHVTuTuyTz9Mp3o4Pf2Qt2MGDcFzz5FN8ZsWLso5zGiUtoIoRpsvgOpWhhBKqxm4wCrbvYE2BCFy4i+0FnjOIB8nM5/6sfhMX6GiR+0uekmWb0brLyGhtUGyP3ss84KO3fuVAsxBJhc4fV5YDJyX5HzpJ2MaxntcmYtYMg5Rj7OzUg1gsl3SDmKiqtkRzkcVSDiBUh1GakDPt/JeLHuoj3h5ptu5Tj8G7E3TAaMly5xGJNcw9679/Kq/fIrLmMSrwsIXjPMAfNduQ/YybWNlaeuRpYNqwch3kiSfiLzYUy3EH+j5Co2KKyJUSG+mq7ICZrC6HNU4lqGubzwhVdVX6wr29HQMHfYcDQp8Cfv/xCv2oGS0PEf4CBmw6y/4W/Lt1O2oWFxMML1YAvZJbSN6SmM2fhdO4sMwyB/c+Hb/CD7o+GUU+ov1jU0rCZuuP4z4eDBg+GKKy93pC7ELmQuMDvQnrk3NDQsGEaQIPQ6UQp/pnQOC1cuwy+4vYxBF0GX7YHbxRfJi3UNDfOFDdZxotDowQMHidw/G6644nI2G3l7YvekbqEraWo0cp8RcigSynjDGkQ7iAxZ+bLmQlLYLl9/wwerZ06FD6dRoL6SzskMsUORtKhzCA8J+Z/FQEWC2k2XfJYuG4keC2eeeTq/WIeXlwzcDvVvaFhJ/Mn7Pxh27doZzjnnbCVxELiQeE0Mxzt9WqwOuU98nm3gEzM7xtMe8PH5ZhpKs4/DUSyizIaJILyJ75ObzmbSRTGSNT+1cMhQm6iW1g0uQ8tjeHfTEZq4W/6Wa+tWvFi3O9x8c3qxrqFh5WCD81i48Ub56ttFF+0h4qYpTec0T+IluVtauy3f0NCwEIwSrZCzkDRHY5rEo6f4alz8ZGXPnmw33+Qjmzqkxm7Y+3V6AyG8UH+xriT2Mt7QsEjgdvy5tGI/9dRdkbj999lNH5VG7g2rgHTNOQSTeTcsF5gMVaDLnXjE8Wd2dmT6ZR8So3JH6exjgHcqR5mZBTBd4xaofyesfApP4V+sOyO8/W3vUJPW19CwQviTP/lQOHz4cLj6BVdx3Ii7plvo7fPA4si9nUsj4MPWdey8ve/4Ulo1uS9PQ8PUGCXGSLQImDhFj4JA85gvJ9EG77azXcVDSB8KNARG/IDksEsH8chhNmyvoUmVvxZ3d/taXMPKArfi8c4H7iABnriHCMD/PnlGrM2Vezs/lxqLuc7oK3U1rmzW/9VUJG7QJitCtqKDSik0soSvWDAzsQmhumoegahIk3Tkis/1C6kiliVe/ra/1XPmmWfw6v2zn/1zjktdnSU2NMwNuB1/6qmn8u348va7j5ehCbB2X6jbSJjiGK0abYwbUKvWsIYVh/JgSYgWNWIW3a0yVJd84gD65RA2uT6wpEKHp0UEnMz25GoeXJ5GTGdPagPCF7bVe8MK48Ybb+aV+7XXviASNeDJe5yI/+zU3Mi9YYOgXZlMCiNB40LmT44QdbINFAqjauYPA4fYKJtrviQVlC4mHfDJXrcbB/i9eazeP/jBD3Mc7WvE3rBI4Ktvl112STjppJM4nhP2KJHXZF5YAXLvP5naqbaW0QhzPQM8aIToiVGDDJwmfwLnI0nIr3HWYYSWlvL4xJDTEEDnKF0niB4FsJAgbUw61u+vePk38/fe2+q9YdHAT8yefPJJ4dJLLxkh7PLWe00ACeE/+9y6WHJf5vNnqXipkWTDMiInyxiSMHnyM3WQcDrRYzrn9SmCUQu768aDjaJGvfRRcBJtohvVotcM+N571+rdwoaGWYHb8fhe+7XXXpMR9TQiedfZbfmZTrVJM7fzekK0C5CNhL7TwxO0kKWE/IYv6UfFoB4E9Yk2JLsyJoIURIFb8attBFxvWr37X61raJgXDh48pLfjLw2nnXYq2zxZ80t0PiTZpLqFXge2bNnM4SyYA7lPfpJOnmM50UV3q0aDOjAaGuYJIfCCRFXnwJ3RZNEQLhQ7ql9+g46PPRAncHkpKoCJfaFrnsInRuGbYgSqCy/TcQYLj4WtJ5/Mv1rX3pxvWARA7CB1PGsH0uo7X5HXxPxKtBfqZkHjwYViUd0733JR2todCKtFTzVeVB6twsja8mFlD5LnD+lY8bPNHGroSyN0JqNc+rzghVfF1bu5NpJvmBW//3tvDw8//HB45StexjMJVt4WZqKr8pLUS12ETTNj45L7EsAfw9HjOacjPAFWvsaGZYYQX05+xoVMmaznBMk6/jiEV47MMpqY8rHAhhziKNGkM+zufAFxSwmn0Or9omL1bvB6Q8NQ4CtvkBe96NqCnIXMfVja+wTYtKmt3BsapkS7lBmKUe6rkaEn4SKdCjDSjnHRxJeTxII4q+zjdChmO4pn+3ihD7f86XOc5uWA4uzLqr5YJ+kvfMGVvHpHOiy4W8B3DOBSkYaGLuA5O1btl19+aTjdPWcvw1K83VDGAVwEzIo1SO7ttAPyoTAEk+do2MiQ88xIF2BS1DgHHFfdYDrsHAp5GthfLb5sIPfMgZTS3wA7bu1L+6Sco/xFOIIOe9hO2bo1vOLlLwn/5T/9Rth3d/4/37vKbmioAc/ZTz/9tHDF5Zdl5Gx6n60UQxmfFW3l3tDQIOjhN09+pnoyNmKNOj4cKrwORGf88SaLc3IsR3RGTJc4hzFJ7RYnHS/Y8Vf2+Gt7R8NFey4MJ514onw1Dq7sIxksbGjoww03fJZvx7/4xddy3Ei5dsu9ZivRZZ8Vq0/u7XxaH+gcmzMM2rmPdxRo0jAE0lPHJMzIr37iElWq5uDzMZmqKsGKAnVj9X7o0KHw2c/8mTSCxL/Fb9CkXmnYWACp47fjr7vuFfwtDE/aECNzCwGfXhNDGZ8Vcyf3dTXg59LPsxcyv8Pd0DAZ7HyO/AwlRgisu7gHu6a0TNc8bFPzuJVzb+qYRJRtxW/dejIT/E033RIOHTyYt2tMGxo2Luw5+xVXXBZOP+20jKC7pLZyHyeY8SWcDev2tnw7RafEHAaVoV2UOKxIZ8y3kkh0Gvpzik2ZQTbcAtJLkrSYuGnM+USyR8h/Ssa0sTSAy43pYq8ScvTReITY8Ob8SSeeED74wY+IlYz287YWVqVAzaWUhvUB/5zdUBLziBw/mRhwUTAr2jP3BWFliK1Sy8pU3LCUWB4qsWGYhY5pTWUC9JEOuKxjUZK9RIsCyIjVO/5rHN+eb2jogXyf/ZHw6uteWSfxUoywK2l9MILHN0FmxRTkPsFZ1tCwGug/f9Yx5rvjcSJC6IqeZQawYspwEHoYngmd//p9jOgR4vb8K1/+zXx7/qDenrd/X1teIETAXJOGdQsQO561f9M3vYjjOC+wsva33Dm+KYnZLH0SAVZp5T7R6TgfrKuTZxX6b85Y+3vQMA34uPuDTzqTqTs/c04UEhXSlIQ8THYpgzZql/goOBU+HekG8+H2RUh9UqXY91yEt+dPCB/i2/Nii22aBD1ZkNQlDcsN/Kc3EPurX/2qcOYZp2cEDERS7lilezHU0rzMC/O7Lb/UI7WdRg0NE8OfNqQjCt7L+Z1izmBZmFuZJM0iEHIVmwSarjaLSpEUQRx5LMGBrZbPoeo7ahIbbV75Crs9/+eZ31Qk37BuYP/p7bWvvS4jdohfudtKvSaAD8u0RWIN3ZbvqXejnYMLHBeLH3KLw1pu+7KB+5I2PBGZjpAQydPOuxjqC3VqkAnsOI6JiL0kzZzsJV4SNJdLJimxDi7HysBH43lZYpe6xH7y1q3x9rwA6fK7thaOSgU1t1IK1FxKaVh5YLWOF+he+tKXELGfwWPZCJ0FhE6r9T5iNwEs9Cj9kqjDjJjfyn2pMafecphPifNvV0PDPPDsc8+H50gYNEz9SKXpR+JmpNAI1EJASJuE/tiVk2QCsyibaMshSFctDFI5jj9hYw5ZozCWommIp3pGoW4Z2Eabiy66MJx+2q7wX/7zb/BXnjys7oaNARA7nrO/4AVXhT27L+Tx6lfptWfqXjcBarq3ATW7T58WG4Tc28m5Wph9iPZgoYWvJcy/I5577rlw1937lOCpfFSByQeJpU6nl8ZiyHATVCJIImdSOc4Cm/pxmdBNcmTET8g4lyKIolxfgkmeF22QdkC37TUvvDKceMIJ4e1v+yNO6yd1pI2TCmpuXhpWFXixEsR+5plnMLnb6hyyafOmtHIvBGRcsw0Vg+nIPys2CLkvMdJxVYwYcMRVyVG3Nmw8zJ8VNm3aFE466aRw5117w5NPPkVjDR8CxiJXV6szjUgbstHLDBRC5Wh0T2UlEqaQ/bCxUDIwMbMmyGOSXpi4qpoAzOG04dvzr3hJeP7558OHPvhhthvB9xP9HFGphps3QBpmA4j9//3V/8LE/tf+2ut5zHWRtNnLdA9vK9OAMt371PwnxZokdz+QV2xQz97XDQ0LwvwHJ8h9K5EdCP6ee+8Pj+0/wHauCRMRNA4VHMUmhWLGpKU6h0LFQqiIA+pAYB+LUnokVc3EyeQkH5g1A0dGSd8TvcRF55imaQks+Ocy3/atr+Xn739W/HvYFSP4hhUHiB1vxp911pmR2E1A4KX49D4BanaIT1sElpPc19s5NNdjN6CwTpfFDKKG9YnNmzeFHTu2M8E/9PAjPHxkMpKQz1OdnGRk2XNwuKodBkvnUHRJM+EkZJINE64YpWzoMYk2TNPQzEyivirIK8JuGUqOjqTP5YLgT6YVPF6wuzncdOPN7GOYjOC50A7pQc3dpAc1d0hDP4zYH3300fBt3/YtMn4INVIvBb5en4dY3bNiTa7cK+frWLRB3tAwHDzHYEOyY+eOcPLJJ4e/+sot4YEHH2Ii5T9MRviYXkxwx0PwzNJs6gtb8pO8XCd9OGQjQpGA/9euTMU+ZBQfJBIhU+BJlzXEk4lheUXEZqt3u1gwXHLR7rD7wvPDZ2n1vnfvPROSesNagd2KB7F/7/d+F9vS2ByVLhKv5fM2r3sx5LY8bVpMTu4LG+PDC26nWR9mHxS9RYykzaG+hqUG5pkdO3bw72rf/8BD4aZbvsYv3PEEhD8OaUJi3zRJwcwOzi5xSwNI5zguAjSmocHSJT/iJpgJODWmAZzfnEoQSbMZVwTsh7wUp43MK0LzIPNrXnAlEzyev+MNeiN4hLOTPdcyRiqouZXSMAh4Kx7EfvbZZ4Xv+77vZpuNs3JV3kXqEMvnQ8D7TCLAPC4mF7ByX6+jKx20hob1D0w0mKA0Rsq2bdvC+eefxxPd175+e7jvgQeIkGnSw+qcJ0A/SSGPpSV7qWNVTxGOc4h0YV38RV0C2EQXkThUgJM0GbOQpKiPJiAoV+mAelKilgdHwsV7Loxv0APzmHRXGmjxENlIsK+7gdjf+MZvi2MEYkReEnofwZsANfskYmXMitnIfd4jolLeRht0y4HZB1aOGcrLss67XWsQ2Qmx2P6gqYY/TOA68WzZsiWcceYZYevWU8K99z4Qbv3aN8Kzzz4nt95B8PjaEBM9vjakeTku+SGiS5nYBUuTesiEfDQz0ZY2SFMfOOMPNnw4LQltUpzT2USg1XrULU2EVLXh9v7obLNt2ynhule9NBx5/vnwwQ98WK0rhTb7LQJG7JdeenH463/929mGsSDjVsalDzep8GOmKcXG2xABUO+sWMDKfSiGDVzZ1bWACVo6xHXt7HjDOgTmmNqkA2zZsjmceuqusGfP7vD000+HW275WrjnnvtoEsMEKETOZIwJETrymx5D2GnSdD8IgjEP0md/fJyfxIXk5SKA4siHPLSxuLUSOgrkT6GLiI+EnCNPpw9smKdOOWVr+N7v/o5w1513h//8n34juz2/eKCOPqmg5lZKBTW3UtY68HOyIHb8E5jXvOY6ttkxl7EpEgmdhAeIiqV72xDxRG9idUDiuGNBFtrMiFUk9ymxHkbYekXHeJx9mDasPGgC0omMJxr8gUQh+JBt8+bN4fzzzw+nbNsW7t53b9hLAvLlF+t00kJ+fK2OJzEKpUyKQ2diR7yY6OCDHw1BaEROPtwWrZvj3C4fl/KkfpSpaV7URhvsUiqP4wh172kVzzo2NOcgeMO3v45W8EdWgeAb5oEbrv8svxWP34r/phdfy7Z47Ek88eKA81ilMBubFC99TQAfZmljJPMloI5ZsdzkTufNejt1eg/Z7MdzAMZXsiLNaFh+YCCQROK0D008JljFn37G6eGcc87mX7T7s899MTz00MNCzJgQ9TZ9DNXOK3AOlejZx8hfJlT5ZTDzE+LmCwJrj5UBO7dH28q+0r54sWFxs3E82Y30Ragc1fkZvOrbTtkW3vjtr48Ef+CA/EwtCH71SB71jpMKam4m6xD4nfgbbvhs+M7v/OvhsssuxQGWsWBCYwQ2tpPuibwUwOsGlONDD19XCbZ5mRPW3sq9oaGK+Z0UGxf5zI7JK5I66RyPk57NRdLv+LrcJZdeHE488YRw8y1fD1/40o3hwMFD5J9W6xzqKt7iRvpC5Cre/zgKyYY8WInLBQBsaJuVJe2KgnYy+YvEiRVxabTGsR+w6b5SnDS1yT7ahQCAAM/g//obiOCPHAlvf9sfRoIH1s0qvofkLalPlgn2c7L4D29vetN3hPPOPSeOBz6gKmYrSd3GTJ+t5tMlgNVlAruPsw+N+VnRyH1JIYe4B+rQ6Te2gIaGbsiEkwiT40x0SJN0nqwg6o+X7c6hyRMkD/L7i89/KXzy038WDh46xD+Ig9v4IGeR49mGUESIehMR92YQuBE6+yAuAttm9t8sBE+6pKGdSEc7NR/pXAan0T6wyH74feJ9pH3FOSNx2jdEeP9k33hfeT9B8NvC33jDt/CP+9QIvt2qXw7YV932798fvvu7v5OI/WxNSfAEO60ANbuJR1d6GccQOnz48ExjaSHk3oZ2Q8Pah0w2QmhC7CpEhpbgJySAYuGELSeEc889N1x66SWc9tk/+0v+AZwDtIrCbXwjbBC5ED3ZQLCsa2hxCo38cTHApA8h+2Ymc+iyot+0GWkgfdhB7BQysdvFgtpQtpYbSR/7qBczvBfky6TPabKPvg+wgn/dq1/OX5UDwYNIlpfU0a4u6UHN3aQHNXeTlQKer2PFft5554a/9WM/wit2wI4fH08Ss1k4RLp8zV6iZvPw+Q3Hjh4Nzz77LP+exLTjaiJyzypZ8JFayYHQMBT9g7QPyDl97obVgCcz2rAIETo7gbT4MSDthBNO4Dfq91y0Ozzy6GPh09f/efjil74SDj/7XNhMJL95y6awhVbzW0D2JLy6h93FETIRM9GCrHUFT0R+PHyIzPmOAKVhxQ/CxsoePhC0Vy4AIJKOUFbo8EO50MWGdjPpU+hXdZyGD8dp/ygvCP7yyy4OF190IX9Nbt++e3TvZa40aVg52G14PF8HHn/88fB7v//28MlPXU/j7zPh69+4Ldz/wIOcBsQxrCFQs3mUvqW/txnMVhNDiiOU/8yIf2J0lIh+Gmz6RYLqvXj66afCnXfeThU+G47SgD165CjfehM5Sg1Ig5nHc8+YjjuEnYknzECxfCSGpPVD/KzuPC7FmZ6HgNeBPEYo0gGXW8PpMXsJDYOhnS2B63lSU8xpzkUwYoimSsoMsNLKcAg6fGlnbr31a/xznDt27hwh89pHsqXQdAAqfgRm165dTPb4+dp9++4Lhw4+Hk468cRwChEk6gC54lk3k7cSL3SUJYQOH0sXXYTqY3+qiHwlDgKXNCZnjR9HZXD7NqGNmpeyyYpd6oTIy3UpZD981N+eySOCdwxwmx7z3uc//8Vw+JnD4cILL5B0hdfXJiZsf4/7Inti7937wm/95n+jsXZq+A//4T+EN7/5zeGlL31Z2L59B/PTtm3bw/XX3xC+8Y3bw5e+9FfhG7fdHu6++57wwAMP8CoZF50YLzimkx6zmj9sQ8oxPxP806IXvvCF4VWvui6OSR6XA8ryOI4G5aBLyy984fPhrju/xt9rfZ4I/TnqCOmQw6w//7wS/dEjQvRG9mB5+YuQRsIiOyMnGURPJD2x5KUYO0HVLgWwv6G2y/lOSUz81JsCH5fixEilq01CwOtAHiMgvdKV0eLSrE9ynbWo89aXx31pUC0Gzo+Rp4+iMyGie1iQXf4cXKwrWyWh07VE5iiRaCrSKq6TQw+ujYMIiiaL0wo3nxahJgTcrGrbxFhLj1GnyA+pwuDDhKKIArlvBO3MO9/53vDVr34jXLibSKrwK8+DGkoXzkOCEKuRp558KuzffyA88cQT/B3ys88+k1bAl4SzzjyDV+vcbtoYqaYy8rJhS+OUEqC7dCCasLGCY8TypFB61YVZMlk1juz0JxvESfnil28KX/zSjWH37gvDd77pb4SdO3cggTGk35YXU7Z9BbPhNjxW6z//8z8f3vKWt6h1FI888giHN954I4df/OIXwz333EOkfz3Hge3bt3GIW/oQgH+dUfXa3FjaEM/HZzfKsfEHb/ujcMEFF4aPfOQj/D8dILgwxh2qSTCY3H/1V/9jOPOM7eGZZ54hAj8ayf1ZInf8QtX6JHe1sS6hIY8RkF7pymhxadYnuc5a1Hnry+O+NKgWA+fH8Pk0zFA1ZugeFmSXPwcX68pWSeh0LZE5SiSairSK6+TQg2vjIIKiyeK0ws2nRagJATer2jYx1tJj1CmLJneQlI17G96j+5ojO0+czuc3PmTCKgQK5pDH9u8PTzz+BN8+xW3uSy+9KJx/7rnh/AvO5dU25hTLw/ODFonysH/cC1w22mcTqugZNM5bTUe5bNYy2WaRCC3H/JBXI1z3MQ3hQwViP/74Ax/j9l5zzQvDq1/zKm6TwetrB1O2eQWy2X90w9j4lV/5lXD11VdryuQA8T/88MO8kjfS37t3L63u7+Z0T/rAueeeQ7bt8Xl+15zZZbexUI6J3/+DPwwnnXQyLai/EMn9xBNPXAy5457/t3/7t4fXv+5V4bLLLqaV+/Ph+eeeZ1JvK3eAM1E1ea1AtLg065NcZy3qvPXlcV8aVIuB82P4fBpmqBozdA8Lssufg4t1ZetI6HT3yJwkEk1FWsV1MrgDa+MgQg+zwGmFm0+LUBMCblZn2/w4SIhRpwilwODDhKKIArlvBO0MyP1rX/sGPy83YPxjTJTnQYSz5+em6GZCGqdryOc2yWFaKDz6yKNEjkL027efwt9HfsXLXsK3SUGWmIcsP/2lHdSyrX0ciinCxnM9dHloY2mkkUhFMEUr+6b+kFDtpBw69Hj46tdvD3/5hb/iX0F7zWvll9A84Lf+MMU+zdANn9HV+ute97rwb/7Nv1Hr/OFX+yB9oLbax+oeIV4mxYXqDiJ+uyBIYyrBxoAfC9DxjgDOg7vuuiuSO76ZAXKfZNwMIneQ9hve8AZq4PPhp3/qx8PRY3Jb/jki+MWSO+l0UtsEwASP0aBxQ213852SmPipN4oxBVsOxMh1sE1CwOvASAyGSldGi0uzPil1jrEuBq8jEt2izYKUkpD75KgaM3QPC7KPFO18u7IxRhN73Q2Zk0SiqUiruE4Gd2BtHEToYRY4rXDzaRFqQsDN6myb7kORHqNOETqCwYcJRREFct8I2hkj94su2qNGwuhOjpwThnT+cMB+EIwpy4PzGsC5Dfiy8BWgRx99jJ/7Hz78LP9PeYz/173u1eGbvulafuEN8wtNEzLP0Ac/LGNj9tixo7E7oo38DH5sc2/zn9qwEkc7NS2VCZ1VgulmQMiVYUdinlu/+o3w8U/cwLfnf+RHf5jC7dl+en19YIr9mSLLvrv3hT/5kw/yf+obdxt+kZjkFj9W+Ub+frUPYBz4sWDkfueddzKpG7nj1vwkY2YQucPlt37rt8I//af/JPzL//tX1im5W8hb1SUEvA5kMUurdGW0uDTrk1LnGOti8Doi0S3aLEgpCblPjqoxQ/ewIPtI0c63K1tHQqe7R+YkkWgq0iquk8EdWB5rHhRNFqcVbj4tQk0IuFmdbdN9KNJj1CmLJffbwkUX7xkZ98BIvxC8W/W80dDiCHw5tXoArOixksetexD9kSPPx9uU3/L614RTT90ZLqF24lEhSJ17gcYuVvkYws8//xzNRXjhV9LiuKZAdOpHCtVK4ATRYFc/y2d6iouNtiS0D0jjFAG+4/+xj18fHn/iyXibHij3t2v/1x/G7GdP8qEDB4nUP8RfOwSh/+RP/mQ444wzNHW5MO4WPyCr/e108bqNb/VDv+D8c8Pv/t7bwkte8s3hd37nd+LK3W7LTzJOBj9zv/3228Nll10W/u7f/cnw6le/opG7hgxLq3RltLg065NS5xjrYvA6ItEt2ixIKQm5T46qsYC1pQQZR4p2jtU8htHEXndD5iSRaCrSKq6TwR1YHmseFE0WpxVuPi1CTQi4WZ1t030o0mPUKYsm94svuUiN8E7+fn/L8wKINpeWn18Uanm1/DXAz6YqEL49pwfh470ffL/9qaee4vSf+qm/FU47dRfNQ0f4P38h9N/uAdEjznacVyoG0zlEmkQ47sV8cttxXL5AbIcOPRFuvvXr4c8/9wV+k/473/QdG2AV34XJ9/PQwYP8C3O4Bb9nz56Zn62vJvxqH8R/3333jaz2gR//8R8P/+pf/StesUPwA1H8rsoEGEzucMO35vBi3T/+x/8w7Nq5o5G7wdIqXRktLs36pNQ5xroYvI5IdIs2C1JKQu6To2osYG0pQcaRop1jNY9hNLHX3ZA5SSSairSK62RwB5bHmgdFk8VphZtPi1ATAm5WZ9t0H4r0GHXKosn9kksujvuG8Y/zufOc6LCbir6UFouhPJ9K1NKt/rIdAF7uxXhFHbitb8B32u+//4H43P5//vmf49v6mzdvobnq+UDszmSMuYvnK1r946u9mL9k9U8XAbBTHE0XHxF0MOrjuBI6dCN3uJiCD37J7g/f8T7uFKziX0iy8Uh+sv37DBG6kfrP/dzPhb/21/6apqwvYGxiZQ4Sx+13ux0PgQ1fAZ0Ug8kdwKC99NJLwxNPPB7+0f/0D8KOHTsauQOWVunKaHFp1ielzjHWxeB1RKJbtFmQUhJynxxVYwFrSwkyjhTtHKt5DPXE3ixA5iCRaCrSKq6TwR1YHmseFE0WpxVuPi1CTQi4WZ1t030o0mPUKYsk969//Tb+hTlDNv6dXp4XAM7XEiPnD8UxP9TyVwE/DEgfdkEHrp/arD4A4SaaSE866cRwy823su2X3vr/5SIxx7EvzV94BIAfEeFb/jSvId/RI0b6OD+E+NHRFsdRER0aAb4IOS5tuOEznws33vRVWJnk/Qt3g/tjXSLt+0033sSkju+s/+AP/uCqPVdfCYDYQd4lsSPE7fhpiB2YiNyBO+64I/zMz/xMuPHGr4T/4X/4WX4rcP7kTmKkvvTkTppFuJpazQBpGrE+KXWOsS4Gr6c0QJUYxAQHZ6sl140Ovj4PMqo9JTvHah5DPbE3C5A5SCSairSK62Rwh5nHmoc71JlWuPm0CDUh4GZ1tk33oUiPUacsltzxGC6Ru9/J/LzQ0JU3cq4UcQZsfoBZ3IcONfcusJ86Yw6y+m2q81Oeb5tNsFhBffKTn2bbv/u3/xfFN/ELe/j1PLu9j1v6RvocB+mD3MmGlb+B50AIjoZWizi+wvXlr9wcvvKVW9h87bXXdD6P3zg4jkkdz9RxG341X5ZbKeBY11bssxI7MDG5A3iL761vfWv44z9+X/jRH/2bYfeFFywVuY/ukFjET71RjCnYankS5DbA64BLSRGuJq89xUjTSHaiO51jrIvB6ykNUCUGMcHB2WrJdaODr8+DjGpPyc6xmsdj1GFsFiA6iVJEFUVPZJGBcIeZx5qHO9SZlrkVeQxqRsDN6myb7kORHqNOWTS5X37FZWpkcxwPfn+tjzrPFa8rKqaxQJmYT8rz0IB22NG3KY0DbCwP6TwnaTowcl6X5VMcq/dn+dn+s1wHfoUOv5H/T//J/xief+45/plbzH2y2scc+Hw4hmf6WNnjYsBW+rqKT/UfC/v3E8l/+abwiU99ht+qB8nXvjq3noG33m/SZ+oASP2Nb3zj0r4sNw9gnPkVO4gcYsQOop+F2IGpyB3Ad/DwBv1/+A//PnzzS14cvvVbX9fInavJa08x0jRifSJAP6kadTF4vfTzAaepluAso4mEqtHB1+dBRrWnZOdYzeMx6jA2CxCdRCmiiqIfsshAuMPMY83DHepMy9yKPAY1///bO78fu6oqjh9ITKBN7MxADSGltNNSS0trLabGRvgP8NkXTaqv+GrSaDQh8Qmj/wAJ8MSTvmk0JvLLlBACCYkaQpAG9EUI9pfFmRao67v2Wnuvvc4+t3M7c6f3x/q05+611l773nPPj/09+5xzz6Dg2RqcN/kOrj67xpi0uB/6qhF3+pc+sbQb3D+quBiC34+G6C37Bv7ztSvTfodLuxDYT5Oi74Gb9K6tpwdyQcTxW3WAm/YUXPcFp0+f7u6///7uvvvu644cOdLt3n0vC/kPzvyQR/Q//cmPu6v/vZQ+m97/C4zsWeBlZC+jfcwHxB8lntj3xptvd39+8dUs8jqSBxtdbrMERB3X1DFKx7Kd99PvQ+AnchBzFXidxr073nPL4q5gI8Vd9JcuXuy+duJY9/jjpxdL3F087dGF4pElji6TBJaTmNlOAWv7PFtwnVgFE+lXEs2gwX6ehYISL9UmsdnG0k+4aROQk5LhXMEth8rZIGZ18rZmIbdEjFWluTaKhFHwbA3Om3wHV59dY0xS3PH87UOHHpIgwiUfNvbtap+o6sUg+vtN7Q/Ra0e+/8zePAjc72CSJQAbYMSNa+QQbB2J4257K+AAQrN3797u1KlT7J84cWLsu7Mh8pg3CPmTT/6IRf3nPzvbffzxv6nPvN59CTf0YTAkwp/E/guq/6R7/fU3uz/+6UUWeTwlcM8De0jsj8o795fNLOFH6RDzkydPzu2NcpsBAo9R/M6dO3lED3+cEf2mxR3oKP6pp57qlpZ2dcePP9I99u3TZQdL/zNp40QkifTNxJ1z2KYJnQPn8jvhpddd9L9QilTZVFg/zRNKfhU7lcDaIHsuTl9ajETxyBJHl0mCvJ6dAtb2eRnJMRHB53iaQYP9PIsEqSjVLrHZTmlXjmwCckIynCu45VA5G8SsTt7WLOSWiLGqNNdGkTAKnq3BeZPv4Oqza4zJivv73eHDhyRI4EvqBuG3ecKGqv3GfY7fj0ArdlPQBvPTaItHZGO6TEKCpXSFRuE6EldaAr579+6JnwrGTXro01j8yX/iie/wYOjXv/oFn/7XR+5ievUvr3WvvfZG9y4daKnQH33kCM17eXLgLPH73/1h4Ufpt4qeuofQ79ixg0sI/ah9Z0vEXbEiv2vXru6xx76VjjjpE/ofgghEuoi7/bOLIe70amyfl5EcExF8jqcZNNjPs0iQilLtEpvtlH7lyHQlJyXDuYJbDpWzQczq5G3NQm6JGKtKc20UCaPg2RqcN/kOrj67xpi4uD/8VQlymLcHv7kr1b7i3ru37wy9icV+YOODcQodAo6HxAAIOUaFFhXwPXv28Gl0CDiY1t9IQ/C5pBH8L59+msX++9/7bnf+/X90f/v7O905Evp33nk3C/0j1LeinDawHnDD4D8//BeJ+V/zesH6mOefs20FGKlDvO1NdRB2jNY3tN8YtlTcFYj8mTNnupdeeilfP4LIwy7gYyHSNJFop1PvaeSOGw1C3OnV2D4vIzkmIvgcTzNY0d40JEZFXWu8VrNMu3JkE5ATkuFcwS2HytkgZnXytmYht0SMVaW5NoqEUfBsDc6bfAdXn11jTFrcHz5ixb2cFsc/XdK9ZUT4fQXY9hWNXGV9fY1PpbM4UBoEHFgRh2AAex0c06w+5KQFTu2j/0N59uzZ7sJ/LvLDTz766KMs9OABKmHX/ezksWKOO90xAR2h38pljXlmZWWFBdtOGIXjGvtmb6KzTETcFR3Jv/LKKyz02PAg8un6UeqMuLNYOHHHi9ZQN5mT1E4Ba/u8jOSYiOAivYR+C0+Iu1u35JaIsao010aRMAqercF5k+/g6rNrjEmK+3vvQdwPp5DL9fsCQGyoK+nlGx8CjveHQKyJmOMhNFbAgY7CN3MdfB7B9Xr80ZRz587lR5tC3HHmFCUE3x4A3Cq6PlTE1UY8xLyPXh/XG+XUnoSIDzFRcbdA6PGEu+eff543PAg8HuCAZ0OHuIuZ7RSwts/LSI6JCC7SS+i38IS4u3VLbokYq0pzbRQJo+DZGpw3+Q6uPrvGmLS4HzlSOmi/L2Db8PsEGIpDuC9fwuNi09PjLl8ePo2+3dfB54XW88z1saZ+NI8+WGnVqXBr6fHralGvn2Nbh1BDsCHiKuRaYlS+2bveb5VtE3cFIv/cc891L7/8spy230UbyR7akY91+/btq8Qdi8OLO0WSLzbwi63/hVKkyqbC+rrwU1HHgF852XNxo8BM8cgSh4ucV4t2slPA2qCsqhJLphM1xkV6Cf0WPejzBt+XirrOeP1GhnblyCYgJyTDuYKb38rZIGZ1Lra4nydxP5y3e5RZuDHptqg2lWtr/6NpnW9gAxsVcBCj8MnzwgsvcIlT+hYcBFjwB07svQog1lMB+wAEXU+nQ8j1t+mwEd+OkfnN2HZx92A0r0KPO+3xZyb373+w+/rJE9z9TLW4uxjjFmfxyBKHi5xHnXROUjsFrA1C3BU3X9kZio+BWaXD4l7H683AtQES0hqercF5k+/g6rNrjEmL+9Gj/ZE7RuD4GZmKNgQcgm6f5w4BB/N8HTxYLLD9q6DrCF0niDomDEqnidsu7gpG9BB4nLZPQr/ULS8vkdDv61ZX9/Ffdxol7qO/RKot2amwvnZeqahjwNogpdUxxi3O4pElDhdGqEsTtVPA2gwFiieWyTGZRO0xVahR76k+T5EIFXWd8fqNHO2Ekc2qSjdf2RmKj4FZpYsu7ru/ci+L9vpa+strrVG4CjiIa63BPAGx1tPtKuBW0FE3bYJumRpxt6jQY0SPU/gAQr9KAr+6f3+3srLcHXwIz71OHZR2bcDahRQp2amw/jjini0TyzQWZ4rQq1RxkfOok1Yz2ylgbYYCxRPL5JhMovaYKtSo91Sfp0iEirrOeP1GjnbCyGZVpZuv7AzFx8Cs0tkQ92EGP4IZaEtfBuL+1ltvs9s6jR4CHswjKuYq4rbEhFH7NIu5ZyrFvYU9fQ+Wl5d5NH/g4Gq3QjaEv035eqk7Kz2t9RdP3EEjp8LOmyIBKuoq4/XaeNoJI5tVlXY5ENkZio+BWaWzJe6oqD/bvYWjMZ+AvgzE/ZNPLlL5GwkGwfxhxdwLuYr5NFw7v1VmRtwVjOpBb2RPo3mIPAs+Rvj5z1WWr5e6M+nUqLD+lok7Ps8t0ezKos6vbNjOnOxUSWg8B9gunlgpqZgVLtJL6LeosfOjSICKusp4vTaedsLIZlWlXQ5EdobiY2BW6SKflt+588v8E6sgmBcg5la87QQhn3Ux98ycuLewp/HVhtijd1Oxx6l8lLlToyJZ8io9NApdIiWWrvMr2TKxAjV2SzS78sb5lQ3bmZOdKgmN5wDbxRMrJRWzwkV6Cf0WNXZ+FAlQUVcZr9fGM5wwWFNV2OVAZGcoPgZmlU63uI94C2F0fWM+AX2ZEPdg1kF/DbGGcPtT6zrdrp+obRdzIe5D4Cl5KvYKRP8gC/6q2GmEX4ScOkVZIiW2teIOuAtn13bmZOcUjecA28UTKyWxCUw2UXvebQQcdn4UCVBRVxmv18YznDBYU1XY5UBkZyg+BmaVhriHuAfTD0bkGHGrgFtBXxQhbzHX4m5pje6VNKpPIo/R/cGDBzg2UtzLSx+3SLNn4tyFs2s7c7JzisZzgO3iiZWS2AQmm6g97zYCDjs/igSoqKuM12vjGU4YrKkq7HIgsjMUHwOzSmdZ3EfVJRrzyZC4/zbEPZhOINIq2Crk6uu0iELeYmHEvQVEXicv+hB3AKGH4N95x53dyj000iefN5vy0sct0uyZOHfh7NrOvLb51b4X2cWz8fxio0TtMVWoUV9Bn9dLkQAVdZXxem1atJMGm1YVdjkQ2RmKj4FZpSHuIe7B7QGjcSvYKuJ+ND5P18i3moUW91HoU/TsAYAC4cfD/+8Rsb+H7IMPHZBawi3S7Jk4d+HiFtt27KkSz47OoH1WklTPmHwTJWqPqUKN+gqan16KBKioq4zXa9OinTTYtKqQ5aRkZyg+BkbzJiruoDl/dhsotNo0mwuj6hKN+WRC3IPtAwI9NAJXAcc0Sz9BmxZC3DeIirue2gd2pA+86H/z1Dc4Xjrmsqi5Cxe32KVjv3EjifrQyL0SFG2UX5Xay1ThgRyGPq9ZTUGJl2qX2GxnaScMNqsqynJgNly3AcxyDXEPcQ82D06RY4StQg7Rbgk66uN0+tYR4r4FWJFvXdMH9jR/KldTjBY/fqufeuPSsYe4O6qKUQI+qm4DmOUa4h7iHmwMiLeKtgq1FW07xSh8ewhxnyB2tA9U+EFL/PE7ff4JH3XNB1b381P5MOmBwWbFPa9qKdJRcp1TQ3Xpv6MES53L6jcaoJ842DRXhLiDZnNhVF2iMZ9MiHvQR+9IV8H2Aq4+JuTFCPz2E+J+G4HQ6wSGrvEDCD9YXiGxZ9HHgUCyOY6DALHLCq1XbYj7BjB9Uoh7iPsiYE+bW9G2pZ1CvGeDEPcZADf3AXutv3UAAFTk0xmArjuwuo/L5aX095tXD5Ava3yrxD1tQi5L3Jt3Aq4d0Y8IuSIZzhUmJO5ipqL+TiHuwbQCIdY7z71IY/LxEO75IcR9xlGBt4L/wQcf9OIWHAAo6UCAfNoKVqjUOpR8oEAHBf0NhCISRBHiLgZT1zFV26H5VkLcgzbYl7CvqWDraFtF2Yq0j2ubYHEIcV9AcCZADwLAqAMBRUU/XRJIZwH4AGBpiTucRx89zrGMbFUh7kTVdmi+lRD3RQH7hk4q1ihb4mx9jSE3BDsYIsQ96NESe5TjHAwAPSAAOCDAgYDCvtTDXjF1S3Lw0MMpnHOFEHcwqi7RmE8mxH0c9OBVBdoKtZ2sUPuY5mv7INgKQtyDLWFI8GH7gwLg81qUg4Mb+cBAzxqAFLtBBwPlwEDvLQBLYtvYTTF9a4h7iPtdd93FIowJ16dVlFWYtVRx1ikIbjch7sFUg7/jrwcHwB8g2HIU+/fv7c6f/7AWf3OgAKlbMmcPAEQbBwhJBu+oDiwUPQBBzurqg92FC5fYRyCfqUhvoEVTqAsh7tvNjh07qoeq2IerqHjHiDqYNULcg7miJf6gZduDBtA6SPCxVo4Cob9w4aJ442MvYxTK7omDBRxg5AMIw1buxBcvXuqOHTvePfPMM+zbU89a+hhAV2InPDr5ypUrUnv7wSj87rvv5hKTfeAKBDwI5okQ9yCYEPZBRaMOCpSb5fiDkUny7LPPirU5IPCff/55t76+3q2trXWffvppd/XqVS4nAf7UJwQcE2xMIeDBIhLiHgTBtoNuB6J//fp1Fn4VfRwAXLt2TbLaQKxxKh2TjsAxQcDjencQJELcgyCYKjDa/+yzz7jU7gmn/+P6dxBsnBD3IAiCIJgz4hxWEARBEMwZIe5BEARBMFd03f8BMwlETxdqIgQAAAAASUVORK5CYII=;" vertex="1" parent="1">
          <mxGeometry x="580" y="130" width="263" height="357.64" as="geometry" />
        </mxCell>
        <mxCell id="BKW26pUf2z8POeooUctu-29" style="edgeStyle=orthogonalEdgeStyle;rounded=0;orthogonalLoop=1;jettySize=auto;html=1;entryX=0.5;entryY=0;entryDx=0;entryDy=0;dashed=1;strokeWidth=2;" edge="1" parent="1" source="BKW26pUf2z8POeooUctu-26" target="BKW26pUf2z8POeooUctu-2">
          <mxGeometry relative="1" as="geometry" />
        </mxCell>
        <mxCell id="BKW26pUf2z8POeooUctu-26" value="&lt;font style=&quot;font-size: 20px;&quot;&gt;Navigácia Nav2&lt;/font&gt;" style="rounded=0;whiteSpace=wrap;html=1;" vertex="1" parent="1">
          <mxGeometry x="430" y="10" width="120" height="100" as="geometry" />
        </mxCell>
        <mxCell id="BKW26pUf2z8POeooUctu-31" value="" style="endArrow=none;html=1;rounded=0;strokeWidth=6;strokeColor=#FF3333;" edge="1" parent="1">
          <mxGeometry width="50" height="50" relative="1" as="geometry">
            <mxPoint x="380" y="608.82" as="sourcePoint" />
            <mxPoint x="380" y="8.82" as="targetPoint" />
          </mxGeometry>
        </mxCell>
      </root>
    </mxGraphModel>
  </diagram>
</mxfile>
